<?xml version="1.0" encoding="utf-8"?>
<!-- Generator: Adobe Illustrator 26.0.1, SVG Export Plug-In . SVG Version: 6.00 Build 0)  -->
<svg version="1.1" xmlns="http://www.w3.org/2000/svg" xmlns:xlink="http://www.w3.org/1999/xlink" x="0px" y="0px"
	 viewBox="0 0 1920 1080" style="enable-background:new 0 0 1920 1080;" xml:space="preserve">
<style type="text/css">
	.st0{fill:url(#SVGID_1_);}
	.st1{fill:#FFFFFF;}
	.st2{fill:none;stroke:#33FF99;stroke-width:15;stroke-miterlimit:10;}
	.st3{fill:none;stroke:url(#SVGID_00000098905554532025506570000001935577306491706288_);stroke-width:15;stroke-miterlimit:10;}
	.st4{stroke:url(#SVGID_00000156549816732912337160000001035526084431364793_);stroke-width:15;stroke-miterlimit:10;}
	.st5{stroke:url(#SVGID_00000049913719875672956210000015172990745759052933_);stroke-width:15;stroke-miterlimit:10;}
	.st6{stroke:url(#SVGID_00000127029784499465956180000008892129430402547345_);stroke-width:15;stroke-miterlimit:10;}
</style>
<g id="background">
	<g>
		<rect x="0.5" y="0.5" width="1919" height="1079"/>
		<path d="M1919,1v1078H1V1H1919 M1920,0H0v1080h1920V0L1920,0z"/>
	</g>
</g>
<g id="Слой_2">
	<g>
		<path d="M1345.7,152H637.3c-16.8,0-30.3-13.6-30.3-30.3V38.3C607,21.6,620.6,8,637.3,8h708.3c16.8,0,30.3,13.6,30.3,30.3v83.3
			C1376,138.4,1362.4,152,1345.7,152z"/>
		<linearGradient id="SVGID_1_" gradientUnits="userSpaceOnUse" x1="607" y1="80" x2="1376" y2="80">
			<stop  offset="0" style="stop-color:#FF0000"/>
			<stop  offset="1" style="stop-color:#33FF99"/>
		</linearGradient>
		<path class="st0" d="M1345.7,23c8.5,0,15.3,6.9,15.3,15.3v83.3c0,8.5-6.9,15.3-15.3,15.3H637.3c-8.5,0-15.3-6.9-15.3-15.3V38.3
			c0-8.5,6.9-15.3,15.3-15.3H1345.7 M1345.7,8H637.3C620.6,8,607,21.6,607,38.3v83.3c0,16.8,13.6,30.3,30.3,30.3h708.3
			c16.8,0,30.3-13.6,30.3-30.3V38.3C1376,21.6,1362.4,8,1345.7,8L1345.7,8z"/>
	</g>
	<g>
		<path class="st1" d="M676,107.7l-5.8,11.6l-30.5,0L677,44.5h1.6v0l11.4,0l17.5,0l0,0h1.6l37.3,74.9l-30.5,0l-5.8-11.6H676z
			 M693.1,73.5l-6.4,12.8h12.8L693.1,73.5z"/>
		<path class="st1" d="M784.9,119.2v0.1h-32.2V44.5h26.8v50.1h52.9v24.7H784.9z"/>
		<path class="st1" d="M896.8,119.3L876.2,89l-0.7-1.2l-9.7,8.8l-1.9,1.7v21.2h-25.2V44.5h12.6h12.6V67v4.9l1.8-1.6l0.1-0.1l2.9-2.6
			l14.7-13.2l2.1-1.9l8.9-8h29.2l-29.6,26.6l0,0.1l30.5,48.1H896.8z"/>
		<path class="st1" d="M967.1,107.7l-5.8,11.6l-30.5,0l37.3-74.9h1.6v0l11.4,0l17.5,0l0,0h1.6l37.3,74.9l-30.5,0l-5.8-11.6H967.1z
			 M984.2,73.5l-6.4,12.8h12.8L984.2,73.5z"/>
		<path class="st1" d="M1076,119.2v0.1h-32.2V44.5h26.8v50.1h52.9v24.7H1076z"/>
		<path class="st1" d="M1129.8,44.5h28.6v74.9h-28.6V44.5z"/>
		<path class="st1" d="M1257.5,119.3h-24h-4.1h0v0L1193,81.2v38.1h-28.3V44.5h28.3l36.5,37.9V44.5h28.1V119.3z"/>
		<path class="st1" d="M1296.4,71.8h46.2V92h-46.2v7.2h46.2v20.2h-46.2v0h-32.6V44.5h2v0h76.7v20.2h-46.2V71.8z"/>
	</g>
	<line class="st2" x1="315.5" y1="725.5" x2="955.5" y2="577.5"/>
	
		<linearGradient id="SVGID_00000178908694143274453060000012099665960552285611_" gradientUnits="userSpaceOnUse" x1="953.8102" y1="503.5" x2="1597.1898" y2="503.5">
		<stop  offset="0.4623" style="stop-color:#33FF99"/>
		<stop  offset="0.5628" style="stop-color:#FF0000"/>
	</linearGradient>
	
		<line style="fill:none;stroke:url(#SVGID_00000178908694143274453060000012099665960552285611_);stroke-width:15;stroke-miterlimit:10;" x1="1595.5" y1="429.5" x2="955.5" y2="577.5"/>
	
		<linearGradient id="SVGID_00000008865312132358921120000017628608499261093772_" gradientUnits="userSpaceOnUse" x1="38" y1="725.5" x2="594" y2="725.5">
		<stop  offset="0" style="stop-color:#FF0000"/>
		<stop  offset="1" style="stop-color:#33FF99"/>
	</linearGradient>
	
		<ellipse style="stroke:url(#SVGID_00000008865312132358921120000017628608499261093772_);stroke-width:15;stroke-miterlimit:10;" cx="316" cy="725.5" rx="270.5" ry="271"/>
	
		<linearGradient id="SVGID_00000040571984225877379840000008052304060996989607_" gradientUnits="userSpaceOnUse" x1="677" y1="577.5" x2="1233" y2="577.5">
		<stop  offset="0" style="stop-color:#33FF99"/>
		<stop  offset="0.33" style="stop-color:#D43520"/>
		<stop  offset="0.66" style="stop-color:#FF0000"/>
		<stop  offset="1" style="stop-color:#33FF99"/>
	</linearGradient>
	
		<ellipse style="stroke:url(#SVGID_00000040571984225877379840000008052304060996989607_);stroke-width:15;stroke-miterlimit:10;" cx="955" cy="577.5" rx="270.5" ry="271"/>
	
		<linearGradient id="SVGID_00000039855445694961231950000004722188971622100922_" gradientUnits="userSpaceOnUse" x1="1317" y1="429.5" x2="1873" y2="429.5">
		<stop  offset="0" style="stop-color:#FF0000"/>
		<stop  offset="1" style="stop-color:#33FF99"/>
	</linearGradient>
	
		<ellipse style="stroke:url(#SVGID_00000039855445694961231950000004722188971622100922_);stroke-width:15;stroke-miterlimit:10;" cx="1595" cy="429.5" rx="270.5" ry="271"/>
	<g>
		<path class="st1" d="M155.2,700.3h-24v-17.9h-14.6v17.9h-24v-53.9h24v17.9h14.6v-17.9h24V700.3z"/>
		<path class="st1" d="M159.7,646.4h20.6v53.9h-20.6V646.4z"/>
		<path class="st1" d="M207.8,664.9l23.8,8.6c8,3.3,13.4,6,13.4,13.4v3.5l0,0c0,0.2,0,0.5,0,0.7c0,5.1-4.1,9.2-9.2,9.2H194
			c-5.1,0-9.2-4.1-9.2-9.2v-9.2h36.7l-23.2-8.4c-8-3.2-13.4-6-13.4-13.4v-3.5l0,0c0-0.3,0-0.6,0-0.9c0-5.1,4.1-9.2,9.2-9.2h41.7
			c5.1,0,9.2,4.1,9.2,9.2v9.2H207.8z"/>
		<path class="st1" d="M285.9,665.6v34.8h-19.1v-34.8h-17.4v-19.1h17.4h19.1h17.4v19.1H285.9z"/>
		<path class="st1" d="M307.8,646.4h20.6v53.9h-20.6V646.4z"/>
		<path class="st1" d="M357.8,700.3L357.8,700.3l-24.9,0v-4.8v-44.2v-4.8h24.9v0c14.5,0.4,26.1,12.3,26.1,26.9
			C384,688,372.3,699.9,357.8,700.3z M358,662.5L358,662.5l-8.7,0v1.8V681v1.8h8.7v0c5.5-0.2,9.9-4.6,9.9-10.2
			C367.8,667.1,363.4,662.6,358,662.5z"/>
		<path class="st1" d="M388.5,646.4h20.6v53.9h-20.6V646.4z"/>
		<path class="st1" d="M480.5,700.3h-17.3h-2.9h0v0L434,672.9v27.5h-20.4v-53.9H434l26.2,27.3v-27.3h20.2V700.3z"/>
		<path class="st1" d="M508.4,666.1h33.2v14.5h-33.2v5.2h33.2v14.5h-33.2H485v-53.9h1.4v0h55.2V661h-33.2V666.1z"/>
	</g>
	<g>
		<path class="st1" d="M287.7,718.6v105H241v-34.8h-28.5v34.8h-46.7v-105h46.7v34.8H241v-34.8H287.7z"/>
		<path class="st1" d="M293.6,823.6v-105h40.2v105H293.6z"/>
		<path class="st1" d="M460.4,754.5h-72.5l46.4,16.8c15.5,6.3,26.2,11.7,26.2,26.2v6.9l-0.1,0c0,0.4,0.1,0.9,0.1,1.4
			c0,9.9-8,17.9-17.9,17.9h-81.3c-9.9,0-17.9-8-17.9-17.9v-17.9h71.4l-45.3-16.4c-15.5-6.3-26.2-11.7-26.2-26.1v-6.9l0.1,0
			c-0.1-0.6-0.1-1.2-0.1-1.8c0-9.9,8-17.9,17.9-17.9h81.3c9.9,0,17.9,8,17.9,17.9V754.5z"/>
	</g>
	<g>
		<path class="st1" d="M774.8,554.2L774.8,554.2l-28.3,0.1v-65.9h23.6v44h46.6v21.7H774.8z"/>
		<path class="st1" d="M889.6,515.4c0,6.9-5.9,12.7-13.6,13.5l0,0c0,0,0,0-0.1,0c-0.2,0-0.4,0-0.5,0c-1.4,0.1-4.5,0.6-4.5,1.9
			c0,0,0,0,0,0.1v23.3h-29.9v-23.4c0-1.3-3.1-1.8-4.5-1.9c-0.2,0-0.4,0-0.6-0.1c-0.1,0-0.1,0-0.1,0l0,0c-7.7-0.8-13.6-6.6-13.6-13.5
			v-27h18.8h3.4v22.2h23v-22.2h3.4h18.8V515.4z"/>
		<path class="st1" d="M923.1,510.9l29.1,10.6c9.7,4,16.4,7.3,16.4,16.4v4.3l0,0c0,0.3,0,0.6,0,0.9c0,6.2-5,11.3-11.3,11.3h-51
			c-6.2,0-11.3-5-11.3-11.3v-11.3h44.8l-28.4-10.3c-9.7-4-16.4-7.3-16.4-16.4v-4.3l0.1,0c0-0.4-0.1-0.7-0.1-1.1
			c0-6.2,5-11.3,11.3-11.3h51c6.2,0,11.3,5,11.3,11.3v11.3H923.1z"/>
		<path class="st1" d="M974.1,488.4h25.2v65.9h-25.2V488.4z"/>
		<path class="st1" d="M1086.5,554.2h-21.1h-3.6h0v0l-32.1-33.6v33.6h-24.9v-65.9h24.9l32.1,33.3v-33.3h24.7V554.2z"/>
		<path class="st1" d="M1120.7,512.4h40.6v17.7h-40.6v6.3h40.6v17.7h-40.6H1092v-65.9h1.8v0h67.5v17.7h-40.6V512.4z"/>
	</g>
	<g>
		<path class="st1" d="M892.5,639v27.7v7v0.1h-66.8h-45.2v-105h37.7V639H892.5z"/>
		<path class="st1" d="M1005.9,568.8v43.1c0,11.1-9.4,20.2-21.6,21.5l0,0c0,0-0.1,0-0.2,0c-0.3,0-0.6,0.1-0.9,0.1
			c-2.2,0.2-7.2,1-7.2,3c0,0,0,0.1,0,0.1v37.1h-47.6v-37.2c0-2.1-5-2.8-7.2-3c-0.3,0-0.6,0-0.9-0.1c-0.1,0-0.1,0-0.1,0l0,0
			c-12.2-1.3-21.7-10.5-21.7-21.5v-43.1h29.9h5.5v35.3h36.7v-35.3h5.5H1005.9z"/>
		<path class="st1" d="M1129.1,604.7h-72.5l46.4,16.8c15.5,6.3,26.2,11.7,26.2,26.2v6.9l-0.1,0c0,0.4,0.1,0.9,0.1,1.4
			c0,9.9-8,17.9-17.9,17.9h-81.3c-9.9,0-17.9-8-17.9-17.9v-17.9h71.4l-45.3-16.4c-15.5-6.3-26.2-11.7-26.2-26.1v-6.9l0.1,0
			c-0.1-0.6-0.1-1.2-0.1-1.8c0-9.9,8-17.9,17.9-17.9h81.3c9.9,0,17.9,8,17.9,17.9V604.7z"/>
	</g>
	<g>
		<path class="st1" d="M1380.3,392.8l-4.2,8.3l-22,0l26.9-53.9h1.2v0l8.2,0l12.6,0l0,0h1.2l26.9,53.9l-22,0l-4.2-8.3H1380.3z
			 M1392.6,368.1l-4.6,9.3h9.2L1392.6,368.1z"/>
		<path class="st1" d="M1483,401.1l-9.3-18.1h-20.1v18.1h-18.2v-53.9h1.3h16.8h26.9c8.4,0,15.1,6.8,15.1,15.1v5.5
			c0,4.6-2,8.7-5.2,11.4l11.2,21.8H1483z M1472.2,361.2h-18.6v6.8h18.6c3.5,0,6.4-1.4,6.4-3.2v-0.5
			C1478.6,362.6,1475.7,361.2,1472.2,361.2z"/>
		<path class="st1" d="M1553.3,385.1v-5.4h-22v-11.2h33.5v32.6h-42.3c-9.1,0-16.4-7.2-16.4-16.2v-21.5c0-8.9,7.4-16.2,16.4-16.2
			h42.7v14.8h-40.8v23H1553.3z"/>
		<path class="st1" d="M1569.8,347.2h20.6v53.9h-20.6V347.2z"/>
		<path class="st1" d="M1661.7,401.1h-17.3h-2.9h0v0l-26.2-27.5v27.5h-20.4v-53.9h20.4l26.2,27.3v-27.3h20.2V401.1z"/>
		<path class="st1" d="M1666.2,347.2h20.6v53.9h-20.6V347.2z"/>
		<path class="st1" d="M1758.2,401.1h-17.3h-2.9h0v0l-26.2-27.5v27.5h-20.4v-53.9h20.4l26.2,27.3v-27.3h20.2V401.1z"/>
		<path class="st1" d="M1786.2,366.9h33.2v14.5h-33.2v5.2h33.2v14.5h-33.2v0h-23.5v-53.9h1.4v0h55.2v14.5h-33.2V366.9z"/>
	</g>
	<g>
		<path class="st1" d="M1483.1,502.1h-47.9l-8.1,16.2l-42.8,0l52.3-105h2.2v0l16,0l24.6,0v0h2.2l52.3,105l-42.8,0L1483.1,502.1z
			 M1468.2,472.1l-9-18l-9,18H1468.2z"/>
		<path class="st1" d="M1670.6,518.4h-36.3l-18-35.3h-39.1v35.3h-35.4v-105h2.5h32.8h52.4c16.3,0,29.5,13.2,29.5,29.5v10.8
			c0,8.9-3.9,16.9-10.2,22.3L1670.6,518.4z M1625.9,446.7c0-3.4-5.6-6.2-12.5-6.2h-36.2v13.3h36.2c6.9,0,12.5-2.8,12.5-6.2V446.7z"
			/>
		<path class="st1" d="M1712.4,487.2h56.1v-10.5h-42.9v-21.8h65.3v63.5h-82.4c-17.7,0-32-14.1-32-31.5V445c0-17.4,14.3-31.5,32-31.5
			h83.2v28.8h-79.4V487.2z"/>
	</g>
</g>
</svg>
