<?xml version="1.0" encoding="utf-8"?>
<!-- Generator: Adobe Illustrator 26.0.1, SVG Export Plug-In . SVG Version: 6.00 Build 0)  -->
<svg version="1.1" xmlns="http://www.w3.org/2000/svg" xmlns:xlink="http://www.w3.org/1999/xlink" x="0px" y="0px"
	 viewBox="0 0 1920 1028" style="enable-background:new 0 0 1920 1028;" xml:space="preserve">
<style type="text/css">
	.st0{fill:url(#SVGID_1_);}
	.st1{fill:#FFFFFF;}
	.st2{fill:#FFFFFF;stroke:#FFFFFF;stroke-width:20;stroke-miterlimit:10;}
	.st3{fill:#FDFDFD;}
	.st4{fill:#171717;}
	.st5{fill:#070707;}
	.st6{fill:#242424;}
	.st7{fill:#141414;}
	.st8{fill:#1E1E1E;}
	.st9{fill:#0F0F0F;}
	.st10{fill:#0A0A0A;}
	.st11{fill:#212121;}
	.st12{fill:#1B1B1B;}
	.st13{fill:#0B0B0B;}
	.st14{fill:#121212;}
	.st15{fill:#2C2C2C;}
	.st16{fill:#020202;}
	.st17{fill:#FAFAFA;}
	.st18{fill:#F8F8F8;}
	.st19{fill:none;stroke:url(#SVGID_00000060746612240601778600000012741609404059244175_);stroke-width:20;stroke-miterlimit:10;}
	.st20{stroke:url(#SVGID_00000165953522300100100580000006239131784238531970_);stroke-width:20;stroke-miterlimit:10;}
	.st21{stroke:url(#SVGID_00000081610440875222174570000014625771684218473610_);stroke-width:20;stroke-miterlimit:10;}
	.st22{fill:url(#SVGID_00000121983361035701920220000013214669658801794721_);}
	.st23{fill:url(#SVGID_00000123440041129074657620000013884764746516959407_);}
	.st24{fill:none;stroke:url(#SVGID_00000009587964894089922250000006912285474667165605_);stroke-width:2;stroke-miterlimit:10;}
	.st25{opacity:0.75;fill:#FFFFFF;}
	.st26{fill:none;stroke:url(#SVGID_00000011751767686040034090000007497284130460217754_);stroke-width:2;stroke-miterlimit:10;}
	.st27{opacity:0.75;}
	.st28{fill:none;stroke:url(#SVGID_00000034806488890484982120000001198117748601249178_);stroke-width:30;stroke-miterlimit:10;}
</style>
<g id="background">
	<g>
		<rect x="-1342.5" y="-1460.5" width="4692" height="4028"/>
		<path d="M3349-1460v4027h-4691v-4027H3349 M3350-1461h-4693v4029h4693V-1461L3350-1461z"/>
	</g>
</g>
<g id="Слой_1__x28_копия_x29_">
	<g>
		<path d="M1919,1v1047H1V1H1919 M1920,0H0v1049h1920V0L1920,0z"/>
	</g>
	<g id="титул">
		
			<linearGradient id="SVGID_1_" gradientUnits="userSpaceOnUse" x1="29.5" y1="1005.3162" x2="850.5" y2="1005.3162" gradientTransform="matrix(1 0 0 -1 0 1082)">
			<stop  offset="0" style="stop-color:#FF0000"/>
			<stop  offset="1" style="stop-color:#33FF99"/>
		</linearGradient>
		<path class="st0" d="M818.3,21.4c9.1,0,16.3,6.7,16.3,14.9v80.9c0,8.3-7.4,14.9-16.3,14.9H61.9c-9.1,0-16.3-6.7-16.3-14.9V36.2
			c0-8.3,7.4-14.9,16.3-14.9H818.3 M818.3,6.8H61.9C44,6.8,29.5,20,29.5,36.2v80.9c0,16.3,14.5,29.4,32.4,29.4h756.3
			c17.9,0,32.4-13.2,32.4-29.4V36.2C850.6,20,836.1,6.8,818.3,6.8L818.3,6.8z"/>
		<g id="arg">
			<path class="st1" d="M142.4,108.1h-39.9l-6.8,13.2l-35.7,0l43.6-85h1.9v0l13.3,0l20.5,0l0,0h1.9l43.6,85l-35.7,0L142.4,108.1z
				 M130,83.8l-7.5-14.6L115,83.8H130z"/>
			<path class="st1" d="M298.7,121.3h-30.2l-15-28.5h-32.6v28.5h-29.5v-85h2.1h27.4h43.7c13.6,0,24.6,10.7,24.6,23.9v8.7
				c0,7.2-3.3,13.7-8.5,18L298.7,121.3z M261.4,63.2c0-2.8-4.7-5-10.4-5h-30.1V69H251c5.8,0,10.4-2.2,10.4-5V63.2z"/>
			<path class="st1" d="M333.5,96h46.8v-8.5h-35.8V69.9h54.5v51.4h-68.6c-14.7,0-26.7-11.4-26.7-25.5V61.9
				c0-14.1,11.9-25.5,26.7-25.5h69.4v23.3h-66.2V96z"/>
			<path class="st1" d="M404.6,121.3v-85h33.5v85H404.6z"/>
			<path class="st1" d="M554.5,36.3v85h-28.1h-4.8h0v0L479,78v43.3h-33.1v-85H479l42.6,43v-43H554.5z"/>
			<path class="st1" d="M560.9,121.3v-85h33.5v85H560.9z"/>
			<path class="st1" d="M710.8,36.3v85h-28.1h-4.8h0v0L635.3,78v43.3h-33.1v-85h33.1l42.6,43v-43H710.8z"/>
			<path class="st1" d="M759.6,59.2v8.1h53.9v22.9h-53.9v8.1h53.9v22.9h-53.9v0h-38.1v-85h2.3v0h89.7v22.9H759.6z"/>
		</g>
	</g>
	<g id="пикча">
		<path class="st2" d="M624.5,769.3H71.5c-13,0-23.5-10.5-23.5-23.5V210c0-13,10.5-23.5,23.5-23.5h552.9c13,0,23.5,10.5,23.5,23.5
			v535.7C648,758.7,637.5,769.3,624.5,769.3z"/>
		<g>
			<g>
				<path class="st3" d="M180.1,479.4c0-89.5,0-179-0.1-268.5c0-3.3,0.3-4.5,4.2-4.5c106.4,0.1,212.7,0.1,319.1,0c3.4,0,4,0.9,4,4.1
					c-0.1,179.2-0.1,358.3,0,537.5c0,3.9-1.1,4.2-4.5,4.2c-106.2-0.1-212.4-0.1-318.6,0c-3.7,0-4.3-0.8-4.3-4.4
					C180.1,658.4,180.1,568.9,180.1,479.4z M382.8,458c3.3,1.7,3,3.5,0.4,5.6c-1.1,0.8-1.9,2-2.8,2.9c-2.5,2-5.6,3.5-5.7,7.6
					c4.5-0.2,8.9,0.6,14.2-0.8c-4.1-2.4-7.6-0.4-10.9-2.2c1.4-1.3,2.6-2.3,3.8-3.4c7-3.6,7.8-6.9,3.1-11.5c-7.6-1.1-9.2-0.3-9.1,5.4
					C378,460,379.2,456.3,382.8,458z M280.6,715.1c-4.1-5.5-9.3-9.6-12.7-15.2c-1.2-1.9-2.1-5.1-5.3-3.9c-2.6,1-1.1,3.6-1.2,5.5
					c-0.2,6-0.2,12,0,17.9c0,1.4-1.4,3.9,1.6,4c3.1,0.1,1.7-2.5,1.9-3.9c0.4-5.1-0.6-10.3,0.9-16.7c4,7.4,9.5,12,13.1,18.2
					c0.9,1.5,1.9,3.1,4.1,2.5c2.3-0.6,1.4-2.5,1.5-3.9c0.1-6.8,0-13.7,0-20.5c0-1.2,0.9-3-1.5-3.2c-2.5-0.2-2.3,1.5-2.3,3.1
					C280.6,704.4,280.6,709.8,280.6,715.1z M382.7,715.6c-0.3,0.1-0.6,0.2-0.9,0.3c-4.1-6.1-8.3-12-12.2-18.2
					c-1.1-1.7-2.3-2.1-3.9-1.8c-1.9,0.3-1.1,2-1.1,3c-0.1,7.1-0.1,14.3,0,21.4c0,1.2-0.6,3,1.7,3c2.4,0,1.6-1.9,1.6-3.1
					c0.1-5.7,0-11.4,0-18.6c4.7,7,8.7,12.7,12.4,18.5c1.3,2,2.6,3.9,5.3,3.1c2.8-0.8,1.5-3.2,1.5-4.9c0.2-6.3,0.1-12.6,0-18.9
					c0-1.6,0.8-3.6-2.2-3.7c-3-0.1-2.3,1.8-2.3,3.5C382.7,704.8,382.7,710.2,382.7,715.6z M369,375c0-1.8,0-3.5,0-5.3
					c0-1.9,0-3.9-0.1-5.8c-0.1-1.2,0.6-2.9-1.8-3c-2.1,0-2.2,1.2-2.2,2.7c0,1.1-0.2,2.1,0,3.2c0.8,4.6-0.9,5.9-5.6,5.7
					c-7.9-0.4-7.9-0.1-8.4-8.4c-0.1-1.5,0.4-3.2-2.2-3.1c-2.3,0.1-2.9,1-2.9,3.2c0.1,6.9,0,13.7,0,20.6c0,1.9-0.5,3.8,2.6,4
					c3.5,0.2,2.4-2.3,2.4-3.9c0.2-9.1,0.2-8.8,8.9-9.1c4.1-0.1,5.8,0.9,5.1,5.1c-0.3,1.7,0,3.5-0.1,5.3c-0.1,1.7,0.4,2.7,2.3,2.6
					c1.8-0.1,1.7-1.3,1.7-2.6C369,382.4,369,378.7,369,375z M332.7,594.1c-0.4,0.1-0.7,0.2-1.1,0.3c-3.8-5.6-7.6-11.2-11.3-16.8
					c-1.2-1.8-2.1-3.9-4.8-3.1c-2.5,0.8-1.2,3-1.2,4.5c-0.2,6.3-0.1,12.6,0,19c0,1.4-1.3,3.9,1.7,4c3.1,0,1.7-2.5,1.8-3.9
					c0.4-5.2-0.5-10.5,0.7-16.6c4.5,6.7,8.6,12.6,12.5,18.5c1,1.5,2,2.3,3.8,2c2.3-0.4,1.4-2.1,1.4-3.3c0.1-7,0.1-14,0.1-21.1
					c0-1.2,0.7-3.1-1.6-3.2c-2.8-0.1-1.8,2-1.9,3.4C332.6,583.3,332.7,588.7,332.7,594.1z M464,253c-0.1-8.9-5.3-14.1-14.1-14.1
					c-8.4,0-13.6,5.7-13.4,14.8c0.2,8.2,5.7,13.7,13.6,13.5C458.9,267.1,464.1,261.8,464,253z M345,588c0,3.3,0,6.7,0,10
					c0,2-0.6,4.4,2.9,4.1c3.5-0.2,1.9-2.8,2-4.3c0.3-8.6,0.3-8.3,8.8-8.7c4.4-0.2,6.1,0.9,5.3,5.3c-0.2,1.5,0,3.2,0,4.7
					c0,1.4-0.2,2.9,2,2.9c2.3,0,1.9-1.6,1.9-2.9c0-6,0.2-12-0.1-17.9c-0.1-2.3,1.8-6.4-1.6-6.6c-4.2-0.1-2.2,4.4-2.2,6.6
					c0,3.4-0.9,4.6-4.3,4.6c-8.9,0.1-9,0.2-9.7-8.9c-0.2-2.1-0.9-2.7-2.7-2.7c-2.4-0.1-2.3,1.4-2.3,3.1C345,580.9,345,584.4,345,588
					z M368.5,446.1C368.5,446.1,368.5,446.1,368.5,446.1c0-3.8,0-7.7,0-11.5c0-1.4-0.3-2.4-1.9-2.5c-1.9-0.2-1.9,1.1-1.9,2.4
					c0,2.1,0,4.2,0,6.3c0,1.1,0.4,2.7-1.5,2.7c-4,0-8.3,0.7-11.9-0.6c-2-0.7-0.3-5.1-0.7-7.8c0-0.2-0.1-0.4,0-0.5
					c0.2-1.8-0.8-2.4-2.5-2.5c-1.9-0.1-2.4,0.8-2.3,2.5c0,7.6,0.1,15.1,0,22.7c0,1.8,0.6,2.4,2.4,2.5c2,0.1,2.4-0.8,2.4-2.4
					c0-1.9,0.3-3.9,0-5.8c-0.7-4.1,1-5,4.8-4.9c9.1,0.2,9.1,0,9.4,9.3c0,0.4,0,0.7,0,1.1c0,1.2-0.2,2.8,1.5,2.8
					c1.7,0.1,2.4-1,2.3-2.8C368.4,453.4,368.5,449.8,368.5,446.1z M494.6,354.6c0-3.5,0.1-7,0-10.6c0-1.7,0.9-4.1-2.4-3.9
					c-3.2,0.2-2.2,2.5-2.3,4.2c-0.1,1.7-0.1,3.5-0.1,5.2c0,1.1-0.2,2-1.7,2c-3.9-0.1-8.1,1-11.4-0.4c-2.5-1-0.6-5.4-1-8.2
					c0-0.2,0-0.4,0-0.5c-0.1-1,0.1-2.2-1.5-2.2c-1.3,0-2.3,0.4-2.2,2.1c0.1,7.8,0.1,15.7,0,23.5c0,1.5,0.7,1.9,1.7,2
					c1.8,0.3,2-0.9,2-2.3c0-2.6,0-5.3,0-7.9c0-1.1-0.5-2.8,1.4-2.8c4,0,8.3-0.7,11.9,0.6c2.1,0.8,0.5,5.1,0.8,7.7
					c0.1,0.9,0,1.8,0,2.6c0.1,1.9,1.5,1.9,3,2.1c2,0.2,1.9-1.1,1.9-2.3C494.6,362,494.6,358.3,494.6,354.6z M246.5,296.2
					c5.1,7.4,9.3,13.4,13.3,19.6c0.9,1.4,1.9,2,3.4,1.8c2.3-0.3,1.3-2.2,1.4-3.3c0.1-6.9,0.1-13.7,0-20.6c0-1.3,1.1-3.4-1.6-3.6
					c-2.7-0.1-1.7,2.1-1.7,3.4c-0.1,5.4,0,10.9,0,16.3c-5.1-5.8-9.2-11.7-13.1-17.8c-1-1.6-2-2.3-3.8-2c-2.2,0.4-1.3,2.2-1.3,3.4
					c-0.1,7-0.1,14.1,0,21.1c0,1.2-0.6,3,1.7,3c2.3,0,1.7-1.8,1.7-3C246.6,309,246.5,303.4,246.5,296.2z M190.8,253.1
					C190.8,253.1,190.8,253.1,190.8,253.1c0,3.7,0,7.4,0,11c0,1.3,0.1,2.5,1.8,2.6c2,0.1,2.2-1.1,2.2-2.7c0-2.6,0-5.3,0-7.9
					c0-1.3,0-2.5,1.8-2.5c4.2,0.1,8.8-0.8,12.4,0.7c2.1,0.9,0.5,5.8,0.7,8.9c0,0.4,0,0.7,0,1.1c0,1.4,0.3,2.4,2,2.4
					c1.6,0,2-0.9,2-2.3c0-7.7,0-15.5,0-23.2c0-1.6-0.7-2.3-2.2-2.2c-1.6,0.1-2.1,0.9-1.9,2.4c0.1,1-0.1,2.1,0,3.2
					c0.7,4.5-0.7,6.5-5.6,5.6c-2.7-0.5-6.2,0.9-8.2-0.3c-2.7-1.6-0.8-5.4-1.1-8.2c-0.2-1.6-0.4-2.7-2.3-2.6
					c-1.7,0.1-1.8,1.3-1.8,2.6C190.8,245.4,190.8,249.2,190.8,253.1z M337.3,233c0-2.5,0.3-5-0.1-7.3c-0.4-2.3,1.8-6.5-1.6-6.6
					c-4.3-0.1-1.5,4.3-2.3,6.6c-0.5,1.4,1.2,4-1.6,4.2c-3.8,0.3-8,1-11.4-0.3c-2.5-0.9-0.5-5.1-1-7.7c-0.1-0.5,0-1.1,0-1.6
					c-0.1-1-0.6-1.6-1.7-1.5c-1.1,0-2.2,0.2-2.2,1.6c0,8.1,0,16.2,0,24.2c0,1.3,0.9,1.8,2,1.9c1.8,0.1,1.9-1.1,1.9-2.4
					c0-2.6,0.1-5.3,0-7.9c0-1.5-0.2-2.9,2-2.8c3.8,0.2,8.2-1.3,11.3,0.7c2.2,1.4,0.5,5.6,0.7,8.5c0,0.3,0,0.7,0,1.1
					c0.1,1.4-0.1,2.9,2.1,2.8c2.2-0.1,1.8-1.7,1.9-3C337.4,240,337.3,236.5,337.3,233z M190.8,353.6
					C190.8,353.6,190.8,353.6,190.8,353.6c0,3.7,0,7.4,0,11c0,1.4-0.4,2.9,1.9,2.9c2,0,2.2-1.1,2.2-2.7c-0.1-2.5,0.1-4.9-0.1-7.4
					c-0.2-2.4,0.8-3.1,3-2.9c3.8,0.2,8.3-0.9,11.2,0.8c2.3,1.3,0.4,6.2,0.8,9.4c0,0.2,0,0.4,0,0.5c-0.2,1.5,0.4,2.2,2,2.2
					c1.6,0,2-0.8,2-2.3c-0.1-7.5,0-15.1,0-22.6c0-1.5-0.2-2.9-2.2-2.8c-2.1,0.1-1.9,1.7-1.8,3.1c0,1.1-0.1,2.1,0.1,3.2
					c0.7,4.4-1.1,5.5-5.5,5.4c-8.9-0.4-8.9-0.1-9.6-8.5c-0.1-1.4,0.2-3-1.9-3.1c-2.6-0.1-2.1,1.8-2.1,3.3
					C190.8,346.6,190.8,350.1,190.8,353.6z M396.3,709.4c0,1.9,0,3.9,0,5.8c0,1.9,0,3.9,0,5.8c0,1.2-0.2,2.5,1.7,2.5
					c1.8,0,1.9-1.2,1.9-2.5c0-2.3,0.2-4.6,0-6.9c-0.3-2.7,0.6-3.5,3.4-3.6c10.2-0.3,10.2-0.4,10.9,9.9c0.1,1.2-0.7,3,1.7,3.1
					c2.4,0.1,1.9-1.7,1.9-2.9c0.1-7.2,0-14.4-0.1-21.5c0-1.2,0.8-3-1.6-3.1c-2.7-0.1-1.8,1.9-1.9,3.3c-0.1,1.2-0.2,2.5,0,3.7
					c0.6,3.7-1,4.6-4.4,4.2c-3-0.4-6.7,1.2-9.1-0.7c-2.2-1.8-0.4-5.3-0.8-8c-0.2-1.2,0-2.5-1.8-2.5c-2.3,0-1.8,1.5-1.8,2.9
					C396.3,702.3,396.3,705.9,396.3,709.4z M436.5,354c0,8.3,5.3,14.2,12.9,14.4c8.9,0.2,14.6-5.4,14.6-14.3c0-8.7-5.3-14.1-14-14.3
					C442,339.6,436.5,345.3,436.5,354z M214.7,709.5c0,3-0.2,6,0.1,9c0.2,1.7-1.6,5,1.9,4.8c3.2-0.2,1.1-3.3,1.5-5.1
					c0.3-1.5,0.2-3.1,0-4.7c-0.2-2.2,0.7-2.9,2.9-3c10.8-0.6,10.8-0.7,11.5,9.8c0,0.4,0,0.7,0,1.1c-0.1,1.6,0.7,2.2,2.2,2.1
					c1.4,0,2.3-0.1,2.3-1.9c0-7.9,0-15.7,0.1-23.6c0-1.6-0.7-2.1-2.3-2.1c-1.8-0.1-2.6,0.6-2.4,2.4c0.1,1.4-0.1,2.8,0,4.2
					c0.4,3.5-0.6,4.8-4.5,4.7c-8.8-0.3-8.9,0-9.9-8.8c-0.1-1.4-0.1-2.4-1.9-2.5c-1.9,0-1.7,1.3-1.7,2.5
					C214.7,702.2,214.8,705.8,214.7,709.5z M345.6,517c0,3.8,0,7.7,0,11.5c0,1.6,0.4,2.6,2.4,2.6c2,0,2.2-1.1,2.2-2.7
					c0-2.3,0.2-4.6,0-6.8c-0.2-2.7,0.7-3.6,3.4-3.8c10.5-0.6,10.5-0.7,11,9.7c0,0.2,0,0.4,0,0.5c0.1,1.3-0.3,3,1.9,2.9
					c2.4-0.1,1.6-1.9,1.6-3.1c0.1-6.3,0.2-12.7-0.1-19c-0.1-1.9,1.8-5.5-1.8-5.4c-3.1,0.1-1.7,3.6-1.5,5.5c0.5,4.7-1.3,5.9-5.8,5.7
					c-8-0.4-8.1-0.1-8.6-8.4c-0.1-1.8-0.2-2.9-2.5-3c-2.6,0-2.1,1.7-2.1,3.2C345.6,510,345.6,513.5,345.6,517z M318.3,375.1
					c-0.2-4.5,0.8-8.8,5.3-10.5c4.2-1.6,8.3-1.2,10.7,3.7c0.7,1.5,2.1,1.2,3.2,0.5c1.8-1.1,0.1-2.2-0.3-3c-1.6-3-4.1-4.7-7.5-5
					c-5.4-0.5-10.3,0.7-13.1,5.7c-3.3,5.8-3,11.9,0.5,17.5c4.6,7.2,16.1,6.9,20.3-0.4c0.7-1.2,2.3-2.6,0.2-4
					c-2.1-1.4-2.6,0.2-3.3,1.8c-0.8,1.8-2.2,3.1-4,3.9C323.9,387.9,318.4,383.2,318.3,375.1z M318.2,303.7c0-2.5,0.2-4.9,1.6-7.1
					c2.8-4.6,9.8-5.4,13.1-1.6c1.3,1.5,2.2,4.6,4.5,2.4c1.7-1.7-0.9-3.6-2.1-5c-1-1.1-2.5-1.9-4-2.4c-6.3-2.1-13.4,1-15.8,6.9
					c-3,7-0.4,16.7,5.3,19.7c5.4,2.8,13.1,1.3,16.1-3.4c0.9-1.4,3.1-3.3,0.5-4.8c-2.4-1.3-2.6,1.2-3.5,2.6c-1.6,2.5-3.9,3.8-7.1,3.7
					C321.2,314.5,318.3,310.8,318.2,303.7z M313,658.8c-0.2,3.6,0.7,7,2.7,10c4.6,6.8,16,6.5,20-0.6c0.6-1.1,2.6-2.5,0.5-4
					c-2.4-1.7-2.7,0.5-3.6,1.9c-3.2,5.1-9.6,5.8-13.4,1.5c-3.4-3.9-3.2-13.7,0.4-17.1c3.7-3.6,8.1-2.9,13.2,2.4c1,1,1.8,0.9,2.7,0.5
					c1.4-0.6,0.9-1.6,0.4-2.6c-1.6-3.3-4.2-5.1-7.7-5.6C319.4,644,313.1,649.5,313,658.8z M386.9,303.7c-0.3,2.9,0.6,5.9,2.1,8.7
					c4.3,7.5,16.4,7.7,20.6,0.2c0.7-1.2,2.5-2.7,0.5-4.1c-2.1-1.5-2.8,0.4-3.7,2c-2.3,4-6.9,5.4-10.9,3.4c-4.5-2.2-5-6.6-4.9-10.8
					c0-4.1,1-8.2,5.5-9.8c3.8-1.4,7.3-1,9.7,2.6c0.9,1.3,1.5,3.2,3.5,1.8c2.3-1.7,0.1-3.1-0.8-4.2c-3.6-4.5-8.4-4.7-13.4-3.3
					C390,291.7,386.9,296.8,386.9,303.7z M314.1,446.4c-0.3,2.7,0.7,5.7,2.3,8.4c4.3,7.5,16.4,7.4,20.6-0.1c0.6-1,2.7-2.5,0.3-3.9
					c-1.8-1-2.7,0.1-3.5,1.8c-1.4,3.2-4.1,4.7-7.6,4.5c-5.3-0.3-8.5-4.8-8.3-11.4c0.2-6.8,3.4-10.6,8.9-10.7c2.6-0.1,4.9,0.6,6.3,3
					c0.9,1.6,1.9,3.5,3.9,2c2.1-1.6-0.3-3.2-1.1-4.4c-1.6-2.4-4.3-3.5-7.2-3.8C320.1,430.9,314.1,436.7,314.1,446.4z M313.7,517.2
					c0.1,1.1,0.1,2.5,0.4,3.9c1.2,5.1,3.8,9.1,9.5,10c5.2,0.8,9.8-0.1,12.8-5c0.8-1.3,2.2-2.9,0.6-4.1c-2-1.5-2.9,0.2-3.7,2
					c-1.4,3.1-4,4.2-7.3,4.1c-4.7-0.2-7.5-2.9-8.4-8.5c-1-6,1.3-11.2,5.6-12.9c3.7-1.5,7-0.8,9.4,2.3c1.2,1.5,2.3,3.4,4,2
					c2-1.7-0.3-3.4-1.4-4.6c-3.8-4.1-8.6-4.3-13.5-2.5C316.5,505.6,313.7,510.6,313.7,517.2z M378.8,400.2c2.1-2.3,4.2-3.6,6.3-5.2
					c2.7-2.1,4.5-5.1,1.7-8.6c-2.1-2.5-7.9-2.7-10-0.3c-0.8,0.9-2.3,2.4-0.8,3.6c1.8,1.4,1.7-1,2.3-1.7c2.2-2.4,4.8-1.8,6.5-0.1
					c2.2,2.2,0.2,3.7-1.9,5.2c-2.5,1.9-4.6,4.3-6.8,6.5c-0.9,0.9-1.6,3-0.7,3.1c4,0.5,8,0.3,12,0.2c0.2,0,0.7-1,0.6-1.2
					c-2.2-2.1-4.9-0.5-7.3-1.1C380.2,400.6,379.9,400.5,378.8,400.2z M378,542.4c1.9-2.1,3.6-3.8,5.7-5c3.3-1.9,4.6-4.8,2.6-8.4
					c-1.5-2.7-7.5-3.1-10-0.9c-1,0.9-2.6,2.3-1.5,3.5c1.8,1.9,1.9-0.7,2.7-1.5c2.3-2.4,4.6-1.2,6.4,0.4c2.3,2.1-0.4,3-1.5,4.3
					c-2.7,3.4-7.5,5-8.5,10.5c4.7-0.4,9,0.7,13.6-0.7C384.7,541.5,381.3,543.8,378,542.4z M247.7,735.2c0.5-2.1,2.1-2.7,3.2-3.8
					c1.1-1.1,2.4-2.1,3.3-3.3c2-2.8,2.1-5.8-1-7.8c-3-1.9-6.1-1.7-8.4,1.3c-0.6,0.7-1.5,1.8-0.6,2.7c1,1,1.8,0.2,2.4-0.9
					c1.4-2.7,3.7-2.9,5.6-1.1c1.9,1.7,0.8,3.9-0.8,5.5c-2.3,2.2-4.6,4.4-6.7,6.6c-0.8,0.8-1.8,2-0.6,3.2c1.1,1.1,9.9-0.3,11.7-2
					C252.9,735.5,250.5,735.4,247.7,735.2z M326.4,280.4c0.4-0.3,1.1-0.7,1.1-1c0.1-9.1,0.2-18.3,0.2-27.4c0-0.9-0.4-1.9-1.5-1.5
					c-1.3,0.4-1.1,1.7-1.1,2.7c-0.1,8.4,0,16.7,0,25.1C325.1,279.3,325.7,279.9,326.4,280.4z M326.6,351.4c0.3-0.3,0.9-0.7,0.9-1
					c0.1-8.9,0.2-17.9,0.2-26.8c0-0.9-0.1-2-1.2-1.9c-1.6,0.1-1.5,1.5-1.5,2.8c0,8,0,16,0,24C325.1,349.5,325,350.9,326.6,351.4z
					 M326.7,549.7c0-4.2,0-8.4,0-12.6c0-1.1,0-2.3-1.5-2.2c-0.8,0.1-1.3,0.9-1.3,2c0,8.7,0,17.4,0,26.1c0,1,0.5,1.9,1.4,1.9
					c0.9,0,1.4-1,1.4-1.9C326.7,558.4,326.7,554.1,326.7,549.7z M323.6,620.9c0,4,0,8,0,12.1c0,1.1-0.3,2.8,1.4,2.8
					c1.3,0,1.3-1.5,1.3-2.4c0-8.3,0-16.6,0-24.9c0-1.2-0.3-2.3-1.5-2.4c-1.4-0.1-1.4,1.2-1.4,2.3
					C323.6,612.5,323.6,616.7,323.6,620.9z M324.7,407.1c0,4.2,0,8.4,0,12.7c0,1-0.3,2.4,1.1,2.6c1.8,0.2,1.7-1.6,1.7-2.6
					c0.1-8.2,0-16.4,0-24.6c0-1.1,0-2.5-1.3-2.5c-1.7,0-1.5,1.6-1.5,2.8C324.7,399.3,324.7,403.2,324.7,407.1z M344.6,299.9
					c3,2.5,30.3,2.7,34.6,0C367.3,299.9,356.1,299.9,344.6,299.9z M306.6,301.9c-0.7-1.4-0.9-1.9-1.1-1.9c-10.1-1-20.2-0.2-30.4-0.4
					c-0.7,0-1.4,0.2-1.3,1.2c0.1,1.3,1.1,1.1,1.9,1.1C285.9,301.9,296,301.9,306.6,301.9z M326.2,494.5c0-11.1,0-21,0-30.8
					C324,468.2,324.1,489.6,326.2,494.5z M340.2,679c-0.4,0.4-0.7,0.8-1.1,1.3c2.5,5.7,8.6,8.1,12.5,12.5c0.2,0.2,1.1,0.1,1.4-0.2
					c0.8-0.8,0.4-1.6-0.3-2.2C348.5,686.6,344.3,682.8,340.2,679z M291.9,685.9c0.5,0.5,1,0.9,1.5,1.4c4-3.9,8-7.7,11.9-11.6
					c0.5-0.5,0.4-1.5-0.3-1.7c-0.5-0.2-1.5,0-1.9,0.4C299.5,678.4,294.9,681.5,291.9,685.9z M234.9,280.8
					c-0.1-0.8-10.8-11.9-11.7-12c-0.5-0.1-1.1,0.1-1.4,0.4c-0.2,0.2-0.3,1.1-0.1,1.3c3.6,3.8,7.2,7.6,11,11.2
					C233.6,282.5,234.8,282.2,234.9,280.8z M350.3,670.6c-0.4,0.2-1,0.4-1.2,0.8c-0.1,0.4,0.1,1.1,0.4,1.4c3.4,3.5,6.9,7,10.3,10.4
					c0.6,0.6,1.4,1.1,2.2,0.1c0.6-0.7,0.1-1.3-0.3-1.8c-3.5-3.5-6.9-7-10.4-10.4C351.1,670.9,350.7,670.8,350.3,670.6z M414,275.9
					c1.4,0,11.2-8.6,11.4-9.9c0.1-0.4-0.1-1.1-0.4-1.3c-0.3-0.2-1.1-0.2-1.4,0c-3.3,3-7.3,5.3-10.1,8.9
					C412.7,274.7,412.9,275.5,414,275.9z M433.3,273.3c-0.4,0.1-0.8,0.2-1,0.4c-3.1,3.1-6.1,6.2-9.1,9.4c-0.2,0.3-0.2,1,0,1.4
					c0.5,0.7,1.3,0.7,1.8,0.1c3.1-3.1,6.2-6.2,9.1-9.4C434.7,274.5,434.5,273.5,433.3,273.3z M430.1,330
					c-0.2-1.1-9.3-10.3-10.3-10.4c-0.6,0-1.5,0.1-1.9,0.5c-0.6,0.5-0.4,1.4,0.2,1.8c3.9,2.3,6.6,6,10,9c0.3,0.3,1.1,0.4,1.4,0.2
					C429.9,330.9,430,330.3,430.1,330z M235,319.3c-0.2-0.4-0.4-1.2-0.7-1.2c-0.6,0-1.5,0.1-1.9,0.5c-2.1,1.9-4.1,3.8-6,5.9
					c-1.6,1.8-5.6,4.5-4.3,5.4c2.7,1.9,4.1-2.4,6.1-3.9C230.7,324.1,232.7,321.6,235,319.3z"/>
				<path class="st4" d="M280.6,715.1c0-5.4,0-10.7,0-16.1c0-1.6-0.3-3.3,2.3-3.1c2.4,0.2,1.5,1.9,1.5,3.2c0.1,6.8,0.1,13.7,0,20.5
					c0,1.4,0.8,3.3-1.5,3.9c-2.2,0.6-3.2-1-4.1-2.5c-3.6-6.1-9.1-10.8-13.1-18.2c-1.5,6.5-0.5,11.6-0.9,16.7c-0.1,1.4,1.2,4-1.9,3.9
					c-3.1-0.1-1.6-2.7-1.6-4c-0.2-6-0.2-12,0-17.9c0.1-1.8-1.4-4.5,1.2-5.5c3.2-1.2,4.1,1.9,5.3,3.9
					C271.3,705.5,276.5,709.6,280.6,715.1z"/>
				<path class="st5" d="M382.7,715.6c0-5.4,0-10.8,0-16.2c0-1.7-0.7-3.6,2.3-3.5c3,0.1,2.2,2.1,2.2,3.7c0.1,6.3,0.1,12.6,0,18.9
					c0,1.7,1.2,4.1-1.5,4.9c-2.7,0.8-4-1.1-5.3-3.1c-3.8-5.8-7.7-11.5-12.4-18.5c0,7.2,0,12.9,0,18.6c0,1.2,0.8,3-1.6,3.1
					c-2.3,0-1.7-1.8-1.7-3c-0.1-7.1-0.1-14.3,0-21.4c0-1-0.7-2.7,1.1-3c1.6-0.3,2.8,0.1,3.9,1.8c4,6.1,8.1,12.1,12.2,18.2
					C382.1,715.9,382.4,715.7,382.7,715.6z"/>
				<path class="st6" d="M369,375c0,3.7,0,7.4,0,11.1c0,1.3,0.1,2.5-1.7,2.6c-1.9,0.1-2.4-0.9-2.3-2.6c0.1-1.8-0.2-3.6,0.1-5.3
					c0.6-4.2-1-5.3-5.1-5.1c-8.7,0.3-8.6,0.1-8.9,9.1c0,1.6,1.1,4.1-2.4,3.9c-3.1-0.1-2.6-2.1-2.6-4c0-6.9,0.1-13.7,0-20.6
					c0-2.2,0.5-3.1,2.9-3.2c2.6-0.1,2.2,1.6,2.2,3.1c0.5,8.3,0.5,8,8.4,8.4c4.6,0.3,6.4-1,5.6-5.7c-0.2-1,0-2.1,0-3.2
					c-0.1-1.5,0.1-2.8,2.2-2.7c2.4,0,1.7,1.7,1.8,3c0.1,1.9,0,3.9,0.1,5.8C369,371.5,369,373.2,369,375z"/>
				<path class="st7" d="M332.7,594.1c0-5.4-0.1-10.8,0-16.3c0-1.3-0.9-3.5,1.9-3.4c2.3,0.1,1.6,2,1.6,3.2c0.1,7,0,14-0.1,21.1
					c0,1.2,0.9,2.9-1.4,3.3c-1.8,0.3-2.8-0.5-3.8-2c-3.9-6-7.9-11.8-12.5-18.5c-1.1,6.1-0.3,11.4-0.7,16.6c-0.1,1.5,1.2,3.9-1.8,3.9
					c-3,0-1.7-2.6-1.7-4c-0.1-6.3-0.2-12.6,0-19c0-1.5-1.3-3.7,1.2-4.5c2.7-0.8,3.6,1.3,4.8,3.1c3.7,5.6,7.5,11.2,11.3,16.8
					C331.9,594.3,332.3,594.2,332.7,594.1z"/>
				<path class="st7" d="M464,253c0.1,8.8-5,14.1-13.9,14.2c-7.9,0.2-13.4-5.4-13.6-13.5c-0.2-9.1,5-14.8,13.4-14.8
					C458.7,238.9,463.9,244.1,464,253z M440.4,253.1c-0.1,6.9,3.2,10.8,9.2,11c6.2,0.1,10.7-4.4,10.6-10.8c-0.1-6.9-4-11-10.5-11
					C443.7,242.2,440.5,246,440.4,253.1z"/>
				<path class="st8" d="M345,588c0-3.5,0-7,0-10.5c0-1.7-0.1-3.2,2.3-3.1c1.8,0.1,2.6,0.6,2.7,2.7c0.7,9.1,0.8,8.9,9.7,8.9
					c3.4,0,4.3-1.2,4.3-4.6c0-2.2-2.1-6.8,2.2-6.6c3.4,0.1,1.5,4.3,1.6,6.6c0.3,6,0.1,11.9,0.1,17.9c0,1.3,0.4,2.9-1.9,2.9
					c-2.2,0-2-1.5-2-2.9c0-1.6-0.2-3.2,0-4.7c0.7-4.4-0.9-5.6-5.3-5.3c-8.5,0.4-8.4,0.1-8.8,8.7c-0.1,1.5,1.5,4-2,4.3
					c-3.5,0.2-2.9-2.1-2.9-4.1C344.9,594.6,345,591.3,345,588z"/>
				<path class="st9" d="M368.5,446.1c0,3.7-0.1,7.3,0,11c0.1,1.8-0.6,2.8-2.3,2.8c-1.7-0.1-1.4-1.6-1.5-2.8c0-0.4,0-0.7,0-1.1
					c-0.2-9.3-0.2-9.1-9.4-9.3c-3.9-0.1-5.5,0.8-4.8,4.9c0.3,1.9,0,3.8,0,5.8c0,1.6-0.4,2.6-2.4,2.4c-1.8-0.1-2.4-0.7-2.4-2.5
					c0.1-7.6,0.1-15.1,0-22.7c0-1.7,0.4-2.6,2.3-2.5c1.7,0.1,2.7,0.7,2.5,2.5c0,0.2,0,0.4,0,0.5c0.3,2.7-1.3,7.1,0.7,7.8
					c3.6,1.3,7.9,0.6,11.9,0.6c1.9,0,1.5-1.5,1.5-2.7c0-2.1,0-4.2,0-6.3c0-1.3,0-2.5,1.9-2.4c1.6,0.1,1.9,1.1,1.9,2.5
					C368.5,438.5,368.5,442.3,368.5,446.1C368.5,446.1,368.5,446.1,368.5,446.1z"/>
				<path class="st9" d="M494.6,354.6c0,3.7,0,7.4,0,11.1c0,1.2,0.1,2.5-1.9,2.3c-1.4-0.2-2.9-0.2-3-2.1c0-0.9,0.1-1.8,0-2.6
					c-0.2-2.7,1.3-7-0.8-7.7c-3.6-1.3-7.9-0.6-11.9-0.6c-1.9,0-1.4,1.7-1.4,2.8c-0.1,2.6,0,5.3,0,7.9c0,1.3-0.2,2.6-2,2.3
					c-1-0.2-1.8-0.5-1.7-2c0.1-7.8,0.1-15.7,0-23.5c0-1.8,0.9-2.1,2.2-2.1c1.6,0,1.4,1.2,1.5,2.2c0,0.2,0,0.4,0,0.5
					c0.4,2.8-1.5,7.2,1,8.2c3.3,1.4,7.6,0.3,11.4,0.4c1.4,0,1.7-0.8,1.7-2c0-1.7-0.1-3.5,0.1-5.2c0.1-1.7-0.9-4.1,2.3-4.2
					c3.4-0.2,2.4,2.3,2.4,3.9C494.6,347.5,494.6,351.1,494.6,354.6z"/>
				<path class="st10" d="M246.5,296.2c0,7.2,0,12.7,0,18.3c0,1.2,0.6,3-1.7,3c-2.4,0-1.7-1.8-1.7-3c-0.1-7-0.1-14.1,0-21.1
					c0-1.2-0.9-3,1.3-3.4c1.8-0.3,2.8,0.5,3.8,2c3.9,6,8,11.9,13.1,17.8c0-5.4-0.1-10.9,0-16.3c0-1.3-1-3.5,1.7-3.4
					c2.7,0.1,1.5,2.3,1.6,3.6c0.1,6.9,0.1,13.7,0,20.6c0,1.2,0.9,3-1.4,3.3c-1.6,0.2-2.5-0.4-3.4-1.8
					C255.8,309.7,251.6,303.6,246.5,296.2z"/>
				<path class="st8" d="M190.8,253.1c0-3.9,0-7.7,0-11.6c0-1.3,0-2.5,1.8-2.6c1.9-0.1,2.2,1,2.3,2.6c0.3,2.8-1.6,6.6,1.1,8.2
					c2.1,1.2,5.5-0.1,8.2,0.3c4.9,0.9,6.3-1.1,5.6-5.6c-0.2-1,0.1-2.1,0-3.2c-0.2-1.5,0.3-2.4,1.9-2.4c1.5,0,2.2,0.7,2.2,2.2
					c0,7.7,0,15.5,0,23.2c0,1.4-0.4,2.3-2,2.3c-1.7,0-2-1.1-2-2.4c0-0.4,0-0.7,0-1.1c-0.2-3.1,1.4-8-0.7-8.9
					c-3.6-1.5-8.2-0.6-12.4-0.7c-1.8,0-1.8,1.2-1.8,2.5c0,2.6,0,5.3,0,7.9c0,1.6-0.2,2.8-2.2,2.7c-1.7-0.1-1.8-1.2-1.8-2.6
					C190.8,260.4,190.8,256.7,190.8,253.1C190.8,253.1,190.8,253.1,190.8,253.1z"/>
				<path class="st11" d="M337.3,233c0,3.5,0,7,0,10.5c0,1.3,0.3,2.9-1.9,3c-2.2,0.1-2-1.4-2.1-2.8c0-0.4,0-0.7,0-1.1
					c-0.3-2.9,1.4-7.1-0.7-8.5c-3.1-2-7.4-0.5-11.3-0.7c-2.2-0.1-2,1.4-2,2.8c0,2.6,0,5.3,0,7.9c0,1.3-0.1,2.5-1.9,2.4
					c-1.2-0.1-2-0.6-2-1.9c0-8.1,0-16.2,0-24.2c0-1.4,1.1-1.6,2.2-1.6c1.1,0,1.6,0.5,1.7,1.5c0,0.5,0,1.1,0,1.6
					c0.4,2.7-1.5,6.8,1,7.7c3.4,1.3,7.6,0.6,11.4,0.3c2.7-0.2,1.1-2.8,1.6-4.2c0.8-2.3-2-6.7,2.3-6.6c3.4,0.1,1.2,4.3,1.6,6.6
					C337.6,228.1,337.3,230.6,337.3,233z"/>
				<path class="st12" d="M190.8,353.6c0-3.5,0-7,0-10.5c0-1.5-0.5-3.4,2.1-3.3c2.1,0.1,1.8,1.7,1.9,3.1c0.7,8.4,0.7,8.1,9.6,8.5
					c4.3,0.2,6.2-0.9,5.5-5.4c-0.2-1-0.1-2.1-0.1-3.2c0-1.4-0.2-2.9,1.8-3.1c2-0.1,2.2,1.2,2.2,2.8c0,7.5,0,15.1,0,22.6
					c0,1.5-0.4,2.3-2,2.3c-1.6,0-2.2-0.7-2-2.2c0-0.2,0-0.4,0-0.5c-0.3-3.3,1.5-8.1-0.8-9.4c-2.9-1.7-7.4-0.6-11.2-0.8
					c-2.2-0.1-3.2,0.5-3,2.9c0.2,2.4,0,4.9,0.1,7.4c0.1,1.6-0.2,2.7-2.2,2.7c-2.2,0-1.9-1.6-1.9-2.9
					C190.8,360.9,190.8,357.2,190.8,353.6C190.8,353.6,190.8,353.6,190.8,353.6z"/>
				<path class="st13" d="M396.3,709.4c0-3.5,0-7,0-10.5c0-1.4-0.5-2.9,1.8-2.9c1.9,0,1.7,1.3,1.8,2.5c0.4,2.7-1.4,6.2,0.8,8
					c2.4,1.9,6,0.3,9.1,0.7c3.4,0.4,5-0.5,4.4-4.2c-0.2-1.2-0.1-2.5,0-3.7c0.1-1.4-0.8-3.4,1.9-3.3c2.4,0.1,1.6,1.8,1.6,3.1
					c0.1,7.2,0.1,14.4,0.1,21.5c0,1.2,0.5,3-1.9,2.9c-2.4-0.1-1.6-1.9-1.7-3.1c-0.7-10.3-0.7-10.2-10.9-9.9
					c-2.8,0.1-3.7,0.9-3.4,3.6c0.2,2.3,0.1,4.6,0,6.9c0,1.3-0.1,2.5-1.9,2.5c-1.9,0-1.7-1.3-1.7-2.5c0-1.9,0-3.9,0-5.8
					C396.3,713.2,396.3,711.3,396.3,709.4z"/>
				<path class="st9" d="M436.5,354c0-8.6,5.5-14.3,13.5-14.2c8.7,0.2,14,5.5,14,14.3c0,8.9-5.7,14.4-14.6,14.3
					C441.8,368.2,436.4,362.2,436.5,354z M440.4,354c0,6.8,3.4,11,9.1,11.1c6.3,0.1,10.7-4.3,10.7-10.8c0-7-2.6-10.7-10.6-11.3
					C443.8,342.7,440.4,347.1,440.4,354z"/>
				<path class="st13" d="M214.8,709.5c0-3.7,0-7.4,0-11.1c0-1.2-0.2-2.6,1.7-2.5c1.7,0,1.7,1.1,1.9,2.5c1,8.8,1,8.6,9.9,8.8
					c3.9,0.1,4.9-1.2,4.5-4.7c-0.2-1.4,0.1-2.8,0-4.2c-0.1-1.8,0.6-2.5,2.4-2.4c1.5,0,2.3,0.5,2.3,2.1c-0.1,7.9-0.1,15.7-0.1,23.6
					c0,1.8-1,1.9-2.3,1.9c-1.5,0-2.3-0.5-2.2-2.1c0-0.4,0-0.7,0-1.1c-0.7-10.6-0.7-10.5-11.5-9.8c-2.3,0.1-3.1,0.8-2.9,3
					c0.1,1.6,0.3,3.2,0,4.7c-0.4,1.8,1.7,4.9-1.5,5.1c-3.5,0.2-1.7-3.1-1.9-4.8C214.5,715.5,214.7,712.5,214.8,709.5z"/>
				<path class="st10" d="M345.6,517c0-3.5,0-7,0-10.5c0-1.5-0.5-3.2,2.1-3.2c2.3,0,2.4,1.2,2.5,3c0.5,8.3,0.6,8,8.6,8.4
					c4.5,0.2,6.3-0.9,5.8-5.7c-0.2-1.8-1.6-5.4,1.5-5.5c3.6-0.1,1.7,3.5,1.8,5.4c0.2,6.3,0.1,12.6,0.1,19c0,1.2,0.7,3.1-1.6,3.1
					c-2.2,0.1-1.8-1.6-1.9-2.9c0-0.2,0-0.4,0-0.5c-0.5-10.4-0.5-10.3-11-9.7c-2.7,0.1-3.7,1.1-3.4,3.8c0.2,2.3,0,4.6,0,6.8
					c0,1.6-0.2,2.6-2.2,2.7c-2,0-2.4-1-2.4-2.6C345.6,524.7,345.6,520.9,345.6,517z"/>
				<path class="st4" d="M318.3,375.1c0.1,8.1,5.6,12.7,11.9,10.1c1.9-0.8,3.3-2,4-3.9c0.7-1.6,1.2-3.2,3.3-1.8
					c2.1,1.4,0.5,2.7-0.2,4c-4.2,7.3-15.7,7.7-20.3,0.4c-3.5-5.6-3.8-11.7-0.5-17.5c2.8-5,7.7-6.3,13.1-5.7c3.4,0.3,6,2,7.5,5
					c0.4,0.8,2.2,1.9,0.3,3c-1.1,0.6-2.5,1-3.2-0.5c-2.3-4.9-6.5-5.3-10.7-3.7C319,366.4,318.1,370.6,318.3,375.1z"/>
				<path class="st7" d="M318.2,303.7c0,7.1,2.9,10.7,8.6,11c3.1,0.1,5.5-1.2,7.1-3.7c0.9-1.4,1.1-4,3.5-2.6
					c2.7,1.5,0.4,3.5-0.5,4.8c-3,4.7-10.7,6.2-16.1,3.4c-5.7-3-8.3-12.6-5.3-19.7c2.5-5.8,9.5-9,15.8-6.9c1.4,0.5,3,1.3,4,2.4
					c1.2,1.4,3.8,3.3,2.1,5c-2.3,2.3-3.2-0.9-4.5-2.4c-3.3-3.9-10.3-3-13.1,1.6C318.5,298.8,318.2,301.3,318.2,303.7z"/>
				<path class="st7" d="M313,658.8c0.1-9.3,6.4-14.8,15.3-13.6c3.5,0.5,6.2,2.3,7.7,5.6c0.5,1,0.9,2.1-0.4,2.6
					c-0.9,0.4-1.7,0.5-2.7-0.5c-5.1-5.3-9.5-6-13.2-2.4c-3.6,3.4-3.8,13.3-0.4,17.1c3.8,4.2,10.2,3.6,13.4-1.5
					c0.9-1.5,1.2-3.6,3.6-1.9c2.1,1.5,0.1,2.9-0.5,4c-4.1,7.1-15.5,7.4-20,0.6C313.7,665.8,312.8,662.4,313,658.8z"/>
				<path class="st7" d="M386.9,303.7c0-6.9,3.1-12,8.4-13.5c5-1.4,9.8-1.2,13.4,3.3c0.9,1.1,3.1,2.5,0.8,4.2
					c-2,1.5-2.6-0.5-3.5-1.8c-2.5-3.7-6-4-9.7-2.6c-4.5,1.7-5.5,5.7-5.5,9.8c0,4.2,0.4,8.6,4.9,10.8c4,2,8.6,0.6,10.9-3.4
					c0.9-1.7,1.6-3.5,3.7-2c1.9,1.3,0.1,2.9-0.5,4.1c-4.2,7.5-16.4,7.3-20.6-0.2C387.4,309.6,386.6,306.6,386.9,303.7z"/>
				<path class="st14" d="M314.1,446.4c0-9.7,6-15.5,14.5-14.6c2.9,0.3,5.6,1.3,7.2,3.8c0.8,1.2,3.2,2.7,1.1,4.4c-2,1.5-3-0.4-3.9-2
					c-1.4-2.4-3.7-3.1-6.3-3c-5.6,0.1-8.8,3.9-8.9,10.7c-0.2,6.5,3.1,11,8.3,11.4c3.5,0.2,6.2-1.3,7.6-4.5c0.8-1.7,1.7-2.8,3.5-1.8
					c2.4,1.3,0.2,2.9-0.3,3.9c-4.2,7.6-16.2,7.6-20.6,0.1C314.8,452.1,313.8,449.1,314.1,446.4z"/>
				<path class="st9" d="M313.7,517.2c0-6.7,2.8-11.6,7.8-13.4c4.9-1.8,9.7-1.5,13.5,2.5c1.1,1.2,3.4,2.9,1.4,4.6
					c-1.7,1.4-2.8-0.4-4-2c-2.4-3.1-5.7-3.8-9.4-2.3c-4.3,1.8-6.6,7-5.6,12.9c0.9,5.5,3.7,8.3,8.4,8.5c3.3,0.1,5.9-1,7.3-4.1
					c0.8-1.8,1.8-3.5,3.7-2c1.6,1.2,0.2,2.9-0.6,4.1c-3,4.9-7.7,5.8-12.8,5c-5.6-0.9-8.2-4.9-9.5-10
					C313.8,519.8,313.8,518.3,313.7,517.2z"/>
				<path class="st6" d="M378.8,400.2c1.1,0.4,1.5,0.5,1.8,0.6c2.4,0.6,5.1-1.1,7.3,1.1c0.1,0.1-0.4,1.2-0.6,1.2c-4,0-8,0.2-12-0.2
					c-0.9-0.1-0.2-2.2,0.7-3.1c2.2-2.2,4.3-4.7,6.8-6.5c2-1.5,4-3,1.9-5.2c-1.7-1.7-4.3-2.3-6.5,0.1c-0.6,0.7-0.5,3.1-2.3,1.7
					c-1.5-1.2,0-2.6,0.8-3.6c2.1-2.4,7.9-2.3,10,0.3c2.9,3.5,1.1,6.5-1.7,8.6C383,396.5,380.9,397.8,378.8,400.2z"/>
				<path class="st12" d="M378,542.4c3.3,1.4,6.8-0.9,9.7,2.2c-4.7,1.4-8.9,0.3-13.6,0.7c0.9-5.4,5.8-7.1,8.5-10.5
					c1.1-1.4,3.8-2.2,1.5-4.3c-1.8-1.6-4.1-2.8-6.4-0.4c-0.8,0.8-0.9,3.4-2.7,1.5c-1-1.1,0.5-2.6,1.5-3.5c2.5-2.2,8.5-1.8,10,0.9
					c1.9,3.5,0.7,6.4-2.6,8.4C381.6,538.6,379.9,540.3,378,542.4z"/>
				<path class="st6" d="M247.7,735.2c2.8,0.1,5.2,0.3,8,0.4c-1.8,1.7-10.7,3.1-11.7,2c-1.2-1.2-0.2-2.4,0.6-3.2
					c2.2-2.3,4.5-4.4,6.7-6.6c1.7-1.6,2.7-3.8,0.8-5.5c-1.9-1.8-4.2-1.5-5.6,1.1c-0.6,1.1-1.3,1.9-2.4,0.9c-0.9-0.9,0-2,0.6-2.7
					c2.4-3,5.5-3.2,8.4-1.3c3.1,2,3,5,1,7.8c-0.9,1.3-2.2,2.2-3.3,3.3C249.8,732.5,248.2,733.2,247.7,735.2z"/>
				<path class="st6" d="M326.4,280.4c-0.8-0.6-1.4-1.1-1.4-2.1c0-8.4-0.1-16.7,0-25.1c0-0.9-0.1-2.3,1.1-2.7
					c1.1-0.3,1.5,0.6,1.5,1.5c0,9.1-0.1,18.3-0.2,27.4C327.5,279.8,326.8,280.1,326.4,280.4z"/>
				<path class="st6" d="M326.6,351.4c-1.7-0.5-1.6-1.9-1.6-3c0-8,0-16,0-24c0-1.3-0.1-2.6,1.5-2.8c1.1-0.1,1.2,1,1.2,1.9
					c-0.1,8.9-0.1,17.9-0.2,26.8C327.6,350.7,326.9,351.1,326.6,351.4z"/>
				<path class="st15" d="M326.7,549.7c0,4.4,0,8.8,0,13.2c0,1-0.4,1.9-1.4,1.9c-0.9,0-1.4-0.9-1.4-1.9c0-8.7,0-17.4,0-26.1
					c0-1.1,0.5-1.9,1.3-2c1.4-0.1,1.5,1.2,1.5,2.2C326.7,541.3,326.7,545.5,326.7,549.7z"/>
				<path class="st15" d="M323.6,620.9c0-4.2,0-8.4,0-12.6c0-1.1,0-2.4,1.4-2.3c1.1,0.1,1.5,1.2,1.5,2.4c0,8.3,0,16.6,0,24.9
					c0,0.9,0,2.5-1.3,2.4c-1.8,0-1.4-1.7-1.4-2.8C323.6,628.9,323.6,624.9,323.6,620.9z"/>
				<path class="st15" d="M324.7,407.1c0-3.9,0-7.7,0-11.6c0-1.2-0.2-2.8,1.5-2.8c1.3,0,1.3,1.4,1.3,2.5c0,8.2,0.1,16.4,0,24.6
					c0,1,0.1,2.8-1.7,2.6c-1.3-0.2-1.1-1.6-1.1-2.6C324.7,415.5,324.7,411.3,324.7,407.1z"/>
				<path class="st16" d="M344.6,299.9c11.5,0,22.7,0,34.6,0C375,302.6,347.7,302.4,344.6,299.9z"/>
				<path class="st16" d="M306.6,301.9c-10.6,0-20.7,0-30.8,0c-0.8,0-1.8,0.1-1.9-1.1c-0.1-0.9,0.6-1.2,1.3-1.2
					c10.1,0.2,20.3-0.6,30.4,0.4C305.7,300,305.8,300.5,306.6,301.9z"/>
				<path class="st16" d="M326.2,494.5c-2.1-5-2.2-26.3,0-30.8C326.2,473.6,326.2,483.4,326.2,494.5z"/>
				<path class="st8" d="M340.2,679c4.2,3.8,8.3,7.6,12.5,11.4c0.7,0.6,1.2,1.4,0.3,2.2c-0.3,0.3-1.2,0.4-1.4,0.2
					c-3.9-4.4-10-6.8-12.5-12.5C339.5,679.9,339.8,679.4,340.2,679z"/>
				<path class="st11" d="M291.9,685.9c3-4.5,7.6-7.5,11.2-11.4c0.4-0.4,1.3-0.6,1.9-0.4c0.7,0.2,0.9,1.2,0.3,1.7
					c-3.9,3.9-8,7.7-11.9,11.6C292.9,686.9,292.4,686.4,291.9,685.9z"/>
				<path class="st15" d="M234.9,280.8c-0.1,1.5-1.3,1.7-2.1,0.9c-3.8-3.7-7.4-7.5-11-11.2c-0.2-0.2-0.2-1,0.1-1.3
					c0.3-0.3,0.9-0.4,1.4-0.4C224.1,268.9,234.8,279.9,234.9,280.8z"/>
				<path class="st7" d="M350.3,670.6c0.4,0.2,0.8,0.3,1,0.5c3.5,3.5,7,6.9,10.4,10.4c0.5,0.5,0.9,1.1,0.3,1.8
					c-0.8,0.9-1.6,0.5-2.2-0.1c-3.5-3.5-6.9-6.9-10.3-10.4c-0.3-0.3-0.5-1-0.4-1.4C349.3,671,349.9,670.8,350.3,670.6z"/>
				<path class="st11" d="M414,275.9c-1.1-0.4-1.3-1.2-0.5-2.3c2.8-3.6,6.8-5.9,10.1-8.9c0.3-0.2,1.1-0.2,1.4,0
					c0.3,0.2,0.5,0.9,0.4,1.3C425.2,267.3,415.4,275.9,414,275.9z"/>
				<path class="st14" d="M381.6,467.7c-1.2,1-2.3,2.1-3.8,3.4c3.4,1.8,6.9-0.2,10.9,2.2c-5.4,1.4-9.7,0.6-14.2,0.8
					c0.2-4.1,3.3-5.6,5.7-7.6C380.8,466.9,381.2,467.3,381.6,467.7z"/>
				<path class="st7" d="M433.3,273.3c1.1,0.2,1.4,1.2,0.8,1.9c-3,3.2-6.1,6.3-9.1,9.4c-0.5,0.5-1.4,0.5-1.8-0.1
					c-0.2-0.3-0.2-1.1,0-1.4c3-3.2,6-6.3,9.1-9.4C432.5,273.5,433,273.4,433.3,273.3z"/>
				<path class="st15" d="M381.6,467.7c-0.4-0.4-0.9-0.8-1.3-1.2c0.9-1,1.8-2.1,2.8-2.9c2.7-2.1,2.9-4-0.4-5.6
					c0.7-0.6,1.3-1.1,2-1.7C389.5,460.8,388.6,464.1,381.6,467.7z"/>
				<path class="st7" d="M430.1,330c-0.1,0.3-0.2,0.9-0.6,1.1c-0.4,0.2-1.1,0.1-1.4-0.2c-3.4-3-6.1-6.6-10-9
					c-0.6-0.4-0.8-1.3-0.2-1.8c0.5-0.4,1.3-0.5,1.9-0.5C420.8,319.6,430,328.8,430.1,330z"/>
				<path class="st7" d="M235,319.3c-2.3,2.3-4.3,4.8-6.8,6.7c-2,1.5-3.4,5.9-6.1,3.9c-1.3-0.9,2.7-3.6,4.3-5.4c1.9-2.1,3.9-4,6-5.9
					c0.4-0.4,1.3-0.5,1.9-0.5C234.5,318.1,234.8,318.9,235,319.3z"/>
				<path class="st6" d="M384.8,456.2c-0.7,0.6-1.3,1.1-2,1.7c-3.6-1.7-4.8,2.1-7.1,3.7C375.5,456,377.1,455.1,384.8,456.2z"/>
				<path class="st17" d="M440.4,253.1c0.1-7.1,3.2-10.9,9.3-10.8c6.5,0,10.4,4.1,10.5,11c0.1,6.5-4.4,11-10.6,10.8
					C443.6,263.9,440.4,260,440.4,253.1z"/>
				<path class="st18" d="M440.4,354c0-6.9,3.4-11.3,9.1-10.9c8,0.6,10.6,4.3,10.6,11.3c0,6.5-4.3,11-10.7,10.8
					C443.8,365,440.4,360.8,440.4,354z"/>
			</g>
		</g>
		
			<linearGradient id="SVGID_00000104680201937302995250000013603258925178544809_" gradientUnits="userSpaceOnUse" x1="29" y1="478.3634" x2="662" y2="478.3634">
			<stop  offset="0" style="stop-color:#ED1C24"/>
			<stop  offset="1" style="stop-color:#22B573"/>
		</linearGradient>
		
			<path style="fill:none;stroke:url(#SVGID_00000104680201937302995250000013603258925178544809_);stroke-width:20;stroke-miterlimit:10;" d="
			M622,776.1H69c-16.6,0-30-13.4-30-30V210.7c0-16.6,13.4-30,30-30h553c16.6,0,30,13.4,30,30v535.4C652,762.6,638.6,776.1,622,776.1
			z"/>
	</g>
	<g id="вики">
		
			<linearGradient id="SVGID_00000179613541300881100060000004203157365528186753_" gradientUnits="userSpaceOnUse" x1="20" y1="903.7912" x2="340" y2="903.7912">
			<stop  offset="0" style="stop-color:#ED1C24"/>
			<stop  offset="1" style="stop-color:#22B573"/>
		</linearGradient>
		<path style="stroke:url(#SVGID_00000179613541300881100060000004203157365528186753_);stroke-width:20;stroke-miterlimit:10;" d="
			M300,997.5H60c-16.6,0-30-13.4-30-30V840.1c0-16.6,13.4-30,30-30h240c16.6,0,30,13.4,30,30v127.5C330,984.1,316.6,997.5,300,997.5
			z"/>
		<g id="more">
			<path class="st1" d="M99.6,924l-20.9-24.5V924H62.3v-48h16.3l20.9,25.3v0l20.9-25.3h16.3v48h-16.3v-24.5L99.6,924L99.6,924
				L99.6,924z"/>
			<path class="st1" d="M188.7,909.4c0,8.1-5.9,14.6-13.2,14.6h-22c-7.3,0-13.2-6.6-13.2-14.6v-18.8c0-8.1,5.9-14.6,13.2-14.6h22
				c7.3,0,13.2,6.6,13.2,14.6V909.4z M172.4,890.3h-15.6c-2.2,0-4,2-4,4.5v10.5c0,2.5,1.8,4.5,4,4.5h15.6c2.2,0,4-2,4-4.5v-10.5
				C176.4,892.3,174.6,890.3,172.4,890.3z"/>
			<path class="st1" d="M230.4,924l-7.4-16.1h-16.1V924h-14.6v-48h1h13.5h21.6c6.7,0,12.1,6,12.1,13.5v4.9c0,4.1-1.6,7.7-4.2,10.2
				l8.9,19.4H230.4z M221.7,888.4h-14.9v6.1h14.9c2.8,0,5.1-1.3,5.1-2.8v-0.4C226.9,889.7,224.6,888.4,221.7,888.4z"/>
			<path class="st1" d="M267.7,893.6h26.6v12.9h-26.6v4.6h26.6V924h-26.6h-18.8v-48h1.2h44.3V889h-26.6V893.6z"/>
		</g>
	</g>
	<g id="_x33_D">
		
			<linearGradient id="SVGID_00000124855225368165062610000005426110397282019504_" gradientUnits="userSpaceOnUse" x1="347" y1="903.7912" x2="667" y2="903.7912">
			<stop  offset="0" style="stop-color:#22B573"/>
			<stop  offset="1" style="stop-color:#ED1C24"/>
		</linearGradient>
		<path style="stroke:url(#SVGID_00000124855225368165062610000005426110397282019504_);stroke-width:20;stroke-miterlimit:10;" d="
			M627,997.5H387c-16.6,0-30-13.4-30-30V840.1c0-16.6,13.4-30,30-30h240c16.6,0,30,13.4,30,30v127.5
			C657,984.1,643.6,997.5,627,997.5z"/>
		<g id="_x33_d">
			<g>
				
					<linearGradient id="SVGID_00000040560833139819808220000013168209897957824143_" gradientUnits="userSpaceOnUse" x1="397.908" y1="901.3483" x2="566.7966" y2="901.3483">
					<stop  offset="0" style="stop-color:#22B573"/>
					<stop  offset="1" style="stop-color:#ED1C24"/>
				</linearGradient>
				<path style="fill:url(#SVGID_00000040560833139819808220000013168209897957824143_);" d="M496.4,892.4v21.1v11.9
					c0,6-5,10.9-11.2,10.9h-4.1h-50c-6.2,0-11.2-4.9-11.2-10.9v-11.9h53.5v-2.7h-53.5v-15.6h53.5v-2.7h-53.5v-11.9
					c0-6,5-10.9,11.2-10.9h50h4.1c6.2,0,11.2,4.9,11.2,10.9V892.4z"/>
				
					<linearGradient id="SVGID_00000162316655460633792000000016405300348020030863_" gradientUnits="userSpaceOnUse" x1="397.908" y1="901.3483" x2="566.7966" y2="901.3483">
					<stop  offset="0" style="stop-color:#22B573"/>
					<stop  offset="1" style="stop-color:#ED1C24"/>
				</linearGradient>
				<path style="fill:url(#SVGID_00000162316655460633792000000016405300348020030863_);" d="M551.1,936.2L551.1,936.2l-50.7,0V930
					v-57.2v-6.3h50.7v0c21,0.6,37.8,15.9,37.8,34.9C588.8,920.3,572,935.6,551.1,936.2z M549,888.7L549,888.7l-22.2,0v2.1v19.2v2.1
					H549v0c7.2-0.2,12.9-5.3,12.9-11.7S556.2,888.9,549,888.7z"/>
			</g>
			<g>
				<path class="st1" d="M496.4,892.4v21.1v11.9c0,6-5,10.9-11.2,10.9h-4.1h-50c-6.2,0-11.2-4.9-11.2-10.9v-11.9h53.5v-2.7h-53.5
					v-15.6h53.5v-2.7h-53.5v-11.9c0-6,5-10.9,11.2-10.9h50h4.1c6.2,0,11.2,4.9,11.2,10.9V892.4z"/>
				<path class="st1" d="M551.1,936.2L551.1,936.2l-50.7,0V930v-57.2v-6.3h50.7v0c21,0.6,37.8,15.9,37.8,34.9
					C588.8,920.3,572,935.6,551.1,936.2z M549,888.7L549,888.7l-22.2,0v2.1v19.2v2.1H549v0c7.2-0.2,12.9-5.3,12.9-11.7
					S556.2,888.9,549,888.7z"/>
			</g>
		</g>
	</g>
	<g id="сис_название">
		
			<linearGradient id="SVGID_00000049224243745369227900000010647214015534742412_" gradientUnits="userSpaceOnUse" x1="703" y1="359.3796" x2="1504" y2="359.3796">
			<stop  offset="0" style="stop-color:#FF0000"/>
			<stop  offset="1" style="stop-color:#62845A"/>
		</linearGradient>
		
			<rect x="704" y="194.3" style="fill:none;stroke:url(#SVGID_00000049224243745369227900000010647214015534742412_);stroke-width:2;stroke-miterlimit:10;" width="799" height="330.2"/>
		<g id="сис_название_00000127010324934244428380000002620045330104168892_">
			<path class="st1" d="M780.2,265.7h3.4c0,1-0.1,1.9-0.1,2.9c-0.1,2.8-2.2,5-4.8,5.2c-4.1,0.2-8.3,0.3-12.4,0.3
				c-4.1,0-8.3-0.1-12.4-0.3c-2.6-0.1-4.7-2.4-4.8-5.2c-0.3-7.1-0.3-14.2,0-21.4c0.1-2.8,2.2-5,4.8-5.2c4.1-0.2,8.3-0.3,12.4-0.3
				s8.3,0.1,12.4,0.3c2.6,0.1,4.7,2.4,4.8,5.2c0,1,0.1,1.9,0.1,2.9h-3.4c0-0.9-0.1-1.8-0.1-2.7c0-0.4-0.2-0.9-0.5-1.2
				c-0.3-0.3-0.7-0.5-1.1-0.5c-4.1-0.2-8.2-0.3-12.3-0.3s-8.2,0.1-12.3,0.3c-0.4,0-0.8,0.2-1.1,0.5c-0.3,0.3-0.5,0.7-0.5,1.2
				c-0.3,7-0.3,14,0,21c0,0.4,0.2,0.9,0.5,1.2c0.3,0.3,0.7,0.5,1.1,0.5c4.1,0.2,8.2,0.3,12.3,0.3s8.2-0.1,12.3-0.3
				c0.4,0,0.8-0.2,1.1-0.5c0.3-0.3,0.5-0.7,0.5-1.2C780.1,267.5,780.2,266.6,780.2,265.7z"/>
			<path class="st1" d="M821.5,242.3v31.1h-3.4V246h-1l-23.5,27.5h-6v-31.1h3.4v27.5h1.1l23.4-27.5H821.5z"/>
			<path class="st1" d="M857.9,265.7h3.4c0,1-0.1,1.9-0.1,2.9c-0.1,2.8-2.2,5-4.8,5.2c-4.1,0.2-8.3,0.3-12.4,0.3
				c-4.1,0-8.3-0.1-12.4-0.3c-2.6-0.1-4.7-2.4-4.8-5.2c-0.3-7.1-0.3-14.2,0-21.4c0.1-2.8,2.2-5,4.8-5.2c4.1-0.2,8.3-0.3,12.4-0.3
				s8.3,0.1,12.4,0.3c2.6,0.1,4.7,2.4,4.8,5.2c0,1,0.1,1.9,0.1,2.9h-3.4c0-0.9-0.1-1.8-0.1-2.7c0-0.4-0.2-0.9-0.5-1.2
				c-0.3-0.3-0.7-0.5-1.1-0.5c-4.1-0.2-8.2-0.3-12.3-0.3s-8.2,0.1-12.3,0.3c-0.4,0-0.8,0.2-1.1,0.5c-0.3,0.3-0.5,0.7-0.5,1.2
				c-0.3,7-0.3,14,0,21c0,0.4,0.2,0.9,0.5,1.2c0.3,0.3,0.7,0.5,1.1,0.5c4.1,0.2,8.2,0.3,12.3,0.3s8.2-0.1,12.3-0.3
				c0.4,0,0.8-0.2,1.1-0.5c0.3-0.3,0.5-0.7,0.5-1.2C857.9,267.5,857.9,266.6,857.9,265.7z"/>
			<path class="st1" d="M889.8,242.3v3.7h-11.9v27.5h-3.4V246h-11.9v-3.7H889.8z"/>
			<path class="st1" d="M895.9,246v10.1h23.7v3.7h-23.7v10.1h23.7v3.7h-27.1v-31.1h27.1v3.7H895.9z"/>
			<path class="st1" d="M962,242.3v31.1h-3.4V246H958l-13.4,27.5h-3.3L927.8,246h-0.6v27.5h-3.4v-31.1h6l13.1,26.7l13.1-26.7v0H962z
				"/>
			<path class="st1" d="M998.5,273.5h-3.7l-2.9-6.7h-20.7l-2.9,6.7h-3.7l13.2-31.1h7.5L998.5,273.5z M990.3,263.1l-7.3-17.1H980
				l-7.3,17.1H990.3z"/>
			<path class="st1" d="M1021,242.3v3.7h-11.9v27.5h-3.4V246h-11.9v-3.7H1021z"/>
			<path class="st1" d="M1057.6,242.3v31.1h-3.4V246h-1l-23.5,27.5h-6v-31.1h3.4v27.5h1.1l23.4-27.5H1057.6z"/>
			<path class="st1" d="M1088.6,259.4l0,14.1h-3.4v-13.8h-18.9c-2.6-0.1-4.7-2.4-4.8-5.2l0-12.2h3.4l0,12.1c0,0.4,0.2,0.9,0.5,1.2
				c0.3,0.3,0.7,0.5,1.1,0.5h18.8v-13.7h3.4L1088.6,259.4z"/>
			<path class="st1" d="M1097.3,246v10.1h23.7v3.7h-23.7v10.1h23.7v3.7h-27.1v-31.1h27.1v3.7H1097.3z"/>
			<path class="st1" d="M1156.4,265.7h3.4c0,1-0.1,1.9-0.1,2.9c-0.1,2.8-2.2,5-4.8,5.2c-4.1,0.2-8.3,0.3-12.4,0.3s-8.3-0.1-12.4-0.3
				c-2.6-0.1-4.7-2.4-4.8-5.2c-0.3-7.1-0.3-14.2,0-21.4c0.1-2.8,2.2-5,4.8-5.2c4.1-0.2,8.3-0.3,12.4-0.3s8.3,0.1,12.4,0.3
				c2.6,0.1,4.7,2.4,4.8,5.2c0,1,0.1,1.9,0.1,2.9h-3.4c0-0.9-0.1-1.8-0.1-2.7c0-0.4-0.2-0.9-0.5-1.2c-0.3-0.3-0.7-0.5-1.1-0.5
				c-4.1-0.2-8.2-0.3-12.3-0.3s-8.2,0.1-12.3,0.3c-0.4,0-0.8,0.2-1.1,0.5c-0.3,0.3-0.5,0.7-0.5,1.2c-0.3,7-0.3,14,0,21
				c0,0.4,0.2,0.9,0.5,1.2c0.3,0.3,0.7,0.5,1.1,0.5c4.1,0.2,8.2,0.3,12.3,0.3s8.2-0.1,12.3-0.3c0.4,0,0.8-0.2,1.1-0.5
				c0.3-0.3,0.5-0.7,0.5-1.2C1156.4,267.5,1156.4,266.6,1156.4,265.7z"/>
			<path class="st1" d="M1176.6,257.9l21.2,15.6l-6,0l-18.7-13.7h-5.8v13.7h-3.4v-31.1h3.4v13.7h5.8l18.7-13.7l6.1,0L1176.6,257.9z"
				/>
			<path class="st1" d="M1233.6,268.6c-0.1,2.8-2.2,5-4.8,5.2c-4.1,0.2-8.3,0.3-12.4,0.3s-8.3-0.1-12.4-0.3
				c-2.6-0.1-4.7-2.4-4.8-5.2c-0.3-7.1-0.3-14.2,0-21.4c0.1-2.8,2.2-5,4.8-5.2c4.1-0.2,8.3-0.3,12.4-0.3s8.3,0.1,12.4,0.3
				c2.6,0.1,4.7,2.4,4.8,5.2C1234,254.3,1234,261.5,1233.6,268.6z M1230.2,247.4c0-0.4-0.2-0.9-0.5-1.2c-0.3-0.3-0.7-0.5-1.1-0.5
				c-4.1-0.2-8.2-0.3-12.3-0.3c-4.1,0-8.2,0.1-12.3,0.3c-0.4,0-0.8,0.2-1.1,0.5c-0.3,0.3-0.5,0.7-0.5,1.2c-0.3,7-0.3,14,0,21
				c0,0.4,0.2,0.9,0.5,1.2c0.3,0.3,0.7,0.5,1.1,0.5c4.1,0.2,8.2,0.3,12.3,0.3c4.1,0,8.2-0.1,12.3-0.3c0.4,0,0.8-0.2,1.1-0.5
				c0.3-0.3,0.5-0.7,0.5-1.2C1230.6,261.4,1230.6,254.4,1230.2,247.4z"/>
			<path class="st1" d="M1242.1,246v10.1h23.7v3.7h-23.7v10.1h23.7v3.7h-27.1v-31.1h27.1v3.7H1242.1z"/>
			<path class="st1" d="M782.9,295.7v31.1h-3.4v-13.7h-27.1v13.7H749v-31.1h3.4v13.7h27.1v-13.7H782.9z"/>
			<path class="st1" d="M819.4,326.9h-3.7l-2.9-6.7h-20.7l-2.9,6.7h-3.7l13.2-31.1h7.5L819.4,326.9z M811.3,316.5l-7.3-17.1h-3.1
				l-7.3,17.1H811.3z"/>
			<path class="st1" d="M853.9,309.4c0.7,0.9,1.2,2.1,1.3,3.3v9.2c-0.1,2.8-2.2,5-4.8,5.2c-4.1,0.2-8.2,0.3-12.3,0.3
				c-4.1,0-8.3-0.1-12.4-0.3c-2.6-0.1-4.7-2.4-4.8-5.2c0-1-0.1-1.9-0.1-2.9h3.4c0,0.9,0.1,1.8,0.1,2.7c0,0.4,0.2,0.9,0.5,1.2
				c0.3,0.3,0.7,0.5,1.1,0.5c4.1,0.2,8.2,0.3,12.3,0.3c4.1,0,8.1-0.1,12.1-0.3c0.4,0,0.8-0.2,1.1-0.5c0.3-0.3,0.5-0.7,0.5-1.2l0-8.9
				c0-0.4-0.2-0.9-0.5-1.2c-0.3-0.3-0.7-0.5-1.1-0.5l-18.4,0.1v-3.7h18.4c0.4,0,0.8-0.2,1.1-0.5c0.3-0.3,0.5-0.7,0.5-1.2l0-5.1
				c0-0.4-0.2-0.9-0.5-1.2c-0.3-0.3-0.7-0.5-1.1-0.5c-4.1-0.2-8.1-0.3-12.1-0.3s-8.2,0.1-12.3,0.3c-0.4,0-0.8,0.2-1.1,0.5
				c-0.3,0.3-0.5,0.7-0.5,1.2c0,0.9-0.1,1.8-0.1,2.7h-3.4c0-1,0.1-1.9,0.1-2.9c0.1-2.8,2.2-5,4.8-5.2c4.1-0.2,8.3-0.3,12.4-0.3
				c4.1,0,8.2,0.1,12.3,0.3c2.6,0.1,4.7,2.4,4.8,5.2l0,5.5C855.1,307.4,854.6,308.5,853.9,309.4z"/>
			<path class="st1" d="M893.9,312.8l0,9c-0.1,2.8-2.2,5-4.8,5.2H860v-31.1h27c2.6,0.1,4.6,2.4,4.8,5.2l0,5.2c0,0.8-0.2,1.5-0.5,2.1
				C892.8,309.1,893.8,310.8,893.9,312.8z M863.4,307.6h23.5c0.4,0,0.8-0.2,1.1-0.5c0.3-0.3,0.5-0.7,0.5-1.2l0-4.8
				c0-0.4-0.2-0.9-0.5-1.2c-0.3-0.3-0.7-0.5-1.1-0.5h-23.4V307.6z M890.5,312.9c0-0.4-0.2-0.9-0.5-1.2c-0.3-0.3-0.7-0.5-1.1-0.5
				l-25.6,0.1v11.9H889c0.4,0,0.8-0.2,1.1-0.5c0.3-0.3,0.5-0.7,0.5-1.2L890.5,312.9z"/>
			<path class="st1" d="M929.6,326.9h-3.7l-2.9-6.7h-20.7l-2.9,6.7h-3.7l13.2-31.1h7.5L929.6,326.9z M921.4,316.5l-7.3-17.1H911
				l-7.3,17.1H921.4z"/>
			<path class="st1" d="M966.1,295.7v31.1h-3.4v-13.7h-27.1v13.7h-3.4v-31.1h3.4v13.7h27.1v-13.7H966.1z"/>
			<path class="st1" d="M1005.2,295.7v31.1h-3.4v-27.5h-1l-23.5,27.5h-6v-31.1h3.4v27.5h1.1l23.4-27.5H1005.2z"/>
			<path class="st1" d="M1013.9,299.4v10.1h23.7v3.7h-23.7v10.1h23.7v3.7h-27.1v-31.1h27.1v3.7H1013.9z"/>
		</g>
		<g id="название">
			<path class="st25" d="M754,404.9l25.9,0v2.8h-28.8v-6.6c0.1-2.1,1.9-3.8,4.1-3.9l20.5,0c0.3,0,0.7-0.2,0.9-0.4
				c0.2-0.2,0.4-0.6,0.4-0.9l0-6.1c0-0.7-0.1-1.4-0.1-2.1c0-0.3-0.2-0.7-0.4-0.9c-0.2-0.2-0.6-0.4-0.9-0.4
				c-3.5-0.2-6.6-0.2-10.1-0.2c-3.5,0-6.6,0.1-10.1,0.2c-0.3,0-0.7,0.2-0.9,0.4c-0.2,0.2-0.4,0.6-0.4,0.9c0,0.7-0.1,1.4-0.1,2.1
				h-2.9c0-0.7,0.1-1.5,0.1-2.2c0.1-2.1,1.9-3.8,4.1-3.9c3.5-0.2,6.7-0.2,10.2-0.2c3.5,0,6.7,0.1,10.2,0.2c2.2,0.1,4,1.8,4.1,3.9
				c0,0.7,0.1,1.5,0.1,2.2l0,6.2c-0.1,2.1-1.9,3.8-4.1,3.9l-20.5,0c-0.3,0-0.7,0.2-0.9,0.4c-0.2,0.2-0.4,0.6-0.4,0.9V404.9z"/>
			<path class="st25" d="M783.4,397.8V395h8.6v2.8H783.4z"/>
			<path class="st25" d="M822.3,407.8h-3.2l-2.4-5.1h-17.6l-2.4,5.1h-3.2l11.2-23.8h6.3L822.3,407.8z M815.4,399.9l-6.2-13.1h-2.6
				l-6.2,13.1H815.4z"/>
			<path class="st25" d="M858,384v23.8h-2.9v-21h-0.5l-11.4,21h-2.8l-11.4-21h-0.5v21h-2.9V384h5.1l11.1,20.4l11.1-20.4v0H858z"/>
			<path class="st25" d="M892.3,384v23.8h-2.9v-21h-0.8l-20,21h-5.1V384h2.9v21h1l19.9-21H892.3z"/>
			<path class="st25" d="M926.6,384v23.8h-2.9v-10.5h-23v10.5h-2.9V384h2.9v10.5h23V384H926.6z"/>
			<path class="st25" d="M961.5,404.1c-0.1,2.1-1.9,3.8-4.1,3.9c-3.5,0.2-7,0.2-10.6,0.2c-3.5,0-7-0.1-10.6-0.2
				c-2.2-0.1-4-1.8-4.1-3.9c-0.3-5.4-0.3-10.9,0-16.3c0.1-2.1,1.9-3.8,4.1-3.9c3.5-0.2,7-0.2,10.6-0.2c3.5,0,7,0.1,10.6,0.2
				c2.2,0.1,4,1.8,4.1,3.9C961.7,393.2,961.7,398.6,961.5,404.1z M958.6,387.9c0-0.3-0.2-0.7-0.4-0.9c-0.2-0.2-0.6-0.4-0.9-0.4
				c-3.5-0.2-7-0.2-10.4-0.2c-3.5,0-7,0.1-10.4,0.2c-0.3,0-0.7,0.2-0.9,0.4c-0.2,0.2-0.4,0.6-0.4,0.9c-0.3,5.3-0.3,10.7,0,16
				c0,0.3,0.2,0.7,0.4,0.9c0.2,0.2,0.6,0.4,0.9,0.4c3.5,0.2,7,0.2,10.4,0.2c3.5,0,7-0.1,10.4-0.2c0.3,0,0.7-0.2,0.9-0.4
				c0.2-0.2,0.4-0.6,0.4-0.9C958.9,398.6,958.9,393.2,958.6,387.9z"/>
			<path class="st25" d="M965.2,397.8V395h8.6v2.8H965.2z"/>
			<path class="st25" d="M980.2,386.3v5.1c0.4-0.1,0.8-0.2,1.2-0.2h20.7c2.2,0.1,4,1.8,4.1,3.9l0,6.2c0,0.7-0.1,1.5-0.1,2.2
				c-0.1,2.1-1.9,3.8-4.1,3.9c-3.5,0.2-6.7,0.2-10.2,0.2s-6.7-0.1-10.2-0.2c-2.2-0.1-4-1.8-4.1-3.9c0-0.7-0.1-1.5-0.1-2.2h2.9
				c0,0.7,0.1,1.4,0.1,2.1c0,0.3,0.2,0.7,0.4,0.9s0.6,0.4,0.9,0.4c3.5,0.2,6.6,0.2,10.1,0.2c3.5,0,6.6-0.1,10.1-0.2
				c0.3,0,0.7-0.2,0.9-0.4s0.4-0.6,0.4-0.9c0-0.7,0.1-1.4,0.1-2.1l0-6.1c0-0.3-0.2-0.7-0.4-0.9c-0.2-0.2-0.6-0.4-0.9-0.4h-20.4
				c-0.3,0-0.7,0.2-0.9,0.4c-0.2,0.2-0.4,0.6-0.4,0.9h-2.9v-11.8h28.8v2.8L980.2,386.3z"/>
			<path class="st25" d="M1009.6,397.8V395h8.6v2.8H1009.6z"/>
			<path class="st25" d="M754.3,444.6c0,0.3,0.2,0.7,0.4,0.9s0.6,0.4,0.9,0.4v2.8h-0.1c-2.2-0.1-4-1.8-4.1-3.9v-16.3
				c0.1-2.1,1.9-3.8,4.1-3.9h0.1v2.8c-0.3,0-0.7,0.2-0.9,0.4c-0.2,0.2-0.4,0.6-0.4,0.9V444.6z"/>
			<path class="st25" d="M790.2,445.8h1.8v2.8h-32.4v-2.8h1.8v-17.1c0.1-2.1,1.9-3.8,4.1-3.9h24.7V445.8z M787.3,445.8v-18.2h-21.7
				c-0.3,0-0.7,0.2-0.9,0.4c-0.2,0.2-0.4,0.6-0.4,0.9v16.9H787.3z"/>
			<path class="st25" d="M825.2,424.8v23.8h-2.9v-21h-0.8l-20,21h-5.1v-23.8h2.9v21h1l19.9-21H825.2z"/>
			<path class="st25" d="M857.2,448.6h-3.2l-2.4-5.1H834l-2.4,5.1h-3.2l11.2-23.8h6.3L857.2,448.6z M850.3,440.7l-6.2-13.1h-2.6
				l-6.2,13.1H850.3z"/>
			<path class="st25" d="M892.9,424.8v23.8H890v-21h-0.5l-11.4,21h-2.8l-11.4-21h-0.5v21h-2.9v-23.8h5.1l11.1,20.4l11.1-20.4v0
				H892.9z"/>
			<path class="st25" d="M927.2,424.8v23.8h-2.9v-21h-0.8l-20,21h-5.1v-23.8h2.9v21h1l19.9-21H927.2z"/>
			<path class="st25" d="M961.6,424.8v23.8h-2.9v-10.5h-23v10.5h-2.9v-23.8h2.9v10.5h23v-10.5H961.6z"/>
			<path class="st25" d="M996.4,444.9c-0.1,2.1-1.9,3.8-4.1,3.9c-3.5,0.2-7,0.2-10.6,0.2c-3.5,0-7-0.1-10.6-0.2
				c-2.2-0.1-4-1.8-4.1-3.9c-0.3-5.4-0.3-10.9,0-16.3c0.1-2.1,1.9-3.8,4.1-3.9c3.5-0.2,7-0.2,10.6-0.2c3.5,0,7,0.1,10.6,0.2
				c2.2,0.1,4,1.8,4.1,3.9C996.7,434,996.7,439.4,996.4,444.9z M993.5,428.7c0-0.3-0.2-0.7-0.4-0.9c-0.2-0.2-0.6-0.4-0.9-0.4
				c-3.5-0.2-7-0.2-10.4-0.2c-3.5,0-7,0.1-10.4,0.2c-0.3,0-0.7,0.2-0.9,0.4c-0.2,0.2-0.4,0.6-0.4,0.9c-0.3,5.3-0.3,10.7,0,16
				c0,0.3,0.2,0.7,0.4,0.9c0.2,0.2,0.6,0.4,0.9,0.4c3.5,0.2,7,0.2,10.4,0.2c3.5,0,7-0.1,10.4-0.2c0.3,0,0.7-0.2,0.9-0.4
				c0.2-0.2,0.4-0.6,0.4-0.9C993.8,439.4,993.8,434,993.5,428.7z"/>
			<path class="st25" d="M1034.3,424.8v23.8h-2.9v-21h-0.5l-11.4,21h-2.8l-11.4-21h-0.5v21h-2.9v-23.8h5.1l11.1,20.4l11.1-20.4v0
				H1034.3z"/>
			<path class="st25" d="M1042.8,427.6v7.7h20.2v2.8h-20.2v7.7h20.2v2.8h-23v-23.8h23v2.8H1042.8z"/>
			<path class="st25" d="M1088.4,424.8v2.8h-10.1v21h-2.9v-21h-10.1v-2.8H1088.4z"/>
			<path class="st25" d="M1120.5,424.8v23.8h-2.9v-21h-0.8l-20,21h-5.1v-23.8h2.9v21h1l19.9-21H1120.5z"/>
			<path class="st25" d="M1155.4,424.8v23.8h-2.9v-21h-20.3l-1.4,0c-0.3,0-0.7,0.2-0.9,0.4c-0.2,0.2-0.4,0.6-0.4,0.9l0,3.6v2.4
				l0,9.8c-0.1,2.1-1.9,3.8-4.1,3.9h-0.6v-2.8h0.5c0.3,0,0.7-0.2,0.9-0.4c0.2-0.2,0.4-0.6,0.4-0.9V437h0v-8.3
				c0.1-2.1,1.9-3.8,4.1-3.9H1155.4z"/>
			<path class="st25" d="M1189.8,424.8v23.8h-2.9v-21h-0.8l-20,21h-5.1v-23.8h2.9v21h1l19.9-21H1189.8z"/>
			<path class="st25" d="M1224.7,445.8h1.8v2.8h-32.4v-2.8h1.8v-17.1c0.1-2.1,1.9-3.8,4.1-3.9h24.7V445.8z M1221.8,445.8v-18.2
				h-21.7c-0.3,0-0.7,0.2-0.9,0.4c-0.2,0.2-0.4,0.6-0.4,0.9v16.9H1221.8z"/>
			<path class="st25" d="M1233.8,427.6v7.7h20.2v2.8h-20.2v7.7h20.2v2.8h-23v-23.8h23v2.8H1233.8z"/>
			<path class="st25" d="M1287.4,424.8v23.8h-2.9v-10.5h-23v10.5h-2.9v-23.8h2.9v10.5h23v-10.5H1287.4z"/>
			<path class="st25" d="M1319.5,448.6h-3.2l-2.4-5.1h-17.6l-2.4,5.1h-3.2l11.2-23.8h6.3L1319.5,448.6z M1312.5,440.7l-6.2-13.1
				h-2.6l-6.2,13.1H1312.5z"/>
			<path class="st25" d="M1355.1,424.8v23.8h-2.9v-21h-0.5l-11.4,21h-2.8l-11.4-21h-0.5v21h-2.9v-23.8h5.1l11.1,20.4l11.1-20.4v0
				H1355.1z"/>
			<path class="st25" d="M1389.5,424.8v23.8h-2.9v-21h-0.8l-20,21h-5.1v-23.8h2.9v21h1l19.9-21H1389.5z"/>
			<path class="st25" d="M1423.8,424.8v23.8h-2.9v-10.5h-23v10.5h-2.9v-23.8h2.9v10.5h23v-10.5H1423.8z"/>
			<path class="st25" d="M1458.6,444.9c-0.1,2.1-1.9,3.8-4.1,3.9c-3.5,0.2-7,0.2-10.6,0.2c-3.5,0-7-0.1-10.6-0.2
				c-2.2-0.1-4-1.8-4.1-3.9c-0.3-5.4-0.3-10.9,0-16.3c0.1-2.1,1.9-3.8,4.1-3.9c3.5-0.2,7-0.2,10.6-0.2c3.5,0,7,0.1,10.6,0.2
				c2.2,0.1,4,1.8,4.1,3.9C1458.9,434,1458.9,439.4,1458.6,444.9z M1455.7,428.7c0-0.3-0.2-0.7-0.4-0.9c-0.2-0.2-0.6-0.4-0.9-0.4
				c-3.5-0.2-7-0.2-10.4-0.2c-3.5,0-7,0.1-10.4,0.2c-0.3,0-0.7,0.2-0.9,0.4c-0.2,0.2-0.4,0.6-0.4,0.9c-0.3,5.3-0.3,10.7,0,16
				c0,0.3,0.2,0.7,0.4,0.9c0.2,0.2,0.6,0.4,0.9,0.4c3.5,0.2,7,0.2,10.4,0.2c3.5,0,7-0.1,10.4-0.2c0.3,0,0.7-0.2,0.9-0.4
				c0.2-0.2,0.4-0.6,0.4-0.9C1456,439.4,1456,434,1455.7,428.7z"/>
			<path class="st25" d="M1467.4,444.8c-0.1,2.1-1.9,3.8-4.1,3.9h-0.1v-2.8c0.3,0,0.7-0.2,0.9-0.4s0.4-0.6,0.4-0.9v-16
				c0-0.3-0.2-0.7-0.4-0.9c-0.2-0.2-0.6-0.4-0.9-0.4v-2.8h0.1c2.2,0.1,4,1.8,4.1,3.9V444.8z"/>
			<path class="st25" d="M780.3,465.6v23.8h-2.9v-21h-23v21h-2.9v-21h0v-2.8H780.3z"/>
			<path class="st25" d="M788.7,468.4v7.7h20.2v2.8h-20.2v7.7h20.2v2.8h-23v-23.8h23v2.8H788.7z"/>
			<path class="st25" d="M842.3,465.6v23.8h-2.9v-10.5h-23v10.5h-2.9v-23.8h2.9v10.5h23v-10.5H842.3z"/>
			<path class="st25" d="M868.6,465.6v2.8h-10.1v21h-2.9v-21h-10.1v-2.8H868.6z"/>
			<path class="st25" d="M894.6,489.4h-3.2l-2.4-5.1h-17.6l-2.4,5.1h-3.2l11.2-23.8h6.3L894.6,489.4z M887.7,481.5l-6.2-13.1h-2.6
				l-6.2,13.1H887.7z"/>
			<path class="st25" d="M926.7,465.6v23.8h-2.9v-10.5h-23v10.5h-2.9v-23.8h2.9v10.5h23v-10.5H926.7z"/>
			<path class="st25" d="M961.5,485.7c-0.1,2.1-1.9,3.8-4.1,3.9c-3.5,0.2-7,0.2-10.6,0.2c-3.5,0-7-0.1-10.6-0.2
				c-2.2-0.1-4-1.8-4.1-3.9c-0.3-5.4-0.3-10.9,0-16.3c0.1-2.1,1.9-3.8,4.1-3.9c3.5-0.2,7-0.2,10.6-0.2c3.5,0,7,0.1,10.6,0.2
				c2.2,0.1,4,1.8,4.1,3.9C961.8,474.8,961.8,480.2,961.5,485.7z M958.6,469.5c0-0.3-0.2-0.7-0.4-0.9c-0.2-0.2-0.6-0.4-0.9-0.4
				c-3.5-0.2-7-0.2-10.4-0.2c-3.5,0-7,0.1-10.4,0.2c-0.3,0-0.7,0.2-0.9,0.4c-0.2,0.2-0.4,0.6-0.4,0.9c-0.3,5.3-0.3,10.7,0,16
				c0,0.3,0.2,0.7,0.4,0.9c0.2,0.2,0.6,0.4,0.9,0.4c3.5,0.2,7,0.2,10.4,0.2c3.5,0,7-0.1,10.4-0.2c0.3,0,0.7-0.2,0.9-0.4
				c0.2-0.2,0.4-0.6,0.4-0.9C958.9,480.2,958.9,474.8,958.6,469.5z"/>
			<path class="st25" d="M995.7,478.6l0,6.8c-0.1,2.1-1.9,3.8-4,3.9h-24.8v-23.8h22.9c2.2,0.1,3.9,1.8,4,3.9l0,4
				c0,0.6-0.2,1.1-0.4,1.6C994.7,475.8,995.6,477.1,995.7,478.6z M969.7,474.7h19.9c0.3,0,0.7-0.2,0.9-0.4c0.2-0.2,0.4-0.6,0.4-0.9
				l0-3.7c0-0.3-0.2-0.6-0.4-0.9c-0.2-0.2-0.6-0.4-0.9-0.4h-19.9V474.7z M992.8,478.8c0-0.3-0.2-0.7-0.4-0.9
				c-0.2-0.2-0.6-0.4-0.9-0.4l-21.7,0v9.1h21.7c0.3,0,0.7-0.2,0.9-0.4c0.2-0.2,0.4-0.6,0.4-0.9L992.8,478.8z"/>
			<path class="st25" d="M1027,489.4h-3.2l-2.4-5.1h-17.6l-2.4,5.1h-3.2l11.2-23.8h6.3L1027,489.4z M1020.1,481.5l-6.2-13.1h-2.6
				l-6.2,13.1H1020.1z"/>
			<path class="st25" d="M1057.3,465.6v23.8h-2.9v-9.1h-7.1l-13.7,9.1l-5.1,0l13.7-9.1h-7.8c-2.2-0.1-4-1.8-4.1-3.9l0-6.8
				c0.1-2.1,1.9-3.8,4-3.9H1057.3z M1054.4,468.4h-19.9c-0.3,0-0.7,0.2-0.9,0.4c-0.2,0.2-0.4,0.6-0.4,0.9l0,6.6
				c0,0.3,0.2,0.7,0.4,0.9c0.2,0.2,0.6,0.4,0.9,0.4l19.9,0V468.4z"/>
			<path class="st25" d="M1089.1,477.5l18,11.9l-5.1,0l-15.9-10.5h-4.9v10.5h-2.9v-23.8h2.9v10.5h4.9l15.9-10.5l5.2,0L1089.1,477.5z
				"/>
			<path class="st25" d="M1139.1,465.6v23.8h-2.9v-21h-0.8l-20,21h-5.1v-23.8h2.9v21h1l19.9-21H1139.1z"/>
			<path class="st25" d="M1171.1,483.5h2.9c0,0.7-0.1,1.5-0.1,2.2c-0.1,2.1-1.9,3.8-4.1,3.9c-3.5,0.2-7,0.2-10.6,0.2
				c-3.5,0-7-0.1-10.6-0.2c-2.2-0.1-4-1.8-4.1-3.9c-0.3-5.4-0.3-10.9,0-16.3c0.1-2.1,1.9-3.8,4.1-3.9c3.5-0.2,7-0.2,10.6-0.2
				c3.5,0,7,0.1,10.6,0.2c2.2,0.1,4,1.8,4.1,3.9c0,0.7,0.1,1.5,0.1,2.2h-2.9c0-0.7-0.1-1.4-0.1-2.1c0-0.3-0.2-0.7-0.4-0.9
				c-0.2-0.2-0.6-0.4-0.9-0.4c-3.5-0.2-7-0.2-10.4-0.2c-3.5,0-7,0.1-10.4,0.2c-0.3,0-0.7,0.2-0.9,0.4c-0.2,0.2-0.4,0.6-0.4,0.9
				c-0.3,5.3-0.3,10.7,0,16c0,0.3,0.2,0.7,0.4,0.9c0.2,0.2,0.6,0.4,0.9,0.4c3.5,0.2,7,0.2,10.4,0.2c3.5,0,7-0.1,10.4-0.2
				c0.3,0,0.7-0.2,0.9-0.4c0.2-0.2,0.4-0.6,0.4-0.9C1171,484.8,1171.1,484.2,1171.1,483.5z"/>
			<path class="st25" d="M1207.8,465.6v23.8h-2.9v-21h-20.3l-1.4,0c-0.3,0-0.7,0.2-0.9,0.4c-0.2,0.2-0.4,0.6-0.4,0.9l0,3.6v2.4
				l0,9.8c-0.1,2.1-1.9,3.8-4.1,3.9h-0.6v-2.8h0.5c0.3,0,0.7-0.2,0.9-0.4c0.2-0.2,0.4-0.6,0.4-0.9v-7.5h0v-8.3
				c0.1-2.1,1.9-3.8,4.1-3.9H1207.8z"/>
			<path class="st25" d="M1242.6,485.7c-0.1,2.1-1.9,3.8-4.1,3.9c-3.5,0.2-7,0.2-10.6,0.2c-3.5,0-7-0.1-10.6-0.2
				c-2.2-0.1-4-1.8-4.1-3.9c-0.3-5.4-0.3-10.9,0-16.3c0.1-2.1,1.9-3.8,4.1-3.9c3.5-0.2,7-0.2,10.6-0.2c3.5,0,7,0.1,10.6,0.2
				c2.2,0.1,4,1.8,4.1,3.9C1242.9,474.8,1242.9,480.2,1242.6,485.7z M1239.8,469.5c0-0.3-0.2-0.7-0.4-0.9c-0.2-0.2-0.6-0.4-0.9-0.4
				c-3.5-0.2-7-0.2-10.4-0.2c-3.5,0-7,0.1-10.4,0.2c-0.3,0-0.7,0.2-0.9,0.4c-0.2,0.2-0.4,0.6-0.4,0.9c-0.3,5.3-0.3,10.7,0,16
				c0,0.3,0.2,0.7,0.4,0.9c0.2,0.2,0.6,0.4,0.9,0.4c3.5,0.2,7,0.2,10.4,0.2c3.5,0,7-0.1,10.4-0.2c0.3,0,0.7-0.2,0.9-0.4
				c0.2-0.2,0.4-0.6,0.4-0.9C1240,480.2,1240,474.8,1239.8,469.5z"/>
			<path class="st25" d="M1269,465.6v2.8h-10.1v21h-2.9v-21H1246v-2.8H1269z"/>
			<path class="st25" d="M1295,489.4h-3.2l-2.4-5.1h-17.6l-2.4,5.1h-3.2l11.2-23.8h6.3L1295,489.4z M1288.1,481.5l-6.2-13.1h-2.6
				l-6.2,13.1H1288.1z"/>
		</g>
	</g>
	<g id="хим_формула">
		
			<linearGradient id="SVGID_00000141449833497944219680000008030810906125330306_" gradientUnits="userSpaceOnUse" x1="703" y1="638.1417" x2="1870" y2="638.1417">
			<stop  offset="0" style="stop-color:#FF0000"/>
			<stop  offset="1" style="stop-color:#22B573"/>
		</linearGradient>
		
			<rect x="704" y="524.5" style="fill:none;stroke:url(#SVGID_00000141449833497944219680000008030810906125330306_);stroke-width:2;stroke-miterlimit:10;" width="1165" height="227.3"/>
		<g id="хим_формула_00000120539164979308413150000000706179527204026262_">
			<path class="st1" d="M854.4,582.2l22,18.7h-6.9L851,585.2l-18.6,15.8h-6.9l22-18.7l-22-18.7h6.9l18.6,15.8l18.6-15.8h6.9
				L854.4,582.2z"/>
			<path class="st1" d="M926.8,563.6v37.4h-4.5v-33H921l-31.4,33h-8v-37.4h4.5v33h1.5l31.2-33H926.8z"/>
			<path class="st1" d="M986.4,563.6v37.4h-4.5v-33h-0.8l-17.9,33h-4.5l-17.9-33H940v33h-4.5v-37.4h8l17.4,32.1l17.4-32.1v0H986.4z"
				/>
			<path class="st1" d="M1040.4,563.6v37.4h-4.5v-33h-1.3l-31.4,33h-8v-37.4h4.5v33h1.5l31.2-33H1040.4z"/>
			<path class="st1" d="M1083.3,584l0,16.9h-4.6v-16.5h-25.2c-3.4-0.2-6.2-2.8-6.4-6.2l0-14.7h4.5l0,14.5c0,0.5,0.3,1,0.6,1.4
				c0.4,0.4,0.9,0.6,1.4,0.6h25.1v-16.5h4.5L1083.3,584z"/>
			<path class="st1" d="M1096.6,568V580h31.7v4.4h-31.7v12.1h31.7v4.4h-36.2v-37.4h36.2v4.4H1096.6z"/>
			<path class="st1" d="M1177.2,591.6h4.5c0,1.2-0.1,2.3-0.2,3.5c-0.2,3.4-2.9,6-6.4,6.2c-5.5,0.2-11.1,0.4-16.6,0.4
				s-11.1-0.1-16.6-0.4c-3.4-0.2-6.2-2.8-6.4-6.2c-0.4-8.5-0.4-17.1,0-25.6c0.2-3.3,2.9-6,6.4-6.2c5.5-0.2,11.1-0.4,16.6-0.4
				c5.5,0,11.1,0.1,16.6,0.4c3.4,0.2,6.2,2.8,6.4,6.2c0.1,1.2,0.1,2.3,0.2,3.5h-4.5c0-1.1-0.1-2.2-0.1-3.3c0-0.5-0.3-1-0.6-1.4
				c-0.4-0.4-0.9-0.6-1.4-0.6c-5.4-0.2-11-0.4-16.4-0.4c-5.4,0-11,0.1-16.4,0.4c-0.5,0-1.1,0.2-1.4,0.6c-0.4,0.4-0.6,0.9-0.6,1.4
				c-0.4,8.4-0.4,16.8,0,25.2c0,0.5,0.3,1,0.6,1.4c0.4,0.4,0.9,0.6,1.4,0.6c5.4,0.2,11,0.4,16.4,0.4c5.4,0,11-0.1,16.4-0.4
				c0.5,0,1.1-0.2,1.4-0.6c0.4-0.4,0.6-0.9,0.6-1.4C1177.1,593.8,1177.2,592.7,1177.2,591.6z"/>
			<path class="st1" d="M1205.7,582.2l28.3,18.7l-8,0l-24.9-16.5h-7.7v16.5h-4.5v-37.4h4.5V580h7.7l24.9-16.5l8.1,0L1205.7,582.2z"
				/>
			<path class="st1" d="M1280.7,600.9h-5l-3.8-8.1h-27.7l-3.8,8.1h-5l17.6-37.4h10L1280.7,600.9z M1269.8,588.5l-9.7-20.5h-4.2
				l-9.7,20.5H1269.8z"/>
			<path class="st1" d="M1328.2,563.6v37.4h-4.5v-14.2h-11.2l-21.5,14.2l-8,0l21.5-14.2h-12.3c-3.4-0.2-6.2-2.8-6.4-6.2l0-10.8
				c0.2-3.4,2.9-6,6.4-6.2H1328.2z M1323.7,567.9h-31.3c-0.5,0-1.1,0.2-1.4,0.6c-0.4,0.4-0.6,0.9-0.6,1.4l0,10.3
				c0,0.5,0.3,1,0.6,1.4c0.4,0.4,0.9,0.6,1.4,0.6l31.3-0.1V567.9z"/>
			<path class="st1" d="M1410.5,572.5l0,10.8c-0.2,3.4-2.9,6-6.4,6.2h-16.8v11.5h-4.5v-11.5H1366c-3.4-0.2-6.2-2.9-6.4-6.2l0-10.8
				c0.2-3.3,2.9-6,6.4-6.2v0h16.8v-2.7h4.5v2.7h16.8v0C1407.6,566.5,1410.3,569.1,1410.5,572.5z M1382.8,585.1v-14.3l-16.6,0
				c-0.5,0-1,0.2-1.4,0.6c-0.4,0.4-0.6,0.9-0.6,1.4l0,10.3c0,0.5,0.2,1,0.6,1.4c0.4,0.4,0.9,0.6,1.4,0.6H1382.8z M1406,572.7
				c0-0.5-0.3-1-0.6-1.4c-0.4-0.4-0.9-0.6-1.4-0.6l-16.6,0.1v14.3h16.6c0.5,0,1.1-0.2,1.4-0.6c0.4-0.4,0.6-0.9,0.6-1.4L1406,572.7z"
				/>
			<path class="st1" d="M1463.6,595.1c-0.2,3.4-2.9,6-6.4,6.2c-5.5,0.2-11.1,0.4-16.6,0.4c-5.5,0-11.1-0.1-16.6-0.4
				c-3.4-0.2-6.2-2.8-6.4-6.2c-0.4-8.5-0.4-17.1,0-25.6c0.2-3.3,2.9-6,6.4-6.2c5.5-0.2,11.1-0.4,16.6-0.4c5.5,0,11.1,0.1,16.6,0.4
				c3.4,0.2,6.2,2.8,6.4,6.2C1464,578,1464,586.5,1463.6,595.1z M1459,569.6c0-0.5-0.3-1-0.6-1.4c-0.4-0.4-0.9-0.6-1.4-0.6
				c-5.4-0.2-11-0.4-16.4-0.4c-5.4,0-11,0.1-16.4,0.4c-0.5,0-1.1,0.2-1.4,0.6c-0.4,0.4-0.6,0.9-0.6,1.4c-0.4,8.4-0.4,16.8,0,25.2
				c0,0.5,0.3,1,0.6,1.4c0.4,0.4,0.9,0.6,1.4,0.6c5.4,0.2,11,0.4,16.4,0.4c5.4,0,11-0.1,16.4-0.4c0.5,0,1.1-0.2,1.4-0.6
				c0.4-0.4,0.6-0.9,0.6-1.4C1459.5,586.5,1459.5,578,1459,569.6z"/>
			<path class="st1" d="M1517.3,580.5c-0.2,3.3-2.9,6-6.4,6.2h-34.3v14.2h-4.5v-37.4h38.9c3.4,0.2,6.2,2.9,6.4,6.2L1517.3,580.5z
				 M1512.8,580.3l0-10.3c0-0.5-0.2-1-0.6-1.4c-0.4-0.4-0.9-0.6-1.4-0.6h-34.1v14.3l34.1,0.1c0.5,0,1.1-0.2,1.4-0.6
				C1512.5,581.3,1512.7,580.8,1512.8,580.3z"/>
			<path class="st1" d="M1575.1,563.6v37.4h-4.5v-33h-0.8l-17.9,33h-4.5l-17.9-33h-0.8v33h-4.5v-37.4h8l17.4,32.1l17.4-32.1v0
				H1575.1z"/>
			<path class="st1" d="M1628.4,563.6l0,20.5c0,3-0.2,7.4-0.3,10.3c-0.2,3.3-2.9,6-6.4,6.2c-5.5,0.2-11.1,0.4-16.6,0.4
				s-9.9-0.1-15.5-0.4c-3.4-0.2-6.2-2.8-6.4-6.2c-0.1-1.2-0.1-2.3-0.2-3.5h4.5c0,1.1,0.1,2.2,0.1,3.2c0,0.5,0.3,1,0.6,1.4
				c0.4,0.4,0.9,0.6,1.4,0.6c5.4,0.2,9.8,0.4,15.3,0.4c5.4,0,11-0.1,16.4-0.4c0.5,0,1.1-0.2,1.4-0.6c0.4-0.4,0.6-0.9,0.6-1.4
				c0.1-2.3,0.2-6.6,0.3-9.7h-34.3c-3.4-0.2-6.2-2.8-6.4-6.2l0-14.7h4.5l0,14.5c0,0.5,0.3,1,0.6,1.4c0.4,0.4,0.9,0.6,1.4,0.6h34.1
				v-16.5H1628.4z"/>
			<path class="st1" d="M1682.6,563.6v37.4h-4.5v-33h-31.9l-2.2,0c-0.5,0-1.1,0.2-1.4,0.6c-0.4,0.4-0.6,0.9-0.6,1.4l0,5.6v3.7
				l0,15.5c-0.2,3.3-2.9,6-6.4,6.2h-1v-4.4h0.8c0.5,0,1.1-0.2,1.4-0.6c0.4-0.4,0.6-0.9,0.6-1.4v-11.8h0v-13c0.2-3.3,2.9-6,6.4-6.2
				H1682.6z"/>
			<path class="st1" d="M1733,600.9h-5l-3.8-8.1h-27.7l-3.8,8.1h-5l17.6-37.4h10L1733,600.9z M1722.1,588.5l-9.7-20.5h-4.2
				l-9.7,20.5H1722.1z"/>
		</g>
		<g id="формула" class="st27">
			<path class="st1" d="M803.9,683.1c0,0.4,0.2,0.8,0.5,1.1c0.3,0.3,0.7,0.5,1.2,0.5v3.6h-0.2c-2.8-0.1-5.1-2.3-5.2-5.1v-21
				c0.1-2.7,2.4-4.9,5.2-5.1h0.2v3.6c-0.4,0-0.9,0.2-1.2,0.5c-0.3,0.3-0.5,0.7-0.5,1.1L803.9,683.1z"/>
			<path class="st1" d="M849.2,657.6v30.6h-6.6l-25.7-27h-1.1v27h-3.7v-30.6h6.6l25.5,27h1.2v-27H849.2z"/>
			<path class="st1" d="M893.3,657.6v30.6h-3.7v-13.5H860v13.5h-3.7v-30.6h3.7v13.5h29.6v-13.5H893.3z"/>
			<path class="st1" d="M898.1,675.3v-3.6h11.1v3.6H898.1z"/>
			<path class="st1" d="M948.1,680.5h3.7c0,0.9-0.1,1.9-0.1,2.8c-0.1,2.7-2.4,4.9-5.2,5.1c-4.5,0.2-9.1,0.3-13.6,0.3
				c-4.5,0-9.1-0.1-13.6-0.3c-2.8-0.1-5.1-2.3-5.2-5.1c-0.4-7-0.4-14,0-21c0.1-2.7,2.4-4.9,5.2-5.1c4.5-0.2,9.1-0.3,13.6-0.3
				s9.1,0.1,13.6,0.3c2.8,0.1,5.1,2.3,5.2,5.1c0,0.9,0.1,1.9,0.1,2.8h-3.7c0-0.9-0.1-1.8-0.1-2.7c0-0.4-0.2-0.8-0.5-1.1
				c-0.3-0.3-0.7-0.5-1.2-0.5c-4.5-0.2-9-0.3-13.4-0.3s-9,0.1-13.4,0.3c-0.4,0-0.9,0.2-1.2,0.5c-0.3,0.3-0.5,0.7-0.5,1.1
				c-0.4,6.8-0.4,13.8,0,20.6c0,0.4,0.2,0.8,0.5,1.1c0.3,0.3,0.7,0.5,1.2,0.5c4.5,0.2,9,0.3,13.4,0.3c4.5,0,9-0.1,13.4-0.3
				c0.4,0,0.9-0.2,1.2-0.5c0.3-0.3,0.5-0.7,0.5-1.1C948,682.3,948,681.4,948.1,680.5z"/>
			<path class="st1" d="M961.1,683.1c0,0.4,0.2,0.8,0.5,1.1c0.3,0.3,0.7,0.5,1.2,0.5v3.6h-0.2c-2.8-0.1-5.1-2.3-5.2-5.1v-21
				c0.1-2.7,2.4-4.9,5.2-5.1h0.2v3.6c-0.4,0-0.9,0.2-1.2,0.5c-0.3,0.3-0.5,0.7-0.5,1.1L961.1,683.1z"/>
			<path class="st1" d="M1006.5,657.6v30.6h-6.6l-25.7-27h-1.1v27h-3.7v-30.6h6.6l25.5,27h1.2v-27H1006.5z"/>
			<path class="st1" d="M1050.6,657.6v30.6h-3.7v-13.5h-29.6v13.5h-3.7v-30.6h3.7v13.5h29.6v-13.5H1050.6z"/>
			<path class="st1" d="M1057.2,686.5l14.8,0v1.6h-16.5v-3.7c0.1-1.2,1.1-2.2,2.3-2.2l11.7,0c0.2,0,0.4-0.1,0.5-0.2
				c0.1-0.1,0.2-0.3,0.2-0.5l0-3.5c0-0.4,0-0.8-0.1-1.2c0-0.2-0.1-0.4-0.2-0.5c-0.1-0.1-0.3-0.2-0.5-0.2c-2-0.1-3.8-0.1-5.8-0.1
				c-2,0-3.8,0-5.8,0.1c-0.2,0-0.4,0.1-0.5,0.2c-0.1,0.1-0.2,0.3-0.2,0.5c0,0.4,0,0.8-0.1,1.2h-1.6c0-0.4,0-0.8,0.1-1.3
				c0.1-1.2,1.1-2.2,2.3-2.2c2-0.1,3.8-0.1,5.9-0.1c2,0,3.8,0,5.9,0.1c1.3,0.1,2.3,1,2.3,2.2c0,0.4,0,0.8,0.1,1.3l0,3.6
				c-0.1,1.2-1.1,2.2-2.3,2.2l-11.7,0c-0.2,0-0.4,0.1-0.5,0.2c-0.1,0.1-0.2,0.3-0.2,0.5V686.5z"/>
			<path class="st1" d="M1081.9,683.3c-0.1,2.7-2.4,4.9-5.2,5.1h-0.2v-3.6c0.4,0,0.9-0.2,1.2-0.5c0.3-0.3,0.5-0.7,0.5-1.1v-20.6
				c0-0.4-0.2-0.8-0.5-1.1c-0.3-0.3-0.7-0.5-1.2-0.5v-3.6h0.2c2.8,0.1,5.1,2.3,5.2,5.1V683.3z"/>
			<path class="st1" d="M1126,657.6v30.6h-6.6l-25.7-27h-1.1v27h-3.7v-30.6h6.6l25.5,27h1.2v-27H1126z"/>
			<path class="st1" d="M1170.2,657.6v30.6h-3.7v-13.5h-29.6v13.5h-3.7v-30.6h3.7v13.5h29.6v-13.5H1170.2z"/>
			<path class="st1" d="M1180.9,683.1c0,0.4,0.2,0.8,0.5,1.1c0.3,0.3,0.7,0.5,1.2,0.5v3.6h-0.2c-2.8-0.1-5.1-2.3-5.2-5.1v-21
				c0.1-2.7,2.4-4.9,5.2-5.1h0.2v3.6c-0.4,0-0.9,0.2-1.2,0.5c-0.3,0.3-0.5,0.7-0.5,1.1L1180.9,683.1z"/>
			<path class="st1" d="M1223.3,680.5h3.7c0,0.9-0.1,1.9-0.1,2.8c-0.1,2.7-2.4,4.9-5.2,5.1c-4.5,0.2-9.1,0.3-13.6,0.3
				c-4.5,0-9.1-0.1-13.6-0.3c-2.8-0.1-5.1-2.3-5.2-5.1c-0.4-7-0.4-14,0-21c0.1-2.7,2.4-4.9,5.2-5.1c4.5-0.2,9.1-0.3,13.6-0.3
				s9.1,0.1,13.6,0.3c2.8,0.1,5.1,2.3,5.2,5.1c0,0.9,0.1,1.9,0.1,2.8h-3.7c0-0.9-0.1-1.8-0.1-2.7c0-0.4-0.2-0.8-0.5-1.1
				c-0.3-0.3-0.7-0.5-1.2-0.5c-4.5-0.2-9-0.3-13.4-0.3c-4.5,0-9,0.1-13.4,0.3c-0.4,0-0.9,0.2-1.2,0.5c-0.3,0.3-0.5,0.7-0.5,1.1
				c-0.4,6.8-0.4,13.8,0,20.6c0,0.4,0.2,0.8,0.5,1.1c0.3,0.3,0.7,0.5,1.2,0.5c4.5,0.2,9,0.3,13.4,0.3c4.5,0,9-0.1,13.4-0.3
				c0.4,0,0.9-0.2,1.2-0.5c0.3-0.3,0.5-0.7,0.5-1.1C1223.2,682.3,1223.3,681.4,1223.3,680.5z"/>
			<path class="st1" d="M1269.8,657.6v30.6h-3.7v-13.5h-29.6v13.5h-3.7v-30.6h3.7v13.5h29.6v-13.5H1269.8z"/>
			<path class="st1" d="M1276.3,686.5l14.8,0v1.6h-16.5v-3.7c0.1-1.2,1.1-2.2,2.3-2.2l11.7,0c0.2,0,0.4-0.1,0.5-0.2
				c0.1-0.1,0.2-0.3,0.2-0.5l0-3.5c0-0.4,0-0.8-0.1-1.2c0-0.2-0.1-0.4-0.2-0.5c-0.1-0.1-0.3-0.2-0.5-0.2c-2-0.1-3.8-0.1-5.8-0.1
				c-2,0-3.8,0-5.8,0.1c-0.2,0-0.4,0.1-0.5,0.2c-0.1,0.1-0.2,0.3-0.2,0.5c0,0.4,0,0.8-0.1,1.2h-1.6c0-0.4,0-0.8,0.1-1.3
				c0.1-1.2,1.1-2.2,2.3-2.2c2-0.1,3.8-0.1,5.9-0.1c2,0,3.8,0,5.9,0.1c1.3,0.1,2.3,1,2.3,2.2c0,0.4,0,0.8,0.1,1.3l0,3.6
				c-0.1,1.2-1.1,2.2-2.3,2.2l-11.7,0c-0.2,0-0.4,0.1-0.5,0.2c-0.1,0.1-0.2,0.3-0.2,0.5V686.5z"/>
			<path class="st1" d="M1301.1,683.3c-0.1,2.7-2.4,4.9-5.2,5.1h-0.2v-3.6c0.4,0,0.9-0.2,1.2-0.5c0.3-0.3,0.5-0.7,0.5-1.1v-20.6
				c0-0.4-0.2-0.8-0.5-1.1c-0.3-0.3-0.7-0.5-1.2-0.5v-3.6h0.2c2.8,0.1,5.1,2.3,5.2,5.1V683.3z"/>
			<path class="st1" d="M1322.5,678.9c0,0.6-0.3,1.1-0.6,1.4c0.4,0.4,0.6,0.9,0.6,1.5l0,4c-0.1,1.2-1.1,2.2-2.3,2.2
				c-2,0.1-4,0.1-6,0.1s-4,0-6-0.1c-1.3-0.1-2.3-1-2.3-2.2c0-0.4,0-0.8-0.1-1.3h1.6c0,0.4,0,0.8,0.1,1.2c0,0.2,0.1,0.4,0.2,0.5
				c0.1,0.1,0.3,0.2,0.5,0.2c2,0.1,4,0.1,6,0.1c2,0,3.9,0,5.9-0.1c0.2,0,0.4-0.1,0.5-0.2c0.1-0.1,0.2-0.3,0.2-0.5v-3.9
				c0-0.2-0.1-0.4-0.2-0.5c-0.1-0.1-0.3-0.2-0.5-0.2l-8.9,0v-1.6h8.9c0.2,0,0.4-0.1,0.5-0.2c0.1-0.1,0.2-0.3,0.2-0.5l0-2.2
				c0-0.2-0.1-0.4-0.2-0.5c-0.1-0.1-0.3-0.2-0.5-0.2c-2-0.1-3.9-0.1-5.9-0.1c-2,0-4,0-6,0.1c-0.2,0-0.4,0.1-0.5,0.2
				c-0.1,0.1-0.2,0.3-0.2,0.5c0,0.4,0,0.8-0.1,1.2h-1.6c0-0.4,0-0.8,0.1-1.3c0.1-1.2,1.1-2.2,2.3-2.2c2-0.1,4-0.1,6-0.1s4,0,6,0.1
				c1.3,0.1,2.3,1,2.3,2.2L1322.5,678.9z"/>
			<path class="st1" d="M1361.7,680.5h3.7c0,0.9-0.1,1.9-0.1,2.8c-0.1,2.7-2.4,4.9-5.2,5.1c-4.5,0.2-9.1,0.3-13.6,0.3
				c-4.5,0-9.1-0.1-13.6-0.3c-2.8-0.1-5.1-2.3-5.2-5.1c-0.4-7-0.4-14,0-21c0.1-2.7,2.4-4.9,5.2-5.1c4.5-0.2,9.1-0.3,13.6-0.3
				s9.1,0.1,13.6,0.3c2.8,0.1,5.1,2.3,5.2,5.1c0,0.9,0.1,1.9,0.1,2.8h-3.7c0-0.9-0.1-1.8-0.1-2.7c0-0.4-0.2-0.8-0.5-1.1
				c-0.3-0.3-0.7-0.5-1.2-0.5c-4.5-0.2-9-0.3-13.4-0.3s-9,0.1-13.4,0.3c-0.4,0-0.9,0.2-1.2,0.5c-0.3,0.3-0.5,0.7-0.5,1.1
				c-0.4,6.8-0.4,13.8,0,20.6c0,0.4,0.2,0.8,0.5,1.1c0.3,0.3,0.7,0.5,1.2,0.5c4.5,0.2,9,0.3,13.4,0.3c4.5,0,9-0.1,13.4-0.3
				c0.4,0,0.9-0.2,1.2-0.5c0.3-0.3,0.5-0.7,0.5-1.1C1361.6,682.3,1361.7,681.4,1361.7,680.5z"/>
			<path class="st1" d="M1408.1,657.6v30.6h-3.7v-13.5h-29.6v13.5h-3.7v-30.6h3.7v13.5h29.6v-13.5H1408.1z"/>
			<path class="st1" d="M1418.9,683.1c0,0.4,0.2,0.8,0.5,1.1c0.3,0.3,0.7,0.5,1.2,0.5v3.6h-0.2c-2.8-0.1-5.1-2.3-5.2-5.1v-21
				c0.1-2.7,2.4-4.9,5.2-5.1h0.2v3.6c-0.4,0-0.9,0.2-1.2,0.5c-0.3,0.3-0.5,0.7-0.5,1.1L1418.9,683.1z"/>
			<path class="st1" d="M1464.3,657.6v30.6h-6.6l-25.7-27h-1.1v27h-3.7v-30.6h6.6l25.5,27h1.2v-27H1464.3z"/>
			<path class="st1" d="M1508.4,657.6v30.6h-3.7v-13.5h-29.6v13.5h-3.7v-30.6h3.7v13.5h29.6v-13.5H1508.4z"/>
			<path class="st1" d="M1515,686.5l14.8,0v1.6h-16.5v-3.7c0.1-1.2,1.1-2.2,2.3-2.2l11.7,0c0.2,0,0.4-0.1,0.5-0.2
				c0.1-0.1,0.2-0.3,0.2-0.5l0-3.5c0-0.4,0-0.8-0.1-1.2c0-0.2-0.1-0.4-0.2-0.5c-0.1-0.1-0.3-0.2-0.5-0.2c-2-0.1-3.8-0.1-5.8-0.1
				c-2,0-3.8,0-5.8,0.1c-0.2,0-0.4,0.1-0.5,0.2c-0.1,0.1-0.2,0.3-0.2,0.5c0,0.4,0,0.8-0.1,1.2h-1.6c0-0.4,0-0.8,0.1-1.3
				c0.1-1.2,1.1-2.2,2.3-2.2c2-0.1,3.8-0.1,5.9-0.1c2,0,3.8,0,5.9,0.1c1.3,0.1,2.3,1,2.3,2.2c0,0.4,0,0.8,0.1,1.3l0,3.6
				c-0.1,1.2-1.1,2.2-2.3,2.2l-11.7,0c-0.2,0-0.4,0.1-0.5,0.2c-0.1,0.1-0.2,0.3-0.2,0.5V686.5z"/>
			<path class="st1" d="M1539.7,683.3c-0.1,2.7-2.4,4.9-5.2,5.1h-0.2v-3.6c0.4,0,0.9-0.2,1.2-0.5c0.3-0.3,0.5-0.7,0.5-1.1v-20.6
				c0-0.4-0.2-0.8-0.5-1.1c-0.3-0.3-0.7-0.5-1.2-0.5v-3.6h0.2c2.8,0.1,5.1,2.3,5.2,5.1V683.3z"/>
			<path class="st1" d="M1544.4,675.3v-3.6h11.1v3.6H1544.4z"/>
			<path class="st1" d="M1594.4,680.5h3.7c0,0.9-0.1,1.9-0.1,2.8c-0.1,2.7-2.4,4.9-5.2,5.1c-4.5,0.2-9.1,0.3-13.6,0.3
				c-4.5,0-9.1-0.1-13.6-0.3c-2.8-0.1-5.1-2.3-5.2-5.1c-0.4-7-0.4-14,0-21c0.1-2.7,2.4-4.9,5.2-5.1c4.5-0.2,9.1-0.3,13.6-0.3
				s9.1,0.1,13.6,0.3c2.8,0.1,5.1,2.3,5.2,5.1c0,0.9,0.1,1.9,0.1,2.8h-3.7c0-0.9-0.1-1.8-0.1-2.7c0-0.4-0.2-0.8-0.5-1.1
				c-0.3-0.3-0.7-0.5-1.2-0.5c-4.5-0.2-9-0.3-13.4-0.3s-9,0.1-13.4,0.3c-0.4,0-0.9,0.2-1.2,0.5c-0.3,0.3-0.5,0.7-0.5,1.1
				c-0.4,6.8-0.4,13.8,0,20.6c0,0.4,0.2,0.8,0.5,1.1c0.3,0.3,0.7,0.5,1.2,0.5c4.5,0.2,9,0.3,13.4,0.3c4.5,0,9-0.1,13.4-0.3
				c0.4,0,0.9-0.2,1.2-0.5c0.3-0.3,0.5-0.7,0.5-1.1C1594.3,682.3,1594.4,681.4,1594.4,680.5z"/>
			<path class="st1" d="M1622.6,657c4.5,0,9.1,0.1,13.6,0.3c2.8,0.1,5.1,2.3,5.2,5.1c0.4,7,0.4,14,0,21c-0.1,2.7-2.4,4.9-5.2,5.1
				c-4.5,0.2-9.1,0.3-13.6,0.3s-9.1-0.1-13.6-0.3c-2.8-0.1-5.1-2.3-5.2-5.1c-0.4-7-0.4-14,0-21c0.1-2.7,2.4-4.9,5.2-5.1
				C1613.6,657.1,1618.1,657,1622.6,657z M1609.2,660.9c-0.4,0-0.9,0.2-1.2,0.5c-0.3,0.3-0.5,0.7-0.5,1.1c-0.4,6.8-0.4,13.8,0,20.6
				c0,0.4,0.2,0.8,0.5,1.1c0.3,0.3,0.7,0.5,1.2,0.5c4.5,0.2,9,0.3,13.4,0.3c4.5,0,9-0.1,13.4-0.3c0.4,0,0.9-0.2,1.2-0.5
				c0.3-0.3,0.5-0.7,0.5-1.1c0.4-6.8,0.4-13.8,0-20.6c0-0.4-0.2-0.8-0.5-1.1c-0.3-0.3-0.7-0.5-1.2-0.5c-4.5-0.2-9-0.3-13.4-0.3
				C1618.2,660.6,1613.7,660.7,1609.2,660.9z"/>
			<path class="st1" d="M1667.4,657c4.5,0,9.1,0.1,13.6,0.3c2.8,0.1,5.1,2.3,5.2,5.1c0.4,7,0.4,14,0,21c-0.1,2.7-2.4,4.9-5.2,5.1
				c-4.5,0.2-9.1,0.3-13.6,0.3s-9.1-0.1-13.6-0.3c-2.8-0.1-5.1-2.3-5.2-5.1c-0.4-7-0.4-14,0-21c0.1-2.7,2.4-4.9,5.2-5.1
				C1658.3,657.1,1662.9,657,1667.4,657z M1654,660.9c-0.4,0-0.9,0.2-1.2,0.5c-0.3,0.3-0.5,0.7-0.5,1.1c-0.4,6.8-0.4,13.8,0,20.6
				c0,0.4,0.2,0.8,0.5,1.1c0.3,0.3,0.7,0.5,1.2,0.5c4.5,0.2,9,0.3,13.4,0.3c4.5,0,9-0.1,13.4-0.3c0.4,0,0.9-0.2,1.2-0.5
				c0.3-0.3,0.5-0.7,0.5-1.1c0.4-6.8,0.4-13.8,0-20.6c0-0.4-0.2-0.8-0.5-1.1c-0.3-0.3-0.7-0.5-1.2-0.5c-4.5-0.2-9-0.3-13.4-0.3
				C1662.9,660.6,1658.4,660.7,1654,660.9z"/>
			<path class="st1" d="M1730.4,657.6v30.6h-3.7v-13.5h-29.6v13.5h-3.7v-30.6h3.7v13.5h29.6v-13.5H1730.4z"/>
			<path class="st1" d="M1742.4,683.3c-0.1,2.7-2.4,4.9-5.2,5.1h-0.2v-3.6c0.4,0,0.9-0.2,1.2-0.5c0.3-0.3,0.5-0.7,0.5-1.1v-20.6
				c0-0.4-0.2-0.8-0.5-1.1c-0.3-0.3-0.7-0.5-1.2-0.5v-3.6h0.2c2.8,0.1,5.1,2.3,5.2,5.1V683.3z"/>
		</g>
	</g>
	<g id="рац_формула">
		
			<linearGradient id="SVGID_00000091734689231487610240000009570531824103039900_" gradientUnits="userSpaceOnUse" x1="680" y1="592.0051" x2="1884" y2="592.0051">
			<stop  offset="0" style="stop-color:#ED1C24"/>
			<stop  offset="1" style="stop-color:#22B573"/>
		</linearGradient>
		
			<path style="fill:none;stroke:url(#SVGID_00000091734689231487610240000009570531824103039900_);stroke-width:30;stroke-miterlimit:10;" d="
			M1839,997.5H725c-16.6,0-30-13.4-30-30v-751c0-16.6,13.4-30,30-30h1114c16.6,0,30,13.4,30,30v751
			C1869,984.1,1855.6,997.5,1839,997.5z"/>
		<g id="рац_формула_00000014630525579765339280000015575340733306195593_">
			<path class="st1" d="M833.4,803.1c-0.2,3.3-2.9,6-6.4,6.2h-34.3v14.2h-4.5v-37.4H827c3.4,0.2,6.2,2.9,6.4,6.2L833.4,803.1z
				 M828.9,802.9l0-10.3c0-0.5-0.2-1-0.6-1.4c-0.4-0.4-0.9-0.6-1.4-0.6h-34.1v14.3l34.1,0.1c0.5,0,1.1-0.2,1.4-0.6
				C828.6,803.9,828.9,803.4,828.9,802.9z"/>
			<path class="st1" d="M877.9,823.5h-5l-3.8-8.1h-27.7l-3.8,8.1h-5l17.6-37.4h10L877.9,823.5z M867,811.1l-9.7-20.5h-4.2l-9.7,20.5
				H867z"/>
			<path class="st1" d="M922.1,819.1v4.4h-39v-37.4h4.5v33h27.1v-33h4.5v33H922.1z"/>
			<path class="st1" d="M974.3,786.2v37.4h-4.5v-33h-1.3l-31.4,33h-8v-37.4h4.5v33h1.5l31.2-33H974.3z"/>
			<path class="st1" d="M1029,817.7c-0.2,3.4-2.9,6-6.4,6.2c-5.5,0.2-11.1,0.4-16.6,0.4c-5.5,0-11.1-0.1-16.6-0.4
				c-3.4-0.2-6.2-2.8-6.4-6.2c-0.4-8.5-0.4-17.1,0-25.6c0.2-3.3,2.9-6,6.4-6.2c5.5-0.2,11.1-0.4,16.6-0.4c5.5,0,11.1,0.1,16.6,0.4
				c3.4,0.2,6.2,2.8,6.4,6.2C1029.4,800.6,1029.4,809.1,1029,817.7z M1024.4,792.3c0-0.5-0.3-1-0.6-1.4c-0.4-0.4-0.9-0.6-1.4-0.6
				c-5.4-0.2-11-0.4-16.4-0.4c-5.4,0-11,0.1-16.4,0.4c-0.5,0-1.1,0.2-1.4,0.6c-0.4,0.4-0.6,0.9-0.6,1.4c-0.4,8.4-0.4,16.8,0,25.2
				c0,0.5,0.3,1,0.6,1.4c0.4,0.4,0.9,0.6,1.4,0.6c5.4,0.2,11,0.4,16.4,0.4c5.4,0,11-0.1,16.4-0.4c0.5,0,1.1-0.2,1.4-0.6
				c0.4-0.4,0.6-0.9,0.6-1.4C1024.9,809.1,1024.9,800.6,1024.4,792.3z"/>
			<path class="st1" d="M1082.9,786.2v37.4h-4.5V807h-36.2v16.5h-4.5v-37.4h4.5v16.5h36.2v-16.5H1082.9z"/>
			<path class="st1" d="M1133.3,823.5h-5l-3.8-8.1h-27.7l-3.8,8.1h-5l17.6-37.4h10L1133.3,823.5z M1122.5,811.1l-9.7-20.5h-4.2
				l-9.7,20.5H1122.5z"/>
			<path class="st1" d="M1184.7,786.2v37.4h-4.5v-33h-31.9l-2.2,0c-0.5,0-1.1,0.2-1.4,0.6c-0.4,0.4-0.6,0.9-0.6,1.4l0,5.6v3.7
				l0,15.5c-0.2,3.3-2.9,6-6.4,6.2h-1v-4.4h0.8c0.5,0,1.1-0.2,1.4-0.6c0.4-0.4,0.6-0.9,0.6-1.4v-11.8h0v-13c0.2-3.3,2.9-6,6.4-6.2
				H1184.7z"/>
			<path class="st1" d="M1238.6,806.6l0,10.8c-0.2,3.4-2.9,6-6.4,6.2h-38.9v-37.4h4.5v14.2h34.3
				C1235.7,800.5,1238.5,803.2,1238.6,806.6z M1234.1,806.8c0-0.5-0.3-1-0.6-1.4c-0.4-0.4-0.9-0.6-1.4-0.6l-34.1,0.1v14.3h34.1
				c0.5,0,1.1-0.2,1.4-0.6s0.6-0.9,0.6-1.4L1234.1,806.8z"/>
			<path class="st1" d="M1290.8,786.2v37.4h-4.5V807h-36.2v16.5h-4.5v-37.4h4.5v16.5h36.2v-16.5H1290.8z"/>
			<path class="st1" d="M1341.2,823.5h-5l-3.8-8.1h-27.7l-3.8,8.1h-5l17.6-37.4h10L1341.2,823.5z M1330.4,811.1l-9.7-20.5h-4.2
				l-9.7,20.5H1330.4z"/>
			<path class="st1" d="M1388.8,786.2v37.4h-4.5v-14.2h-11.2l-21.5,14.2l-8,0l21.5-14.2h-12.3c-3.4-0.2-6.2-2.8-6.4-6.2l0-10.8
				c0.2-3.4,2.9-6,6.4-6.2H1388.8z M1384.3,790.6H1353c-0.5,0-1.1,0.2-1.4,0.6c-0.4,0.4-0.6,0.9-0.6,1.4l0,10.3c0,0.5,0.3,1,0.6,1.4
				c0.4,0.4,0.9,0.6,1.4,0.6l31.3-0.1V790.6z"/>
			<path class="st1" d="M1471.1,795.1l0,10.8c-0.2,3.4-2.9,6-6.4,6.2h-16.8v11.5h-4.5v-11.5h-16.8c-3.4-0.2-6.2-2.9-6.4-6.2l0-10.8
				c0.2-3.3,2.9-6,6.4-6.2v0h16.8v-2.7h4.5v2.7h16.8v0C1468.1,789.1,1470.9,791.8,1471.1,795.1z M1443.3,807.7v-14.3l-16.6,0
				c-0.5,0-1,0.2-1.4,0.6c-0.4,0.4-0.6,0.9-0.6,1.4l0,10.3c0,0.5,0.2,1,0.6,1.4c0.4,0.4,0.9,0.6,1.4,0.6H1443.3z M1466.5,795.3
				c0-0.5-0.3-1-0.6-1.4c-0.4-0.4-0.9-0.6-1.4-0.6l-16.6,0.1v14.3h16.6c0.5,0,1.1-0.2,1.4-0.6c0.4-0.4,0.6-0.9,0.6-1.4L1466.5,795.3
				z"/>
			<path class="st1" d="M1524.1,817.7c-0.2,3.4-2.9,6-6.4,6.2c-5.5,0.2-11.1,0.4-16.6,0.4c-5.5,0-11.1-0.1-16.6-0.4
				c-3.4-0.2-6.2-2.8-6.4-6.2c-0.4-8.5-0.4-17.1,0-25.6c0.2-3.3,2.9-6,6.4-6.2c5.5-0.2,11.1-0.4,16.6-0.4c5.5,0,11.1,0.1,16.6,0.4
				c3.4,0.2,6.2,2.8,6.4,6.2C1524.6,800.6,1524.6,809.1,1524.1,817.7z M1519.6,792.3c0-0.5-0.3-1-0.6-1.4c-0.4-0.4-0.9-0.6-1.4-0.6
				c-5.4-0.2-11-0.4-16.4-0.4c-5.4,0-11,0.1-16.4,0.4c-0.5,0-1.1,0.2-1.4,0.6c-0.4,0.4-0.6,0.9-0.6,1.4c-0.4,8.4-0.4,16.8,0,25.2
				c0,0.5,0.3,1,0.6,1.4c0.4,0.4,0.9,0.6,1.4,0.6c5.4,0.2,11,0.4,16.4,0.4c5.4,0,11-0.1,16.4-0.4c0.5,0,1.1-0.2,1.4-0.6
				c0.4-0.4,0.6-0.9,0.6-1.4C1520,809.1,1520,800.6,1519.6,792.3z"/>
			<path class="st1" d="M1577.8,803.1c-0.2,3.3-2.9,6-6.4,6.2h-34.3v14.2h-4.5v-37.4h38.9c3.4,0.2,6.2,2.9,6.4,6.2L1577.8,803.1z
				 M1573.3,802.9l0-10.3c0-0.5-0.2-1-0.6-1.4c-0.4-0.4-0.9-0.6-1.4-0.6h-34.1v14.3l34.1,0.1c0.5,0,1.1-0.2,1.4-0.6
				C1573,803.9,1573.3,803.4,1573.3,802.9z"/>
			<path class="st1" d="M1635.7,786.2v37.4h-4.5v-33h-0.8l-17.9,33h-4.5l-17.9-33h-0.8v33h-4.5v-37.4h8l17.4,32.1l17.4-32.1v0
				H1635.7z"/>
			<path class="st1" d="M1689,786.2l0,20.5c0,3-0.2,7.4-0.3,10.3c-0.2,3.3-2.9,6-6.4,6.2c-5.5,0.2-11.1,0.4-16.6,0.4
				s-9.9-0.1-15.5-0.4c-3.4-0.2-6.2-2.8-6.4-6.2c-0.1-1.2-0.1-2.3-0.2-3.5h4.5c0,1.1,0.1,2.2,0.1,3.2c0,0.5,0.3,1,0.6,1.4
				c0.4,0.4,0.9,0.6,1.4,0.6c5.4,0.2,9.8,0.4,15.3,0.4c5.4,0,11-0.1,16.4-0.4c0.5,0,1.1-0.2,1.4-0.6c0.4-0.4,0.6-0.9,0.6-1.4
				c0.1-2.3,0.2-6.6,0.3-9.7h-34.3c-3.4-0.2-6.2-2.8-6.4-6.2l0-14.7h4.5l0,14.5c0,0.5,0.3,1,0.6,1.4c0.4,0.4,0.9,0.6,1.4,0.6h34.1
				v-16.5H1689z"/>
			<path class="st1" d="M1743.1,786.2v37.4h-4.5v-33h-31.9l-2.2,0c-0.5,0-1.1,0.2-1.4,0.6c-0.4,0.4-0.6,0.9-0.6,1.4l0,5.6v3.7
				l0,15.5c-0.2,3.3-2.9,6-6.4,6.2h-1v-4.4h0.8c0.5,0,1.1-0.2,1.4-0.6c0.4-0.4,0.6-0.9,0.6-1.4v-11.8h0v-13c0.2-3.3,2.9-6,6.4-6.2
				H1743.1z"/>
			<path class="st1" d="M1793.5,823.5h-5l-3.8-8.1h-27.7l-3.8,8.1h-5l17.6-37.4h10L1793.5,823.5z M1782.7,811.1l-9.7-20.5h-4.2
				l-9.7,20.5H1782.7z"/>
		</g>
		<g id="C6H14N4O2">
			<path class="st25" d="M1156,907.9h5.4c-0.1,1.4-0.1,2.7-0.2,4.1c-0.2,4-3.5,7.1-7.5,7.3c-6.5,0.3-13.1,0.4-19.6,0.4
				c-6.5,0-13.1-0.1-19.6-0.4c-4.1-0.2-7.3-3.3-7.5-7.3c-0.5-10.1-0.5-20.2,0-30.3c0.2-4,3.5-7.1,7.6-7.3c6.5-0.3,13.1-0.4,19.6-0.4
				s13.1,0.1,19.6,0.4c4.1,0.2,7.3,3.3,7.5,7.3c0.1,1.4,0.1,2.7,0.2,4.1h-5.4c0-1.3-0.1-2.6-0.2-3.9c0-0.6-0.3-1.2-0.8-1.6
				c-0.5-0.4-1.1-0.7-1.7-0.7c-6.4-0.3-13-0.4-19.4-0.4s-13,0.1-19.4,0.4c-0.6,0-1.2,0.3-1.7,0.7c-0.5,0.4-0.7,1-0.8,1.6
				c-0.5,9.9-0.5,19.9,0,29.8c0,0.6,0.3,1.2,0.8,1.6c0.5,0.4,1.1,0.7,1.7,0.7c6.4,0.3,13,0.4,19.4,0.4c6.4,0,13-0.1,19.4-0.4
				c0.6,0,1.2-0.3,1.7-0.7c0.5-0.4,0.7-1,0.8-1.6C1155.9,910.4,1156,909.2,1156,907.9z"/>
			<path class="st25" d="M1191.9,909.4v4.1c0,0.6-0.1,1.3-0.1,1.9c-0.1,1.8-1.6,3.3-3.5,3.4c-3,0.1-6,0.2-9.1,0.2
				c-3,0-5.9-0.1-9-0.2c-1.9-0.1-3.4-1.5-3.5-3.4v-14c0.1-1.8,1.6-3.3,3.5-3.4c3-0.1,5.9-0.2,9-0.2c3,0,6,0.1,9.1,0.2
				c1.9,0.1,3.4,1.5,3.5,3.4c0,0.6,0.1,1.3,0.1,1.9h-2.5c0-0.6,0-1.2-0.1-1.8c0-0.3-0.1-0.6-0.3-0.8c-0.2-0.2-0.5-0.3-0.8-0.3
				c-3-0.1-6-0.2-8.9-0.2c-3,0-5.9,0.1-8.8,0.2c-0.3,0-0.6,0.1-0.8,0.3c-0.2,0.2-0.3,0.5-0.3,0.8v4.4h14.5l4.6,0
				C1190.3,906.1,1191.8,907.6,1191.9,909.4z M1189.4,909.5c0-0.3-0.1-0.6-0.3-0.8s-0.5-0.3-0.8-0.3l-4.5,0l-14.5,0v6.9
				c0,0.3,0.1,0.6,0.3,0.8s0.5,0.3,0.8,0.3c3,0.1,5.9,0.2,8.8,0.2c3,0,6-0.1,8.9-0.2c0.3,0,0.6-0.1,0.8-0.3s0.3-0.5,0.3-0.8
				c0-0.6,0.1-1.2,0.1-1.8L1189.4,909.5z"/>
			<path class="st25" d="M1252.8,874.7v44.2h-5.3v-19.5h-42.8v19.5h-5.3v-44.2h5.3v19.5h42.8v-19.5H1252.8z"/>
			<path class="st25" d="M1268.1,898.4v20.4h-2.5v-18l-3,2.7h-3.7l5.8-5.1H1268.1z"/>
			<path class="st25" d="M1293.3,914v2.4h-1.5v2.4h-2.5v-2.4H1272v-4.3l15.5-13.7h4.2V914H1293.3z M1289.3,914v-13.2h-0.8l-14,12.4
				v0.8H1289.3z"/>
			<path class="st25" d="M1353.8,874.7v44.2h-9.5l-37.1-39h-1.5v39h-5.3v-44.2h9.5l36.9,39h1.8v-39H1353.8z"/>
			<path class="st25" d="M1381.7,914v2.4h-1.5v2.4h-2.5v-2.4h-17.3v-4.3l15.5-13.7h4.2V914H1381.7z M1377.7,914v-13.2h-0.8l-14,12.4
				v0.8H1377.7z"/>
			<path class="st25" d="M1415.9,873.9c6.5,0,13.1,0.1,19.6,0.4c4.1,0.2,7.3,3.3,7.6,7.3c0.5,10.1,0.5,20.2,0,30.3
				c-0.2,4-3.5,7.1-7.5,7.3c-6.5,0.3-13.1,0.4-19.6,0.4s-13.1-0.1-19.6-0.4c-4.1-0.2-7.3-3.3-7.5-7.3c-0.5-10.1-0.5-20.2,0-30.3
				c0.2-4,3.5-7.1,7.6-7.3C1402.8,874.1,1409.3,873.9,1415.9,873.9z M1396.5,879.6c-0.6,0-1.2,0.3-1.7,0.7c-0.5,0.4-0.7,1-0.8,1.6
				c-0.5,9.9-0.5,19.9,0,29.8c0,0.6,0.3,1.2,0.8,1.6c0.5,0.4,1.1,0.7,1.7,0.7c6.4,0.3,13,0.4,19.4,0.4c6.4,0,13-0.1,19.4-0.4
				c0.6,0,1.2-0.3,1.7-0.7c0.5-0.4,0.7-1,0.8-1.6c0.5-9.9,0.5-19.9,0-29.8c0-0.6-0.3-1.2-0.8-1.6c-0.5-0.4-1.1-0.7-1.7-0.7
				c-6.4-0.3-13-0.4-19.4-0.4C1409.4,879.1,1402.9,879.3,1396.5,879.6z"/>
			<path class="st25" d="M1452.8,916.4l22.2,0v2.4h-24.7v-5.6c0.1-1.8,1.6-3.3,3.5-3.4l17.6,0c0.3,0,0.6-0.1,0.8-0.3
				c0.2-0.2,0.3-0.5,0.3-0.8l0-5.2c0-0.6,0-1.2-0.1-1.8c0-0.3-0.1-0.6-0.3-0.8s-0.5-0.3-0.8-0.3c-3-0.1-5.7-0.2-8.7-0.2
				s-5.7,0.1-8.7,0.2c-0.3,0-0.6,0.1-0.8,0.3s-0.3,0.5-0.3,0.8c0,0.6-0.1,1.2-0.1,1.8h-2.5c0-0.6,0.1-1.3,0.1-1.9
				c0.1-1.8,1.6-3.3,3.5-3.4c3-0.1,5.8-0.2,8.8-0.2c3,0,5.8,0.1,8.8,0.2c1.9,0.1,3.4,1.5,3.5,3.4c0,0.6,0.1,1.3,0.1,1.9l0,5.3
				c-0.1,1.8-1.6,3.3-3.5,3.4l-17.6,0c-0.3,0-0.6,0.1-0.8,0.3c-0.2,0.2-0.3,0.5-0.3,0.8V916.4z"/>
		</g>
	</g>
	<g id="молярная_масса_00000173846265994994502980000002757662122759831473_">
		<g id="мол_масса">
			<path class="st1" d="M1559,238.3v27.2h-3.3v-24h-0.6l-13,24h-3.3l-13-24h-0.6v24h-3.3v-27.2h5.8l12.7,23.3l12.7-23.3v0H1559z"/>
			<path class="st1" d="M1598.7,261.2c-0.1,2.4-2.1,4.4-4.6,4.5c-4,0.2-8.1,0.3-12.1,0.3s-8.1-0.1-12.1-0.3
				c-2.5-0.1-4.5-2.1-4.6-4.5c-0.3-6.2-0.3-12.4,0-18.6c0.1-2.4,2.1-4.4,4.6-4.5c4-0.2,8.1-0.3,12.1-0.3s8.1,0.1,12.1,0.3
				c2.5,0.1,4.5,2.1,4.6,4.5C1599.1,248.8,1599.1,255,1598.7,261.2z M1595.5,242.8c0-0.4-0.2-0.7-0.5-1c-0.3-0.3-0.7-0.4-1-0.4
				c-4-0.2-8-0.3-11.9-0.3s-8,0.1-11.9,0.3c-0.4,0-0.8,0.2-1,0.4c-0.3,0.3-0.4,0.6-0.5,1c-0.3,6.1-0.3,12.2,0,18.3
				c0,0.4,0.2,0.7,0.5,1c0.3,0.3,0.7,0.4,1,0.4c4,0.2,8,0.3,11.9,0.3s8-0.1,11.9-0.3c0.4,0,0.8-0.2,1-0.4c0.3-0.3,0.4-0.6,0.5-1
				C1595.8,255,1595.8,248.8,1595.5,242.8z"/>
			<path class="st1" d="M1638.5,238.3v27.2h-3.3v-24h-23.2l-1.6,0c-0.4,0-0.8,0.2-1,0.4c-0.3,0.3-0.4,0.6-0.5,1l0,4.1v2.7l0,11.2
				c-0.1,2.4-2.1,4.4-4.6,4.5h-0.7v-3.2h0.5c0.4,0,0.8-0.2,1-0.4c0.3-0.3,0.4-0.6,0.5-1v-8.6h0v-9.4c0.1-2.4,2.1-4.4,4.6-4.5H1638.5
				z"/>
			<path class="st1" d="M1675.7,238.3v27.2h-3.3v-10.3h-8.1l-15.7,10.3l-5.8,0l15.7-10.3h-8.9c-2.5-0.1-4.5-2.1-4.6-4.5l0-7.8
				c0.1-2.4,2.1-4.4,4.6-4.5H1675.7z M1672.4,241.5h-22.8c-0.4,0-0.8,0.2-1,0.5c-0.3,0.3-0.4,0.6-0.5,1l0,7.5c0,0.4,0.2,0.7,0.5,1
				c0.3,0.3,0.7,0.4,1,0.4l22.8,0V241.5z"/>
			<path class="st1" d="M1714.9,250.7c-0.1,2.4-2.1,4.4-4.6,4.5h-25v10.3h-3.3v-27.2h28.3c2.5,0.1,4.5,2.1,4.6,4.5L1714.9,250.7z
				 M1711.6,250.5l0-7.5c0-0.4-0.2-0.7-0.5-1c-0.3-0.3-0.6-0.4-1-0.5h-24.8v10.4l24.8,0c0.4,0,0.8-0.2,1-0.4
				C1711.5,251.3,1711.6,250.9,1711.6,250.5z"/>
			<path class="st1" d="M1752.9,238.3v27.2h-3.3v-12h-26.3v12h-3.3v-27.2h3.3v12h26.3v-12H1752.9z"/>
			<path class="st1" d="M1789.5,265.5h-3.6l-2.8-5.9H1763l-2.8,5.9h-3.6l12.8-27.2h7.2L1789.5,265.5z M1781.6,256.5l-7-14.9h-3
				l-7,14.9H1781.6z"/>
			<path class="st1" d="M1824.1,238.3v27.2h-3.3v-10.3h-8.1l-15.7,10.3l-5.8,0l15.7-10.3h-8.9c-2.5-0.1-4.5-2.1-4.6-4.5l0-7.8
				c0.1-2.4,2.1-4.4,4.6-4.5H1824.1z M1820.8,241.5h-22.8c-0.4,0-0.8,0.2-1,0.5c-0.3,0.3-0.4,0.6-0.5,1l0,7.5c0,0.4,0.2,0.7,0.5,1
				c0.3,0.3,0.7,0.4,1,0.4l22.8,0V241.5z"/>
			<path class="st1" d="M1559,285v27.2h-3.3v-24h-0.6l-13,24h-3.3l-13-24h-0.6v24h-3.3V285h5.8l12.7,23.3l12.7-23.3v0H1559z"/>
			<path class="st1" d="M1595.6,312.1h-3.6l-2.8-5.9h-20.1l-2.8,5.9h-3.6l12.8-27.2h7.2L1595.6,312.1z M1587.7,303.1l-7-14.9h-3
				l-7,14.9H1587.7z"/>
			<path class="st1" d="M1628.9,305.3h3.3c0,0.8-0.1,1.7-0.1,2.5c-0.1,2.4-2.1,4.4-4.6,4.5c-4,0.2-8.1,0.3-12.1,0.3
				s-8.1-0.1-12.1-0.3c-2.5-0.1-4.5-2.1-4.6-4.5c-0.3-6.2-0.3-12.4,0-18.6c0.1-2.4,2.1-4.4,4.6-4.5c4-0.2,8.1-0.3,12.1-0.3
				s8.1,0.1,12.1,0.3c2.5,0.1,4.5,2.1,4.6,4.5c0,0.8,0.1,1.7,0.1,2.5h-3.3c0-0.8-0.1-1.6-0.1-2.4c0-0.4-0.2-0.7-0.5-1
				c-0.3-0.3-0.7-0.4-1-0.4c-4-0.2-8-0.3-11.9-0.3c-4,0-8,0.1-11.9,0.3c-0.4,0-0.8,0.2-1,0.4c-0.3,0.3-0.4,0.6-0.5,1
				c-0.3,6.1-0.3,12.2,0,18.3c0,0.4,0.2,0.7,0.5,1s0.7,0.4,1,0.4c4,0.2,8,0.3,11.9,0.3c4,0,8-0.1,11.9-0.3c0.4,0,0.8-0.2,1-0.4
				c0.3-0.3,0.4-0.6,0.5-1C1628.9,306.9,1628.9,306.1,1628.9,305.3z"/>
			<path class="st1" d="M1667.6,305.3h3.3c0,0.8-0.1,1.7-0.1,2.5c-0.1,2.4-2.1,4.4-4.6,4.5c-4,0.2-8.1,0.3-12.1,0.3
				s-8.1-0.1-12.1-0.3c-2.5-0.1-4.5-2.1-4.6-4.5c-0.3-6.2-0.3-12.4,0-18.6c0.1-2.4,2.1-4.4,4.6-4.5c4-0.2,8.1-0.3,12.1-0.3
				s8.1,0.1,12.1,0.3c2.5,0.1,4.5,2.1,4.6,4.5c0,0.8,0.1,1.7,0.1,2.5h-3.3c0-0.8-0.1-1.6-0.1-2.4c0-0.4-0.2-0.7-0.5-1
				c-0.3-0.3-0.7-0.4-1-0.4c-4-0.2-8-0.3-11.9-0.3c-4,0-8,0.1-11.9,0.3c-0.4,0-0.8,0.2-1,0.4c-0.3,0.3-0.4,0.6-0.5,1
				c-0.3,6.1-0.3,12.2,0,18.3c0,0.4,0.2,0.7,0.5,1s0.7,0.4,1,0.4c4,0.2,8,0.3,11.9,0.3c4,0,8-0.1,11.9-0.3c0.4,0,0.8-0.2,1-0.4
				c0.3-0.3,0.4-0.6,0.5-1C1667.5,306.9,1667.5,306.1,1667.6,305.3z"/>
			<path class="st1" d="M1706.2,312.1h-3.6l-2.8-5.9h-20.1l-2.8,5.9h-3.6l12.8-27.2h7.2L1706.2,312.1z M1698.3,303.1l-7-14.9h-3
				l-7,14.9H1698.3z"/>
		</g>
		<g id="_x31_74_x2C_2">
			<path class="st25" d="M1552.1,356.4v37.4h-4.5v-33l-5.6,4.9h-6.7l10.5-9.3H1552.1z"/>
			<path class="st25" d="M1603.6,356.4v5.9h0l0,1.7l-27.8,29.8h-6.1l29.4-31.5v-1.5h-40.7v-4.4H1603.6z"/>
			<path class="st25" d="M1644.9,385v4.4h-2.8v4.4h-4.5v-4.4h-31.7v-7.8l28.4-25.2h7.8V385H1644.9z M1637.5,385v-24.2h-1.5
				l-25.6,22.7v1.5H1637.5z"/>
			<path class="st25" d="M1654.3,389.6v4.4l-4.5,4.4v-8.8H1654.3z"/>
			<path class="st25" d="M1664.1,389.4l40.7,0v4.4h-45.3v-10.3c0.2-3.3,2.9-6,6.4-6.2l32.3,0c0.5,0,1.1-0.2,1.4-0.6
				c0.4-0.4,0.6-0.9,0.6-1.4l0-9.5c0-1.1-0.1-2.2-0.1-3.2c0-0.5-0.3-1-0.6-1.4s-0.9-0.6-1.4-0.6c-5.4-0.2-10.4-0.4-15.9-0.4
				c-5.4,0-10.4,0.1-15.9,0.4c-0.5,0-1.1,0.2-1.4,0.6c-0.4,0.4-0.6,0.9-0.6,1.4c-0.1,1.1-0.1,2.2-0.1,3.2h-4.5
				c0-1.2,0.1-2.3,0.2-3.5c0.2-3.3,2.9-6,6.4-6.2c5.5-0.2,10.5-0.4,16.1-0.4c5.5,0,10.5,0.1,16.1,0.4c3.4,0.2,6.2,2.8,6.4,6.2
				c0.1,1.2,0.1,2.3,0.2,3.5l0,9.8c-0.2,3.3-2.9,6-6.4,6.2l-32.3,0c-0.5,0-1.1,0.2-1.4,0.6c-0.4,0.4-0.6,0.9-0.6,1.4L1664.1,389.4z"
				/>
			<path class="st25" d="M1569.4,420.7v4.4h-27.1v33h-4.5v-37.4H1569.4z"/>
			<path class="st25" d="M1576.2,451.7l-3,6.3h-5l4.7-9.9l13-27.5h5L1576.2,451.7z"/>
			<path class="st25" d="M1648,420.7v37.4h-4.5v-33h-0.8l-17.9,33h-4.5l-17.9-33h-0.8v33h-4.5v-37.4h8l17.4,32.1l17.4-32.1v0H1648z"
				/>
			<path class="st25" d="M1702.7,452.2c-0.2,3.3-2.9,6-6.4,6.2c-5.5,0.2-11.1,0.4-16.6,0.4c-5.5,0-11.1-0.1-16.6-0.4
				c-3.4-0.2-6.2-2.8-6.4-6.2c-0.4-8.5-0.4-17.1,0-25.6c0.2-3.3,2.9-6,6.4-6.2c5.5-0.2,11.1-0.4,16.6-0.4c5.5,0,11.1,0.1,16.6,0.4
				c3.4,0.2,6.2,2.8,6.4,6.2C1703.2,435.1,1703.2,443.7,1702.7,452.2z M1698.2,426.8c0-0.5-0.3-1-0.6-1.4c-0.4-0.4-0.9-0.6-1.4-0.6
				c-5.4-0.2-11-0.4-16.4-0.4c-5.4,0-11,0.1-16.4,0.4c-0.5,0-1.1,0.2-1.4,0.6c-0.4,0.4-0.6,0.9-0.6,1.4c-0.4,8.4-0.4,16.8,0,25.2
				c0,0.5,0.3,1,0.6,1.4c0.4,0.4,0.9,0.6,1.4,0.6c5.4,0.2,11,0.4,16.4,0.4c5.4,0,11-0.1,16.4-0.4c0.5,0,1.1-0.2,1.4-0.6
				c0.4-0.4,0.6-0.9,0.6-1.4C1698.6,443.6,1698.6,435.2,1698.2,426.8z"/>
			<path class="st25" d="M1757.3,420.7v37.4h-4.5v-33h-31.9l-2.2,0c-0.5,0-1.1,0.2-1.4,0.6c-0.4,0.4-0.6,0.9-0.6,1.4l0,5.6v3.7
				l0,15.5c-0.2,3.3-2.9,6-6.4,6.2h-1v-4.4h0.8c0.5,0,1.1-0.2,1.4-0.6c0.4-0.4,0.6-0.9,0.6-1.4v-11.8h0v-13c0.2-3.3,2.9-6,6.4-6.2
				H1757.3z"/>
			<path class="st25" d="M1811.3,441.1l0,10.8c-0.2,3.4-2.9,6-6.4,6.2h-38.9v-37.4h4.5v14.2h34.3
				C1808.4,435.1,1811.1,437.8,1811.3,441.1z M1806.8,441.3c0-0.5-0.3-1-0.6-1.4c-0.4-0.4-0.9-0.6-1.4-0.6l-34.1,0.1v14.3h34.1
				c0.5,0,1.1-0.2,1.4-0.6c0.4-0.4,0.6-0.9,0.6-1.4L1806.8,441.3z"/>
		</g>
	</g>
</g>
</svg>
