<?xml version="1.0" encoding="utf-8"?>
<!-- Generator: Adobe Illustrator 26.0.1, SVG Export Plug-In . SVG Version: 6.00 Build 0)  -->
<svg version="1.1" xmlns="http://www.w3.org/2000/svg" xmlns:xlink="http://www.w3.org/1999/xlink" x="0px" y="0px"
	 viewBox="0 0 1920 1080" style="enable-background:new 0 0 1920 1080;" xml:space="preserve">
<style type="text/css">
	.st0{fill:url(#SVGID_1_);}
	.st1{fill:#FFFFFF;}
	.st2{fill:none;stroke:url(#SVGID_00000042726478092511417990000013142680551684657329_);stroke-width:20;stroke-miterlimit:10;}
	.st3{stroke:url(#SVGID_00000060711743316782856820000018372234357963622846_);stroke-width:20;stroke-miterlimit:10;}
	.st4{stroke:url(#SVGID_00000102536375099840003160000013668741439671956912_);stroke-width:20;stroke-miterlimit:10;}
</style>
<g id="background">
	<g>
		<rect x="0.5" y="0.5" width="1919" height="1079"/>
		<path d="M1919,1v1078H1V1H1919 M1920,0H0v1080h1920V0L1920,0z"/>
	</g>
</g>
<g id="Слой_2">
	<g>
		<path d="M1778.7,119H266.3c-16.2,0-29.3-13.1-29.3-29.3V37.3C237,21.1,250.1,8,266.3,8h1512.4c16.2,0,29.3,13.1,29.3,29.3v52.4
			C1808,105.9,1794.9,119,1778.7,119z"/>
		<linearGradient id="SVGID_1_" gradientUnits="userSpaceOnUse" x1="237" y1="63.5" x2="1808" y2="63.5">
			<stop  offset="0" style="stop-color:#FFFF33"/>
			<stop  offset="0.33" style="stop-color:#F7931E"/>
			<stop  offset="0.66" style="stop-color:#FF00FF"/>
			<stop  offset="1" style="stop-color:#93278F"/>
		</linearGradient>
		<path class="st0" d="M1778.7,23c7.9,0,14.3,6.4,14.3,14.3v52.4c0,7.9-6.4,14.3-14.3,14.3H266.3c-7.9,0-14.3-6.4-14.3-14.3V37.3
			c0-7.9,6.4-14.3,14.3-14.3H1778.7 M1778.7,8H266.3C250.1,8,237,21.1,237,37.3v52.4c0,16.2,13.1,29.3,29.3,29.3h1512.4
			c16.2,0,29.3-13.1,29.3-29.3V37.3C1808,21.1,1794.9,8,1778.7,8L1778.7,8z"/>
	</g>
	<g>
		<path class="st1" d="M317.6,87.5h-37.7v0h-3.2c-6.3,0-11.3-5.1-11.3-11.3V50.9c0-6.3,5.1-11.3,11.3-11.3h6.8h33.5v14.6h-33.5v18.8
			h34.1V87.5z"/>
		<path class="st1" d="M375.1,72.9c0,8.1-6.5,14.6-14.6,14.6h-24.4c-8.1,0-14.6-6.5-14.6-14.6V54.1c0-8.1,6.5-14.6,14.6-14.6h24.4
			c8.1,0,14.6,6.5,14.6,14.6V72.9z M357,53.8h-17.2c-2.5,0-4.5,2-4.5,4.5v10.5c0,2.5,2,4.5,4.5,4.5H357c2.5,0,4.5-2,4.5-4.5V58.3
			C361.4,55.8,359.4,53.8,357,53.8z"/>
		<path class="st1" d="M438.5,87.5h-15.4h-2.6h0v0L397.2,63v24.4h-18.1V39.5h18.1l23.3,24.2V39.5h18V87.5z"/>
		<path class="st1" d="M461.5,58.6h31.1v14.5h-31.1v14.3h-18.9V39.7h6.6h43.4v14.5h-31.1V58.6z"/>
		<path class="st1" d="M550.2,72.9c0,8.1-6.5,14.6-14.6,14.6h-24.4c-8.1,0-14.6-6.5-14.6-14.6V54.1c0-8.1,6.5-14.6,14.6-14.6h24.4
			c8.1,0,14.6,6.5,14.6,14.6V72.9z M532,53.8h-17.2c-2.5,0-4.5,2-4.5,4.5v10.5c0,2.5,2,4.5,4.5,4.5H532c2.5,0,4.5-2,4.5-4.5V58.3
			C536.5,55.8,534.5,53.8,532,53.8z"/>
		<path class="st1" d="M596.4,87.5l-8.2-16.1h-17.9v16.1h-16.1V39.5h1.2h15h23.9c7.4,0,13.4,6,13.4,13.4v4.9c0,4.1-1.8,7.7-4.6,10.2
			l9.9,19.4H596.4z M586.8,51.9h-16.5v6h16.5c3.2,0,5.7-1.3,5.7-2.8v-0.4C592.5,53.2,589.9,51.9,586.8,51.9z"/>
		<path class="st1" d="M658.3,87.5L635.1,63v24.4h-18.1V39.5h18.1l23.2,25.2v0l23.2-25.2h18.1v47.9h-18.1V63L658.3,87.5L658.3,87.5
			L658.3,87.5z"/>
		<path class="st1" d="M726.8,80l-3.7,7.4l-19.5,0l23.9-47.9h1v0l7.3,0l11.2,0l0,0h1l23.9,47.9l-19.5,0l-3.7-7.4H726.8z M737.8,58.1
			l-4.1,8.2h8.2L737.8,58.1z"/>
		<path class="st1" d="M808.3,56.6v30.9h-17V56.6h-15.4v-17h15.4h17h15.4v17H808.3z"/>
		<path class="st1" d="M827.7,39.5h18.3v47.9h-18.3V39.5z"/>
		<path class="st1" d="M903.6,72.9c0,8.1-6.5,14.6-14.6,14.6h-24.4c-8.1,0-14.6-6.5-14.6-14.6V54.1c0-8.1,6.5-14.6,14.6-14.6H889
			c8.1,0,14.6,6.5,14.6,14.6V72.9z M885.5,53.8h-17.2c-2.5,0-4.5,2-4.5,4.5v10.5c0,2.5,2,4.5,4.5,4.5h17.2c2.5,0,4.5-2,4.5-4.5V58.3
			C889.9,55.8,887.9,53.8,885.5,53.8z"/>
		<path class="st1" d="M967,87.5h-15.4H949h0v0L925.7,63v24.4h-18.1V39.5h18.1L949,63.8V39.5h18V87.5z"/>
		<path class="st1" d="M994.3,80l-3.7,7.4l-19.5,0l23.9-47.9h1v0l7.3,0l11.2,0l0,0h1l23.9,47.9l-19.5,0l-3.7-7.4H994.3z
			 M1005.2,58.1l-4.1,8.2h8.2L1005.2,58.1z"/>
		<path class="st1" d="M1063.9,87.4L1063.9,87.4l-20.6,0.1V39.5h17.2v32h33.9v15.8H1063.9z"/>
		<path class="st1" d="M1119,87.4L1119,87.4l-20.6,0.1V39.5h17.2v32h33.9v15.8H1119z"/>
		<path class="st1" d="M1202.4,59.2c0,5-4.3,9.2-9.9,9.8v0c0,0,0,0-0.1,0c-0.1,0-0.3,0-0.4,0c-1,0.1-3.3,0.4-3.3,1.4c0,0,0,0,0,0
			v16.9h-21.7v-17c0-0.9-2.3-1.3-3.3-1.4c-0.1,0-0.3,0-0.4,0c0,0-0.1,0-0.1,0l0,0c-5.6-0.6-9.9-4.8-9.9-9.8V39.5h13.6h2.5v16.1h16.7
			V39.5h2.5h13.6V59.2z"/>
		<path class="st1" d="M1256.2,39.5h18.3v47.9h-18.3V39.5z"/>
		<path class="st1" d="M1319.9,87.5L1296.6,63v24.4h-18.1V39.5h18.1l23.2,25.2v0l23.2-25.2h18.1v47.9h-18.1V63L1319.9,87.5
			L1319.9,87.5z"/>
		<path class="st1" d="M1415.9,58.2c0,7.2-5.8,13-13,13h-22v16.2h-15.7V39.7h6.2v-0.1h31.6v0.1c7.2,0,13,5.8,13,13V58.2z
			 M1380.9,51.9v5.6h20.2v-5.6H1380.9z"/>
		<path class="st1" d="M1473.4,72.9c0,8.1-6.5,14.6-14.6,14.6h-24.4c-8.1,0-14.6-6.5-14.6-14.6V54.1c0-8.1,6.5-14.6,14.6-14.6h24.4
			c8.1,0,14.6,6.5,14.6,14.6V72.9z M1455.3,53.8H1438c-2.5,0-4.5,2-4.5,4.5v10.5c0,2.5,2,4.5,4.5,4.5h17.2c2.5,0,4.5-2,4.5-4.5V58.3
			C1459.8,55.8,1457.8,53.8,1455.3,53.8z"/>
		<path class="st1" d="M1519.6,87.5l-8.2-16.1h-17.9v16.1h-16.1V39.5h1.2h15h23.9c7.4,0,13.4,6,13.4,13.4v4.9
			c0,4.1-1.8,7.7-4.6,10.2l9.9,19.4H1519.6z M1510.1,51.9h-16.5v6h16.5c3.2,0,5.7-1.3,5.7-2.8v-0.4
			C1515.8,53.2,1513.2,51.9,1510.1,51.9z"/>
		<path class="st1" d="M1572.6,56.6v30.9h-17V56.6h-15.4v-17h15.4h17h15.4v17H1572.6z"/>
		<path class="st1" d="M1615.3,80l-3.7,7.4l-19.5,0l23.9-47.9h1v0l7.3,0l11.2,0l0,0h1l23.9,47.9l-19.5,0l-3.7-7.4H1615.3z
			 M1626.2,58.1l-4.1,8.2h8.2L1626.2,58.1z"/>
		<path class="st1" d="M1723.8,87.5h-15.4h-2.6h0v0L1682.5,63v24.4h-18.1V39.5h18.1l23.3,24.2V39.5h18V87.5z"/>
		<path class="st1" d="M1760.2,56.6v30.9h-17V56.6h-15.4v-17h15.4h17h15.4v17H1760.2z"/>
	</g>
	
		<linearGradient id="SVGID_00000000938979150701574800000012773152029384961189_" gradientUnits="userSpaceOnUse" x1="400.1043" y1="567.5" x2="1558.8958" y2="567.5">
		<stop  offset="0.4322" style="stop-color:#93278F"/>
		<stop  offset="0.5226" style="stop-color:#FCEE21"/>
	</linearGradient>
	
		<line style="fill:none;stroke:url(#SVGID_00000000938979150701574800000012773152029384961189_);stroke-width:20;stroke-miterlimit:10;" x1="402" y1="679" x2="1557" y2="456"/>
	
		<linearGradient id="SVGID_00000036209080016682371240000010515192148176451507_" gradientUnits="userSpaceOnUse" x1="78" y1="679" x2="726" y2="679">
		<stop  offset="0" style="stop-color:#FFFF33"/>
		<stop  offset="0.33" style="stop-color:#F7931E"/>
		<stop  offset="0.66" style="stop-color:#FF00FF"/>
		<stop  offset="1" style="stop-color:#93278F"/>
	</linearGradient>
	
		<circle style="stroke:url(#SVGID_00000036209080016682371240000010515192148176451507_);stroke-width:20;stroke-miterlimit:10;" cx="402" cy="679" r="314"/>
	
		<linearGradient id="SVGID_00000065765752739666421730000002250542582253180836_" gradientUnits="userSpaceOnUse" x1="1233" y1="456" x2="1881" y2="456">
		<stop  offset="0" style="stop-color:#FFFF33"/>
		<stop  offset="0.33" style="stop-color:#F7931E"/>
		<stop  offset="0.66" style="stop-color:#FF00FF"/>
		<stop  offset="1" style="stop-color:#93278F"/>
	</linearGradient>
	
		<circle style="stroke:url(#SVGID_00000065765752739666421730000002250542582253180836_);stroke-width:20;stroke-miterlimit:10;" cx="1557" cy="456" r="314"/>
	<g>
		<path class="st1" d="M204.1,629.9v-6.9H176v-14.3h42.9v41.7h-54c-11.6,0-21-9.3-21-20.7v-27.5c0-11.4,9.4-20.7,21-20.7h54.6v18.9
			h-52.1v29.4H204.1z"/>
		<path class="st1" d="M254.7,650.3L254.7,650.3l-29.6,0.1v-68.9h24.7v46.1h48.7v22.7H254.7z"/>
		<path class="st1" d="M374.7,609.8c0,7.3-6.2,13.2-14.2,14.1l0,0c0,0,0,0-0.1,0c-0.2,0-0.4,0-0.6,0c-1.4,0.2-4.7,0.6-4.7,2
			c0,0,0,0,0,0.1v24.4h-31.2v-24.4c0-1.3-3.3-1.8-4.7-2c-0.2,0-0.4,0-0.6-0.1c-0.1,0-0.1,0-0.1,0l0,0c-8-0.9-14.2-6.9-14.2-14.1
			v-28.3h19.6h3.6v23.2h24.1v-23.2h3.6h19.6V609.8z"/>
		<path class="st1" d="M455.5,650.3h-54.2v0h-4.6c-9,0-16.3-7.3-16.3-16.3v-36.3c0-9,7.3-16.3,16.3-16.3h9.8h48.1v20.9h-48.1v27h49
			V650.3z"/>
		<path class="st1" d="M461.3,581.5h26.3v68.9h-26.3V581.5z"/>
		<path class="st1" d="M578.9,650.3h-22.1H553h0v0l-33.5-35.1v35.1h-26v-68.9h26l33.5,34.8v-34.8h25.9V650.3z"/>
		<path class="st1" d="M614.6,606.6H657v18.6h-42.5v6.6H657v18.6h-42.5v0h-30v-68.9h1.8v0H657V600h-42.5V606.6z"/>
	</g>
	<g>
		<path class="st1" d="M242.4,764.2h65.5v-12.3h-50.1v-25.4h76.2v74.1H238c-20.6,0-37.3-16.5-37.3-36.7v-48.8
			c0-20.3,16.7-36.7,37.3-36.7h97.1v33.6h-92.7V764.2z"/>
		<path class="st1" d="M472.6,760.1v32.3v8.1v0.2h-77.9h-52.7V678.2H386v81.9H472.6z"/>
		<path class="st1" d="M605,678.2v50.3c0,12.9-11,23.5-25.2,25.1l0,0c0,0-0.1,0-0.2,0c-0.3,0-0.7,0.1-1,0.1
			c-2.6,0.3-8.4,1.1-8.4,3.5c0,0,0,0.1,0,0.1v43.3h-55.5v-43.4c0-2.4-5.8-3.3-8.4-3.5c-0.4,0-0.7-0.1-1.1-0.1c-0.1,0-0.2,0-0.2,0
			l0,0c-14.2-1.6-25.3-12.2-25.3-25.1v-50.3h34.9h6.4v41.2h42.8v-41.2h6.4H605z"/>
	</g>
	<g>
		<path class="st1" d="M1370.1,371.8c0,10.3-8.4,18.7-18.7,18.7h-31.6v23.4h-22.6v-68.7h8.9v-0.1h45.4v0.1
			c10.3,0,18.7,8.4,18.7,18.7V371.8z M1319.8,362.8v8h29v-8H1319.8z"/>
		<path class="st1" d="M1436.5,413.9l-11.8-23.1H1399v23.1h-23.2V345h1.7h21.5h34.4c10.7,0,19.3,8.7,19.3,19.3v7.1
			c0,5.8-2.6,11.1-6.7,14.6l14.3,27.8H1436.5z M1422.7,362.8H1399v8.7h23.7c4.5,0,8.2-1.8,8.2-4.1v-0.6
			C1430.9,364.6,1427.2,362.8,1422.7,362.8z"/>
		<path class="st1" d="M1543,392.9c0,11.6-9.4,21-21,21h-35c-11.6,0-21-9.4-21-21V366c0-11.6,9.4-21,21-21h35c11.6,0,21,9.4,21,21
			V392.9z M1516.9,365.5h-24.8c-3.5,0-6.4,2.9-6.4,6.4v15c0,3.5,2.9,6.4,6.4,6.4h24.8c3.5,0,6.4-2.9,6.4-6.4v-15
			C1523.4,368.4,1520.5,365.5,1516.9,365.5z"/>
		<path class="st1" d="M1578.4,413.8L1578.4,413.8l-29.6,0.1V345h24.7v46.1h48.7v22.7H1578.4z"/>
		<path class="st1" d="M1627.9,345h26.3v68.9h-26.3V345z"/>
		<path class="st1" d="M1745.4,413.9h-22.1h-3.7h0v0l-33.5-35.1v35.1h-26V345h26l33.5,34.8V345h25.9V413.9z"/>
		<path class="st1" d="M1781.1,370.2h42.5v18.6h-42.5v6.6h42.5v18.6h-42.5v0h-30V345h1.8v0h70.6v18.6h-42.5V370.2z"/>
	</g>
	<g>
		<path class="st1" d="M1473.1,467.6v14.1c0,18.4-14.9,33.3-33.3,33.3h-56.2v41.5h-40.3V434.4h15.8v-0.2h80.7v0.2
			C1458.2,434.4,1473.1,449.3,1473.1,467.6z M1435.1,465.7h-51.6V480h51.6V465.7z"/>
		<path class="st1" d="M1630.4,556.5h-42.3l-21-41.1h-45.7v41.1h-41.3V434h3h38.3h61.2c19,0,34.4,15.4,34.4,34.4V481
			c0,10.4-4.6,19.7-11.9,26L1630.4,556.5z M1578.1,472.9c0-4-6.5-7.2-14.6-7.2h-42.2v15.5h42.2c8.1,0,14.6-3.2,14.6-7.2V472.9z"/>
		<path class="st1" d="M1774.2,471.3v47.8c0,20.6-16.7,37.3-37.3,37.3h-62.3c-20.6,0-37.3-16.7-37.3-37.3v-47.8
			c0-20.6,16.7-37.3,37.3-37.3h62.3C1757.5,434,1774.2,450.7,1774.2,471.3z M1739.2,481.9c0-6.3-5.1-11.4-11.4-11.4h-44.1
			c-6.3,0-11.4,5.1-11.4,11.4v26.7c0,6.3,5.1,11.4,11.4,11.4h44.1c6.3,0,11.4-5.1,11.4-11.4V481.9z"/>
	</g>
</g>
</svg>
