<?xml version="1.0" encoding="utf-8"?>
<!-- Generator: Adobe Illustrator 26.0.1, SVG Export Plug-In . SVG Version: 6.00 Build 0)  -->
<svg version="1.1" id="Слой_1" xmlns="http://www.w3.org/2000/svg" xmlns:xlink="http://www.w3.org/1999/xlink" x="0px" y="0px"
	 viewBox="0 0 1920 1062.6" style="enable-background:new 0 0 1920 1062.6;" xml:space="preserve">
<style type="text/css">
	.st0{stroke:url(#SVGID_1_);stroke-width:15;stroke-miterlimit:10;}
	.st1{fill:#FFFFFF;}
	.st2{fill:none;stroke:url(#SVGID_00000029741000456376278890000017436179413942130351_);stroke-width:15;stroke-miterlimit:10;}
	.st3{fill:none;stroke:url(#SVGID_00000097479761016866476770000014183440032552062092_);stroke-width:15;stroke-miterlimit:10;}
	.st4{stroke:url(#SVGID_00000011031354544385837200000014802194305994355376_);stroke-width:15;stroke-miterlimit:10;}
	.st5{stroke:url(#SVGID_00000101812469221140805680000009551570192087625094_);stroke-width:15;stroke-miterlimit:10;}
	.st6{stroke:url(#SVGID_00000090268333554891783810000015688881635344253579_);stroke-width:15;stroke-miterlimit:10;}
</style>
<g id="Слой_1_00000174574818884825707320000009801267105574154916_">
	<g>
		<rect x="0.5" y="-16.9" width="1919" height="1079"/>
		<path d="M1919-16.4v1078H1v-1078H1919 M1920-17.4H0v1080h1920V-17.4L1920-17.4z"/>
	</g>
</g>
<g id="Слой_2_00000121238169835739495010000003675257199915862205_">
	
		<linearGradient id="SVGID_1_" gradientUnits="userSpaceOnUse" x1="308.5" y1="934.4921" x2="1611.5" y2="934.4921" gradientTransform="matrix(1 0 0 -1 0 1045.1746)">
		<stop  offset="0" style="stop-color:#00FFFF"/>
		<stop  offset="1" style="stop-color:#FF00FF"/>
	</linearGradient>
	<path class="st0" d="M1577.8,151.2H342.2c-14.5,0-26.2-8.6-26.2-19.1V89.3c0-10.6,11.7-19.1,26.2-19.1h1235.5
		c14.5,0,26.2,8.6,26.2,19.1V132C1604,142.6,1592.3,151.2,1577.8,151.2z"/>
	<g>
		<path class="st1" d="M402.9,137.4h-24.6v-18.4h-15v18.3h-24.6V82h24.6v18.3h15V82h24.6V137.4z"/>
		<path class="st1" d="M461.4,104.8c0,5.8-5,10.6-11.4,11.3l0,0c0,0,0,0-0.1,0c-0.1,0-0.3,0-0.5,0c-1.2,0.1-3.8,0.5-3.8,1.6
			c0,0,0,0,0,0.1v19.6h-25.1v-19.7c0-1.1-2.6-1.5-3.8-1.6c-0.2,0-0.3,0-0.5,0c0,0-0.1,0-0.1,0l0,0c-6.4-0.7-11.4-5.5-11.4-11.3V82
			h15.8h2.9v18.6h19.4V82h2.9h15.8L461.4,104.8L461.4,104.8z"/>
		<path class="st1" d="M488.9,137.4L488.9,137.4l-25.6,0v-5V87v-5h25.6v0c14.9,0.4,26.9,12.7,26.9,27.7
			C515.8,124.8,503.8,137,488.9,137.4z M489.1,98.5L489.1,98.5h-9v1.9v17.1v1.9h9l0,0c5.6-0.2,10.1-4.8,10.1-10.4
			C499.2,103.3,494.7,98.7,489.1,98.5z"/>
		<path class="st1" d="M566.5,137.4l-9.5-18.6h-20.7v18.6h-18.7V82h1.3h17.3H564c8.6,0,15.5,7,15.5,15.5v5.7c0,4.7-2.1,8.9-5.4,11.8
			l11.5,22.4H566.5z M555.4,96.3h-19.1v7h19.1c3.6,0,6.6-1.5,6.6-3.3v-0.5C562,97.8,559.1,96.3,555.4,96.3z"/>
		<path class="st1" d="M649.4,120.6c0,9.3-7.6,16.9-16.9,16.9h-28.2c-9.3,0-16.9-7.6-16.9-16.9V98.9c0-9.3,7.6-16.9,16.9-16.9h28.2
			c9.3,0,16.9,7.6,16.9,16.9V120.6z M628.5,98.5h-19.9c-2.8,0-5.2,2.3-5.2,5.2v12.1c0,2.8,2.3,5.2,5.2,5.2h19.9
			c2.8,0,5.2-2.3,5.2-5.2v-12.1C633.6,100.9,631.3,98.5,628.5,98.5z"/>
		<path class="st1" d="M709.9,103.6c0,8.3-6.7,15.1-15,15.1h-25.4v18.8h-18.2V82.2h7.1v-0.1h36.5v0.1c8.3,0,15,6.7,15,15V103.6z
			 M669.5,96.4v6.4h23.3v-6.4H669.5z"/>
		<path class="st1" d="M776,137.4h-24.6v-18.4h-15v18.3h-24.6V82h24.6v18.3h15V82H776V137.4z"/>
		<path class="st1" d="M839.8,120.6c0,9.3-7.6,16.9-16.9,16.9h-28.2c-9.3,0-16.9-7.6-16.9-16.9V98.9c0-9.3,7.6-16.9,16.9-16.9h28.2
			c9.3,0,16.9,7.6,16.9,16.9V120.6z M818.8,98.5h-19.9c-2.8,0-5.2,2.3-5.2,5.2v12.1c0,2.8,2.3,5.2,5.2,5.2h19.9
			c2.8,0,5.2-2.3,5.2-5.2v-12.1C824,100.9,821.7,98.5,818.8,98.5z"/>
		<path class="st1" d="M891.5,137.4h-33.5h0h-16.3V82h12.8h11.3h22.2c7.9,0,14.2,6.4,14.2,14.2c0,5.2-2.9,9.7-7.2,11.9
			c6.2,2.2,10.6,8.2,10.6,15.2C905.5,131.1,899.2,137.4,891.5,137.4z M879.7,94.6H859v8.1h21.8c3.6,0,6.5-1.6,6.5-3.6v-0.4
			C887.3,96.5,883.9,94.6,879.7,94.6z M879.7,113.7H859v8.1h21.8c3.6,0,6.5-1.6,6.5-3.6v-0.4C887.3,115.6,883.9,113.7,879.7,113.7z"
			/>
		<path class="st1" d="M907.4,82h21.2v55.4h-21.2V82z"/>
		<path class="st1" d="M990.8,137.4h-43.6h-3.7c-7.2,0-13.1-5.9-13.1-13.1V95.1c0-7.2,5.9-13.1,13.1-13.1h7.8h38.7v16.8h-38.7v21.7
			h39.4L990.8,137.4L990.8,137.4z"/>
		<path class="st1" d="M1074.3,128.9l-4.3,8.6h-22.6L1075,82h1.2l0,0h8.4h13l0,0h1.2l27.6,55.4h-22.6l-4.3-8.6H1074.3z
			 M1086.9,103.5l-4.7,9.5h9.5L1086.9,103.5z"/>
		<path class="st1" d="M1177.1,137.4l-9.5-18.6h-20.7v18.6h-18.7V82h1.3h17.3h27.7c8.6,0,15.6,7,15.6,15.5v5.7
			c0,4.7-2.1,8.9-5.4,11.8l11.5,22.4H1177.1z M1166,96.3h-19.1v7h19.1c3.6,0,6.6-1.5,6.6-3.3v-0.5
			C1172.6,97.8,1169.7,96.3,1166,96.3z"/>
		<path class="st1" d="M1260,120.6c0,9.3-7.6,16.9-16.9,16.9H1215c-9.3,0-16.9-7.6-16.9-16.9V98.9c0-9.3,7.6-16.9,16.9-16.9h28.2
			c9.3,0,16.9,7.6,16.9,16.9V120.6z M1239,98.5h-19.9c-2.8,0-5.2,2.3-5.2,5.2v12.1c0,2.8,2.3,5.2,5.2,5.2h19.9
			c2.8,0,5.2-2.3,5.2-5.2v-12.1C1244.2,100.9,1241.9,98.5,1239,98.5z"/>
		<path class="st1" d="M1309.6,137.4l-26.8-28.2v28.2h-20.9V82h20.9l26.8,29.2l0,0l26.8-29.2h20.9v55.4h-20.9v-28.2L1309.6,137.4
			L1309.6,137.4L1309.6,137.4z"/>
		<path class="st1" d="M1386.1,128.9l-4.3,8.6h-22.6l27.6-55.4h1.2l0,0h8.4h13l0,0h1.2l27.6,55.4h-22.6l-4.3-8.6H1386.1z
			 M1398.8,103.5l-4.7,9.5h9.5L1398.8,103.5z"/>
		<path class="st1" d="M1477.6,101.7v35.7H1458v-35.7h-17.9V82.1h17.9h19.6h17.9v19.6H1477.6z"/>
		<path class="st1" d="M1497.2,82h21.2v55.4h-21.2V82z"/>
		<path class="st1" d="M1580.6,137.4H1537h-3.7c-7.2,0-13.1-5.9-13.1-13.1V95.1c0-7.2,5.9-13.1,13.1-13.1h7.8h38.7v16.8h-38.7v21.7
			h39.4V137.4z"/>
	</g>
	
		<linearGradient id="SVGID_00000095316552380600038410000001698562574580102293_" gradientUnits="userSpaceOnUse" x1="341.9497" y1="428.5873" x2="924.0503" y2="428.5873" gradientTransform="matrix(1 0 0 -1 0 1045.1746)">
		<stop  offset="0" style="stop-color:#00FFFF"/>
		<stop  offset="1" style="stop-color:#FF00FF"/>
	</linearGradient>
	
		<line style="fill:none;stroke:url(#SVGID_00000095316552380600038410000001698562574580102293_);stroke-width:15;stroke-miterlimit:10;" x1="345.5" y1="462.1" x2="920.5" y2="771.1"/>
	
		<linearGradient id="SVGID_00000149340477205080105330000011696065840641092286_" gradientUnits="userSpaceOnUse" x1="917.8677" y1="408.0873" x2="1638.1323" y2="408.0873" gradientTransform="matrix(1 0 0 -1 0 1045.1746)">
		<stop  offset="0" style="stop-color:#00FFFF"/>
		<stop  offset="1" style="stop-color:#FF00FF"/>
	</linearGradient>
	
		<line style="fill:none;stroke:url(#SVGID_00000149340477205080105330000011696065840641092286_);stroke-width:15;stroke-miterlimit:10;" x1="1635.5" y1="503.1" x2="920.5" y2="771.1"/>
	
		<linearGradient id="SVGID_00000072264113584212901000000007400075844587135676_" gradientUnits="userSpaceOnUse" x1="88" y1="583.0873" x2="603" y2="583.0873" gradientTransform="matrix(1 0 0 -1 0 1045.1746)">
		<stop  offset="0" style="stop-color:#FF00FF"/>
		<stop  offset="1" style="stop-color:#659AFF"/>
	</linearGradient>
	
		<circle style="stroke:url(#SVGID_00000072264113584212901000000007400075844587135676_);stroke-width:15;stroke-miterlimit:10;" cx="345.5" cy="462.1" r="250"/>
	
		<linearGradient id="SVGID_00000103267267868140952620000010255776891297590923_" gradientUnits="userSpaceOnUse" x1="663" y1="274.0873" x2="1178" y2="274.0873" gradientTransform="matrix(1 0 0 -1 0 1045.1746)">
		<stop  offset="0" style="stop-color:#9768FF"/>
		<stop  offset="0.4484" style="stop-color:#F40BFF"/>
		<stop  offset="0.5" style="stop-color:#FF00FF"/>
		<stop  offset="1" style="stop-color:#59A6FF"/>
	</linearGradient>
	
		<circle style="stroke:url(#SVGID_00000103267267868140952620000010255776891297590923_);stroke-width:15;stroke-miterlimit:10;" cx="920.5" cy="771.1" r="250"/>
	
		<linearGradient id="SVGID_00000077295625751361417650000008514946927960482487_" gradientUnits="userSpaceOnUse" x1="1378" y1="542.0873" x2="1893" y2="542.0873" gradientTransform="matrix(1 0 0 -1 0 1045.1746)">
		<stop  offset="0" style="stop-color:#A45BFF"/>
		<stop  offset="1" style="stop-color:#00FFFF"/>
	</linearGradient>
	
		<circle style="stroke:url(#SVGID_00000077295625751361417650000008514946927960482487_);stroke-width:15;stroke-miterlimit:10;" cx="1635.5" cy="503.1" r="250"/>
	<g>
		<path class="st1" d="M157.8,413.1v3.3c0,4.3-3.3,7.8-7.4,7.8H138v9.8H129v-28.7h3.5v0h17.9v0C154.5,405.3,157.8,408.8,157.8,413.1
			z M149.4,412.6H138v3.3h11.4V412.6z"/>
		<path class="st1" d="M192.7,434h-12.8v-9.5h-7.8v9.5h-12.8v-28.8h12.8v9.5h7.8v-9.5h12.8V434z"/>
		<path class="st1" d="M206.6,415.7h17.7v7.8h-17.7v2.8h17.7v7.8h-17.7h-12.5v-28.8h0.8h29.5v7.8h-17.7L206.6,415.7L206.6,415.7z"/>
		<path class="st1" d="M261.5,434h-9.2h-1.6l0,0l0,0l-14-14.6V434h-10.9v-28.8h10.9l14,14.5v-14.5h10.8V434z"/>
		<path class="st1" d="M292.3,417c0,3-2.6,5.5-5.9,5.9l0,0c0,0,0,0,0,0c-0.1,0-0.2,0-0.2,0c-0.6,0.1-2,0.3-2,0.8c0,0,0,0,0,0V434
			h-13v-10.2c0-0.6-1.4-0.8-2-0.8c-0.1,0-0.2,0-0.2,0c0,0,0,0,0,0l0,0c-3.3-0.4-5.9-2.9-5.9-5.9v-11.8h8.2h1.5v9.7h10v-9.7h1.5h8.2
			L292.3,417L292.3,417z"/>
		<path class="st1" d="M306.1,433.9L306.1,433.9l-12.4,0v-28.8h10.3v19.2h20.3v9.5H306.1z"/>
		<path class="st1" d="M339.8,429.5l-2.2,4.5h-11.7l14.3-28.8h0.6l0,0h4.4h6.7l0,0h0.6l14.3,28.8h-11.7l-2.2-4.5H339.8z
			 M346.3,416.4l-2.5,4.9h4.9L346.3,416.4z"/>
		<path class="st1" d="M380.6,433.9L380.6,433.9l-12.4,0v-28.8h10.3v19.2h20.3v9.5H380.6z"/>
		<path class="st1" d="M414.3,429.5l-2.2,4.5h-11.7l14.3-28.8h0.6l0,0h4.4h6.7l0,0h0.6l14.3,28.8h-11.7l-2.2-4.5H414.3z
			 M420.8,416.4l-2.5,4.9h4.9L420.8,416.4z"/>
		<path class="st1" d="M478.4,434h-9.2h-1.6l0,0l0,0l-14-14.6V434h-10.9v-28.8h10.9l14,14.5v-14.5h10.8V434z"/>
		<path class="st1" d="M479.9,405.2h11V434h-11V405.2z"/>
		<path class="st1" d="M528,434h-9.2h-1.6l0,0l0,0l-14-14.6V434h-10.9v-28.8h10.9l14,14.5v-14.5H528V434z"/>
		<path class="st1" d="M541.9,415.7h17.7v7.8h-17.7v2.8h17.7v7.8h-17.7h-12.5v-28.8h0.8h29.5v7.8h-17.7L541.9,415.7L541.9,415.7z"/>
	</g>
	<g>
		<path class="st1" d="M287.8,483.4v9c0,11.8-9.6,21.4-21.4,21.4h-36.1v26.7h-25.9V462h10.1v-0.1h51.9v0.1
			C278.2,462,287.8,471.6,287.8,483.4z M263.4,482.2h-33.1v9.1h33.1V482.2z"/>
		<path class="st1" d="M381.8,461.8v78.7h-35v-26.1h-21.4v26.1h-35v-78.7h35v26.1h21.4v-26.1H381.8z"/>
		<path class="st1" d="M422.6,483.1v7.5h48.5v21.2h-48.5v7.5h48.5v21.2h-48.5h-34.3v-78.7h2.1l0,0h80.7v21.2H422.6z"/>
	</g>
	<g>
		<path class="st1" d="M768.7,724.2h-14.5v29h-15.9v-29h-14.5v-15.9h14.5h15.9h14.5V724.2z"/>
		<path class="st1" d="M816.2,726.7c0,4.7-4,8.6-9.3,9.2l0,0c0,0,0,0-0.1,0c-0.1,0-0.2,0-0.4,0c-0.9,0.1-3.1,0.4-3.1,1.3
			c0,0,0,0,0,0v15.9H783v-15.9c0-0.9-2.1-1.2-3.1-1.3c-0.1,0-0.3,0-0.4,0c0,0-0.1,0-0.1,0l0,0c-5.2-0.6-9.3-4.5-9.3-9.2v-18.4H783
			h2.3v15.1H801v-15.1h2.3h12.8L816.2,726.7L816.2,726.7z"/>
		<path class="st1" d="M858.1,753.2l-7.7-15.1h-16.8v15.1h-15.1v-44.9h1.1h14H856c7,0,12.6,5.6,12.6,12.6v4.6c0,3.8-1.7,7.2-4.4,9.5
			l9.3,18.2L858.1,753.2L858.1,753.2z M849.1,719.8h-15.5v5.7h15.5c3,0,5.3-1.2,5.3-2.6v-0.4C854.4,721,852,719.8,849.1,719.8z"/>
		<path class="st1" d="M926,739.5c0,7.6-6.1,13.7-13.7,13.7h-22.8c-7.6,0-13.7-6.1-13.7-13.7v-17.5c0-7.6,6.1-13.7,13.7-13.7h22.8
			c7.6,0,13.7,6.1,13.7,13.7V739.5z M909,721.6h-16.2c-2.3,0-4.2,1.9-4.2,4.2v9.8c0,2.3,1.9,4.2,4.2,4.2H909c2.3,0,4.2-1.9,4.2-4.2
			v-9.8C913.2,723.5,911.3,721.6,909,721.6z"/>
		<path class="st1" d="M947.4,723.6l19.8,7.2c6.6,2.7,11.2,5,11.2,11.2v2.9l0,0c0,0.2,0,0.4,0,0.6c0,4.2-3.4,7.7-7.7,7.7h-34.8
			c-4.2,0-7.7-3.4-7.7-7.7v-7.7h30.6l-19.4-7c-6.6-2.7-11.2-5-11.2-11.2v-2.9l0,0c0-0.2,0-0.5,0-0.8c0-4.2,3.4-7.7,7.7-7.7h34.8
			c4.2,0,7.7,3.4,7.7,7.7v7.7L947.4,723.6L947.4,723.6z"/>
		<path class="st1" d="M980.6,708.2h17.2v44.9h-17.2V708.2z"/>
		<path class="st1" d="M1055.8,753.2h-14.4h-2.4l0,0l0,0l-21.9-22.9v22.9h-17v-44.9h17l21.9,22.7v-22.7h16.9V753.2z"/>
		<path class="st1" d="M1077.6,724.6h27.7v12.1h-27.7v4.3h27.7v12.1h-27.7H1058v-44.9h1.2l0,0h46v12.1h-27.7V724.6z"/>
	</g>
	<g>
		<path class="st1" d="M871.5,804.3h-25.4V855h-27.9v-50.8h-25.4v-27.9h25.4h27.9h25.4V804.3z"/>
		<path class="st1" d="M954.8,776.3v32.3c0,8.3-7.1,15.1-16.2,16.1v0c0,0,0,0-0.1,0c-0.2,0-0.4,0-0.6,0.1c-1.7,0.2-5.4,0.7-5.4,2.3
			c0,0,0,0,0,0.1V855h-35.7v-27.9c0-1.5-3.8-2.1-5.4-2.3c-0.2,0-0.5,0-0.7-0.1c-0.1,0-0.1,0-0.1,0l0,0c-9.2-1-16.2-7.8-16.2-16.1
			v-32.3h22.4h4.1v26.5h27.5v-26.5h4.1H954.8z"/>
		<path class="st1" d="M1054.1,855h-27.2l-13.5-26.4H984V855h-26.5v-78.7h1.9H984h39.3c12.2,0,22.1,9.9,22.1,22.1v8.1
			c0,6.7-3,12.7-7.6,16.7L1054.1,855z M1020.5,801.2c0-2.6-4.2-4.6-9.4-4.6H984v9.9h27.1c5.2,0,9.4-2.1,9.4-4.6V801.2z"/>
	</g>
	<g>
		<path class="st1" d="M1458.8,454.9h-11.6v23.2h-12.8v-23.2h-11.6v-12.8h11.6h12.8h11.6V454.9z"/>
		<path class="st1" d="M1495,478.1l-6.2-12.1h-13.4v12.1h-12.1v-35.9h0.9h11.2h17.9c5.6,0,10.1,4.5,10.1,10.1v3.7
			c0,3-1.3,5.8-3.5,7.6l7.4,14.5H1495z M1487.8,451.4h-12.4v4.5h12.4c2.4,0,4.3-1,4.3-2.1v-0.3
			C1492,452.4,1490.1,451.4,1487.8,451.4z"/>
		<path class="st1" d="M1545.9,456.9c0,3.8-3.2,6.9-7.4,7.4l0,0c0,0,0,0-0.1,0c-0.1,0-0.2,0-0.3,0c-0.8,0.1-2.5,0.3-2.5,1
			c0,0,0,0,0,0v12.7h-16.3v-12.7c0-0.7-1.7-1-2.5-1c-0.1,0-0.2,0-0.3,0c0,0,0,0,0,0l0,0c-4.2-0.5-7.4-3.6-7.4-7.4v-14.8h10.2h1.9
			v12.1h12.6v-12.1h1.9h10.2L1545.9,456.9L1545.9,456.9z"/>
		<path class="st1" d="M1585.8,456.1c0,5.4-4.4,9.8-9.8,9.8h-16.5v12.2h-11.8v-35.8h4.6v0h23.7v0c5.4,0,9.8,4.4,9.8,9.8V456.1z
			 M1559.6,451.4v4.2h15.1v-4.2H1559.6z"/>
		<path class="st1" d="M1611.9,454.9v23.2h-12.7v-23.2h-11.6v-12.7h11.6h12.7h11.6v12.7H1611.9z"/>
		<path class="st1" d="M1665.5,467.1c0,6-4.9,11-10.9,11h-18.3c-6.1,0-10.9-4.9-10.9-11v-14c0-6,4.9-11,10.9-11h18.3
			c6.1,0,10.9,4.9,10.9,11V467.1z M1651.8,452.8h-12.9c-1.8,0-3.3,1.5-3.3,3.3v7.8c0,1.9,1.5,3.3,3.3,3.3h12.9
			c1.8,0,3.3-1.5,3.3-3.3v-7.8C1655.2,454.3,1653.7,452.8,1651.8,452.8z"/>
		<path class="st1" d="M1705.3,456.1c0,5.4-4.4,9.8-9.8,9.8H1679v12.2h-11.8v-35.8h4.6v0h23.7v0c5.4,0,9.8,4.4,9.8,9.8V456.1z
			 M1679,451.4v4.2h15.1v-4.2H1679z"/>
		<path class="st1" d="M1748.8,478.1h-16v-11.9h-9.8v11.9h-16v-35.9h16V454h9.8v-11.9h16V478.1z"/>
		<path class="st1" d="M1768,472.5l-2.8,5.6h-14.7l17.9-35.9h0.8l0,0h5.5h8.4l0,0h0.8l17.9,35.9h-14.7l-2.8-5.6H1768z M1776.2,456.1
			l-3.1,6.2h6.2L1776.2,456.1z"/>
		<path class="st1" d="M1848.2,478.1h-11.5h-2l0,0l0,0l-17.5-18.3v18.3h-13.6v-35.9h13.6l17.5,18.2v-18.2h13.5V478.1z"/>
	</g>
	<g>
		<path class="st1" d="M1580.4,529.5H1555v50.8h-27.9v-50.8h-25.4v-27.9h25.4h27.9h25.4V529.5z"/>
		<path class="st1" d="M1679.7,580.3h-27.2l-13.5-26.4h-29.4v26.4h-26.5v-78.7h1.9h24.6h39.3c12.2,0,22.1,9.9,22.1,22.1v8.1
			c0,6.7-3,12.7-7.6,16.7L1679.7,580.3z M1646.2,526.5c0-2.6-4.2-4.6-9.4-4.6h-27.1v9.9h27.1c5.2,0,9.4-2.1,9.4-4.6V526.5z"/>
		<path class="st1" d="M1765.8,523.1v9c0,11.8-9.6,21.4-21.4,21.4h-36.2v26.7h-25.9v-78.5h10.1v-0.1h51.9v0.1
			C1756.2,501.7,1765.8,511.3,1765.8,523.1z M1741.4,521.9h-33.1v9.1h33.1V521.9z"/>
	</g>
</g>
</svg>
