<?xml version="1.0" encoding="utf-8"?>
<!-- Generator: Adobe Illustrator 26.0.1, SVG Export Plug-In . SVG Version: 6.00 Build 0)  -->
<svg version="1.1" id="Слой_1" xmlns="http://www.w3.org/2000/svg" xmlns:xlink="http://www.w3.org/1999/xlink" x="0px" y="0px"
	 viewBox="0 0 1920 1080" style="enable-background:new 0 0 1920 1080;" xml:space="preserve">
<style type="text/css">
	.st0{fill:url(#SVGID_1_);}
	.st1{fill:#FFFFFF;}
	.st2{fill:none;stroke:url(#SVGID_00000183234442919961250360000008278065133278419878_);stroke-width:20;stroke-miterlimit:10;}
	.st3{fill:none;stroke:url(#SVGID_00000058576328048894161930000009000299659133809309_);stroke-width:20;stroke-miterlimit:10;}
	
		.st4{fill:url(#SVGID_00000013180462103288641200000013150658942619008655_);stroke:url(#SVGID_00000106841963012341758250000013383458803561869458_);stroke-width:20;stroke-miterlimit:10;}
	.st5{fill:url(#SVGID_00000004516517660554299510000009702282408213416330_);}
	.st6{fill:url(#SVGID_00000110471260522702099390000007887481333738606516_);}
	.st7{fill:url(#SVGID_00000045609693530153398830000004116321191772189866_);}
	.st8{fill:url(#SVGID_00000055689906240530335670000006161292117617363383_);}
</style>
<g id="Слой_1_00000050628850746877390590000009187363696069247891_">
	<rect x="-562" y="-435.2" width="3044.4" height="1950"/>
	<g id="hydrophobic_alpihatic">
		<g id="rect">
			<g>
				<path d="M1629,105.4H419.5c-12.5,0-22.6-10.1-22.6-22.6v-99c0-12.5,10.1-22.6,22.6-22.6H1629c12.5,0,22.6,10.1,22.6,22.6v99.1
					C1651.6,95.2,1641.4,105.4,1629,105.4z"/>
				
					<linearGradient id="SVGID_1_" gradientUnits="userSpaceOnUse" x1="396.8799" y1="-4.6621" x2="1651.6479" y2="-4.6621" gradientTransform="matrix(1 0 0 1 0 38)">
					<stop  offset="0" style="stop-color:#662D91"/>
					<stop  offset="1" style="stop-color:#FCEE21"/>
				</linearGradient>
				<path class="st0" d="M1629-24.2c4.4,0,8,3.6,8,8v99.1c0,4.4-3.6,8-8,8H419.5c-4.4,0-8-3.6-8-8v-99.1c0-4.4,3.6-8,8-8L1629-24.2
					 M1629-38.8H419.5c-12.5,0-22.6,10.1-22.6,22.6v99.1c0,12.5,10.1,22.6,22.6,22.6H1629c12.5,0,22.6-10.1,22.6-22.6v-99.1
					C1651.6-28.7,1641.4-38.8,1629-38.8L1629-38.8z"/>
			</g>
		</g>
		<g id="HA">
			<path class="st1" d="M480,60.5h-23.4V43h-14.2v17.4H419V8h23.4v17.3h14.2V8H480V60.5L480,60.5z"/>
			<path class="st1" d="M538,29.5c0,5.6-4.7,10-10.8,10.8l0,0c0,0,0,0-0.1,0c-0.1,0-0.3,0-0.4,0c-1.1,0.1-3.6,0.5-3.6,1.6
				c0,0,0,0,0,0.1v18.6h-23.8V42c0-1.1-2.5-1.4-3.6-1.6c-0.2,0-0.3,0-0.5,0h-0.1l0,0c-6.1-0.7-10.8-5.3-10.8-10.8V8h15h2.7v17.6
				h18.3V8h2.7h15L538,29.5L538,29.5z"/>
			<path class="st1" d="M566.8,60.5L566.8,60.5h-24.3v-4.8V12.6V8h24.3l0,0c14.1,0.4,25.4,12,25.4,26.2S580.9,60,566.8,60.5z
				 M566.9,23.5L566.9,23.5h-8.5v1.8v16.3v1.8h8.5l0,0c5.4-0.2,9.6-4.6,9.6-9.9C576.5,28,572.2,23.7,566.9,23.5z"/>
			<path class="st1" d="M642.9,60.5l-9.1-17.6h-19.6v17.6h-17.7V8h1.3h16.4h26.2c8.1,0,14.7,6.6,14.7,14.7v5.5
				c0,4.5-1.9,8.5-5.1,11.1L661,60.5H642.9z M632.4,21.5h-18.1v6.6h18.1c3.4,0,6.2-1.4,6.2-3.1v-0.5
				C638.7,22.9,635.8,21.5,632.4,21.5z"/>
			<path class="st1" d="M724.1,44.4c0,8.9-7.1,16-16,16h-26.7c-8.9,0-16-7.2-16-16V23.8c0-8.9,7.1-16,16-16h26.7c8.9,0,16,7.1,16,16
				V44.4z M704.2,23.5h-18.9c-2.7,0-4.9,2.1-4.9,4.9v11.5c0,2.7,2.1,4.9,4.9,4.9h18.9c2.7,0,4.9-2.1,4.9-4.9V28.4
				C709.1,25.8,706.9,23.5,704.2,23.5z"/>
			<path class="st1" d="M784.1,28.3c0,7.9-6.4,14.2-14.3,14.2h-24.1v17.8h-17.2V8.1h6.7V8h34.6v0.1c7.9,0,14.3,6.4,14.3,14.3V28.3z
				 M745.7,21.5v6.1h22.1v-6.1H745.7z"/>
			<path class="st1" d="M849.4,60.5H826V43h-14.2v17.4h-23.4V8h23.4v17.3H826V8h23.4V60.5z"/>
			<path class="st1" d="M912.5,44.4c0,8.9-7.1,16-16,16h-26.7c-8.9,0-16-7.2-16-16V23.8c0-8.9,7.1-16,16-16h26.7c8.9,0,16,7.1,16,16
				V44.4z M892.5,23.5h-18.9c-2.7,0-4.9,2.1-4.9,4.9v11.5c0,2.7,2.1,4.9,4.9,4.9h18.9c2.7,0,4.9-2.1,4.9-4.9V28.4
				C897.4,25.8,895.2,23.5,892.5,23.5z"/>
			<path class="st1" d="M964,60.5h-31.8l0,0h-15.5V8h12.1h10.7h21C968,8,974,14,974,21.4c0,4.9-2.7,9.2-6.8,11.3
				c5.8,2.1,10,7.8,10,14.4C977.4,54.4,971.4,60.5,964,60.5z M952.9,19.8h-19.7v7.7h20.7c3.4,0,6.2-1.6,6.2-3.4v-0.4
				C960.1,21.6,956.9,19.8,952.9,19.8z M952.9,38h-19.7v7.7h20.7c3.4,0,6.2-1.6,6.2-3.4v-0.4C960.1,39.7,956.9,38,952.9,38z"/>
			<path class="st1" d="M981.7,8h20.1v52.5h-20.1V8z"/>
			<path class="st1" d="M1063.4,60.5h-41.3l0,0h-3.5c-6.8,0-12.4-5.6-12.4-12.4V20.4c0-6.8,5.6-12.4,12.4-12.4h7.4h36.7v16H1026
				v20.6h37.3L1063.4,60.5L1063.4,60.5z"/>
			<path class="st1" d="M1147.8,52.3l-4.1,8.1h-21.4l26.2-52.5h1.2l0,0h8h12.3l0,0h1.2l26.2,52.5h-21.4l-4.1-8.1H1147.8z
				 M1159.8,28.3l-4.5,9h9L1159.8,28.3z"/>
			<path class="st1" d="M1224.2,60.4L1224.2,60.4l-22.6,0.1V8h18.8V43h37.1v17.3H1224.2L1224.2,60.4z"/>
			<path class="st1" d="M1262,8h20.1v52.5H1262V8z"/>
			<path class="st1" d="M1342.1,28.3c0,7.9-6.4,14.2-14.3,14.2h-24.1v17.8h-17.2V8.1h6.7V8h34.6v0.1c7.9,0,14.3,6.4,14.3,14.3
				L1342.1,28.3L1342.1,28.3z M1303.7,21.5v6.1h22.1v-6.1H1303.7z"/>
			<path class="st1" d="M1407.3,60.5H1384V43h-14.2v17.4h-23.4V8h23.4v17.3h14.2V8h23.4V60.5z"/>
			<path class="st1" d="M1437.1,52.3l-4.1,8.1h-21.4l26.2-52.5h1.2l0,0h8h12.3l0,0h1.2l26.2,52.5h-21.4l-4.1-8.1H1437.1z
				 M1449.1,28.3l-4.5,9h9L1449.1,28.3z"/>
			<path class="st1" d="M1526.5,26.6v33.9h-18.6V26.6h-16.9V8h16.9h18.6h16.9v18.6H1526.5z"/>
			<path class="st1" d="M1547.7,8h20.1v52.5h-20.1V8z"/>
			<path class="st1" d="M1629.4,60.5h-41.3l0,0h-3.5c-6.8,0-12.4-5.6-12.4-12.4V20.4c0-6.8,5.6-12.4,12.4-12.4h7.4h36.7v16H1592
				v20.6h37.3L1629.4,60.5L1629.4,60.5z"/>
		</g>
		<g>
			
				<linearGradient id="SVGID_00000003076733535129530250000002212071466982805413_" gradientUnits="userSpaceOnUse" x1="316.0036" y1="389.3221" x2="973.585" y2="389.3221" gradientTransform="matrix(1 0 0 1 0 38)">
				<stop  offset="0" style="stop-color:#662D91"/>
				<stop  offset="1" style="stop-color:#FCEE21"/>
			</linearGradient>
			
				<line style="fill:none;stroke:url(#SVGID_00000003076733535129530250000002212071466982805413_);stroke-width:20;stroke-miterlimit:10;" x1="318.5" y1="510.1" x2="971.1" y2="344.5"/>
		</g>
		
			<linearGradient id="SVGID_00000165222785701674906460000007787180325690609039_" gradientUnits="userSpaceOnUse" x1="966.6534" y1="616.7798" x2="1606.8297" y2="616.7798" gradientTransform="matrix(1 0 0 1 0 38)">
			<stop  offset="0" style="stop-color:#662D91"/>
			<stop  offset="1" style="stop-color:#FCEE21"/>
		</linearGradient>
		
			<line style="fill:none;stroke:url(#SVGID_00000165222785701674906460000007787180325690609039_);stroke-width:20;stroke-miterlimit:10;" x1="1602.8" y1="517.4" x2="970.6" y2="792.1"/>
		
			<linearGradient id="SVGID_00000018926990202125435130000011109877563550603702_" gradientUnits="userSpaceOnUse" x1="969.9568" y1="421.1556" x2="969.9568" y2="402.4722" gradientTransform="matrix(1 0 0 -0.5407 -1.998244e-04 786.6561)">
			<stop  offset="0" style="stop-color:#9B716A"/>
			<stop  offset="1.909441e-02" style="stop-color:#A07767"/>
			<stop  offset="0.1053" style="stop-color:#B08D5A"/>
			<stop  offset="0.207" style="stop-color:#BD9E50"/>
			<stop  offset="0.333" style="stop-color:#C6A949"/>
			<stop  offset="0.5096" style="stop-color:#CCB045"/>
			<stop  offset="1" style="stop-color:#CDB244"/>
		</linearGradient>
		
			<linearGradient id="SVGID_00000037694136313006734150000008366566134691910076_" gradientUnits="userSpaceOnUse" x1="969.9568" y1="323.1693" x2="969.9568" y2="485.313" gradientTransform="matrix(1 0 0 -0.5407 -1.998244e-04 786.6561)">
			<stop  offset="0" style="stop-color:#C7AA49"/>
			<stop  offset="1" style="stop-color:#9C7369"/>
		</linearGradient>
		
			<rect x="970" y="524.2" style="fill:url(#SVGID_00000018926990202125435130000011109877563550603702_);stroke:url(#SVGID_00000037694136313006734150000008366566134691910076_);stroke-width:20;stroke-miterlimit:10;" width="0" height="87.7"/>
		<g id="circle_val">
			<circle cx="970.6" cy="344" r="194.8"/>
			
				<linearGradient id="SVGID_00000083769215011420904380000014768257517371715987_" gradientUnits="userSpaceOnUse" x1="775.8139" y1="306.0345" x2="1165.4633" y2="306.0345" gradientTransform="matrix(1 0 0 1 0 38)">
				<stop  offset="0" style="stop-color:#CFB443"/>
				<stop  offset="1" style="stop-color:#662D91"/>
			</linearGradient>
			<path style="fill:url(#SVGID_00000083769215011420904380000014768257517371715987_);" d="M970.6,163.8
				c48.1,0,93.4,18.7,127.4,52.8c34,34,52.8,79.3,52.8,127.4s-18.7,93.4-52.8,127.4c-34,34.1-79.3,52.8-127.4,52.8
				s-93.4-18.7-127.4-52.8c-34.1-34-52.8-79.3-52.8-127.4s18.7-93.4,52.8-127.4C877.2,182.5,922.5,163.8,970.6,163.8 M970.6,149.2
				c-107.6,0-194.8,87.2-194.8,194.8S863,538.9,970.6,538.9s194.8-87.2,194.8-194.8S1078.3,149.2,970.6,149.2L970.6,149.2z"/>
		</g>
		<g id="circle_ala">
			<circle cx="318" cy="509.6" r="194.8"/>
			
				<linearGradient id="SVGID_00000060719196720326101820000003005594065264671633_" gradientUnits="userSpaceOnUse" x1="123.1513" y1="471.6355" x2="512.8006" y2="471.6355" gradientTransform="matrix(1 0 0 1 0 38)">
				<stop  offset="0" style="stop-color:#FCEE21"/>
				<stop  offset="1" style="stop-color:#936770"/>
			</linearGradient>
			<path style="fill:url(#SVGID_00000060719196720326101820000003005594065264671633_);" d="M318,329.4c48.1,0,93.4,18.7,127.4,52.8
				s52.8,79.3,52.8,127.4s-18.7,93.4-52.8,127.4c-34,34.1-79.3,52.8-127.4,52.8s-93.4-18.7-127.4-52.8
				c-34.1-34-52.8-79.3-52.8-127.4s18.7-93.4,52.8-127.4S269.9,329.4,318,329.4 M318,314.8c-107.6,0-194.8,87.2-194.8,194.8
				S210.3,704.5,318,704.5s194.8-87.2,194.8-194.8S425.6,314.8,318,314.8L318,314.8z"/>
		</g>
		<g id="circle_leu">
			<circle cx="970.6" cy="792.1" r="194.8"/>
			
				<linearGradient id="SVGID_00000096025613367853557110000008604188917336304554_" gradientUnits="userSpaceOnUse" x1="775.8139" y1="754.1312" x2="1165.4633" y2="754.1312" gradientTransform="matrix(1 0 0 1 0 38)">
				<stop  offset="0" style="stop-color:#FCEE21"/>
				<stop  offset="1" style="stop-color:#936770"/>
			</linearGradient>
			<path style="fill:url(#SVGID_00000096025613367853557110000008604188917336304554_);" d="M970.6,611.9
				c48.1,0,93.4,18.7,127.4,52.8c34,34,52.8,79.3,52.8,127.4c0,48.1-18.7,93.4-52.8,127.4c-34,34-79.3,52.8-127.4,52.8
				s-93.4-18.7-127.4-52.8c-34.1-34-52.8-79.3-52.8-127.4c0-48.1,18.7-93.4,52.8-127.4C877.2,630.6,922.5,611.9,970.6,611.9
				 M970.6,597.3c-107.6,0-194.8,87.2-194.8,194.8S863,987,970.6,987s194.8-87.2,194.8-194.8S1078.3,597.3,970.6,597.3L970.6,597.3z
				"/>
		</g>
		<g id="circle_ile">
			<circle cx="1602.8" cy="517.4" r="194.8"/>
			
				<linearGradient id="SVGID_00000090254122948551491940000010836457551493854126_" gradientUnits="userSpaceOnUse" x1="1408.0199" y1="479.4285" x2="1797.6692" y2="479.4285" gradientTransform="matrix(1 0 0 1 0 38)">
				<stop  offset="0" style="stop-color:#D0B542"/>
				<stop  offset="1" style="stop-color:#662D91"/>
			</linearGradient>
			<path style="fill:url(#SVGID_00000090254122948551491940000010836457551493854126_);" d="M1602.8,337.2
				c48.1,0,93.4,18.7,127.4,52.8c34,34.1,52.8,79.3,52.8,127.4s-18.7,93.4-52.8,127.4c-34,34.1-79.3,52.8-127.4,52.8
				s-93.4-18.7-127.4-52.8c-34-34-52.8-79.3-52.8-127.4s18.7-93.4,52.8-127.4S1554.7,337.2,1602.8,337.2 M1602.8,322.6
				c-107.6,0-194.8,87.2-194.8,194.8s87.2,194.8,194.8,194.8s194.8-87.2,194.8-194.8S1710.5,322.6,1602.8,322.6L1602.8,322.6z"/>
		</g>
		<g id="alanine">
			<path class="st1" d="M165.6,486.5l-3,5.9h-15.7l19.2-38.5h0.9l0,0h5.8h9l0,0h0.8l19.2,38.5h-15.6l-3-5.9H165.6z M174.4,468.8
				l-3.3,6.6h6.6L174.4,468.8z"/>
			<path class="st1" d="M221.4,492.4L221.4,492.4h-16.6v-38.5h13.8v25.7h27.2v12.7L221.4,492.4L221.4,492.4z"/>
			<path class="st1" d="M269.4,486.5l-3,5.9h-15.7l19.2-38.5h0.9l0,0h5.8h9l0,0h0.9l19.2,38.5h-15.7l-3-5.9H269.4z M278.1,468.8
				l-3.3,6.6h6.6L278.1,468.8z"/>
			<path class="st1" d="M358.4,492.4H346h-2l0,0l0,0l-18.7-19.6v19.6h-14.5v-38.5h14.5l18.7,19.5v-19.5h14.4L358.4,492.4
				L358.4,492.4z"/>
			<path class="st1" d="M366.3,453.9H381v38.5h-14.7V453.9z"/>
			<path class="st1" d="M435.3,492.4h-12.4h-2l0,0l0,0l-18.7-19.6v19.6h-14.5v-38.5h14.5l18.7,19.5v-19.5h14.4V492.4L435.3,492.4z"
				/>
			<path class="st1" d="M456.5,467.9h23.8v10.4h-23.8v3.7h23.8v10.4h-23.8l0,0h-16.8V454h1.1l0,0h39.5v10.4h-23.8V467.9L456.5,467.9
				z"/>
		</g>
		<g id="ALA">
			<path class="st1" d="M258.7,569.3h-29.9l-5.1,10.1h-26.8l32.7-65.7h1.4l0,0h10h15.4l0,0h1.4l32.7,65.7h-26.8L258.7,569.3z
				 M249.3,550.5l-5.6-11.3l-5.6,11.3H249.3z"/>
			<path class="st1" d="M363.1,557.7V575v4.4v0.1h-41.7h-28.2v-65.7h23.6v43.8L363.1,557.7L363.1,557.7z"/>
			<path class="st1" d="M423.2,569.3h-29.9l-5.1,10.1h-26.8l32.7-65.7h1.4l0,0h10h15.4l0,0h1.4l32.7,65.7h-26.8L423.2,569.3z
				 M413.8,550.5l-5.6-11.3l-5.6,11.3H413.8z"/>
		</g>
		<g id="aline">
			<path class="st1" d="M886.6,324l-3.5,7.7h-18.5l22.6-49.7h1l0,0h6.9h10.6l0,0h1l22.6,49.7h-18.5l-3.5-7.7H886.6z M896.9,301.2
				l-3.9,8.6h7.8L896.9,301.2z"/>
			<path class="st1" d="M950.2,331.6L950.2,331.6l-19.5,0.1V282H947v33.2h32v16.4H950.2z"/>
			<path class="st1" d="M982.8,281.9h17.3v49.7h-17.3V281.9z"/>
			<path class="st1" d="M1059.3,331.7h-14.5h-2.4l0,0l0,0l-22.1-25.3v25.3h-17.1V282h17.1l22.1,25.1V282h16.9V331.7L1059.3,331.7z"
				/>
			<path class="st1" d="M1082.1,300.1h28v13.4h-28v4.8h28v13.3h-28l0,0h-19.7V282h1.2l0,0h46.5v13.3h-28V300.1L1082.1,300.1z"/>
			<g id="v">
				<path class="st1" d="M861.8,331.7h-19.5L819.7,282h18.5l3.5,7.7l6.4,14.2l3.9,8.6l3.9-8.6l6.4-14.2l3.5-7.7h18.5L861.8,331.7z"
					/>
			</g>
		</g>
		<g id="AL">
			<path class="st1" d="M974.5,416.1h-32.6l-5.6,11.1h-29.2l35.7-71.6h1.6l0,0h10.9H972l0,0h1.6l35.7,71.6H980L974.5,416.1z
				 M964.4,395.6l-6.1-12.3l-6.1,12.3H964.4z"/>
			<path class="st1" d="M1088.4,403.5v18.9v4.8v0.1h-45.5h-30.8v-71.6h25.7v47.8H1088.4L1088.4,403.5z"/>
		</g>
		<g id="leucine">
			<path class="st1" d="M825.4,784.2L825.4,784.2l-18.3,0.1v-42.6h15.3v28.4h30.1v14H825.4z"/>
			<path class="st1" d="M875.3,757.3h26.3v11.5h-26.3v4.1h26.3v11.5h-26.3h-18.5v-42.6h1.2l0,0h43.5v11.5h-26.3L875.3,757.3
				L875.3,757.3z"/>
			<path class="st1" d="M952,770c0,7.9-6.4,14.3-14.3,14.3h-17.2c-7.9,0-14.3-6.4-14.3-14.3v-28.2h14.3v23.1c0,3.3,2.6,5.9,5.9,5.9
				h5.4c3.3,0,5.9-2.6,5.9-5.9v-23.1h14.4L952,770L952,770z"/>
			<path class="st1" d="M1002.2,784.3h-33.5h-2.8c-5.6,0-10-4.5-10-10v-22.4c0-5.6,4.5-10,10-10h6h29.7v13h-29.7v16.7h30.3
				L1002.2,784.3L1002.2,784.3z"/>
			<path class="st1" d="M1006,741.8h16.3v42.6H1006V741.8z"/>
			<path class="st1" d="M1080.8,784.3h-13.6h-2.3l0,0l0,0l-20.7-21.7v21.7H1028v-42.6h16.1l20.7,21.5v-21.5h16V784.3L1080.8,784.3z"
				/>
			<path class="st1" d="M1106.1,757.3h26.2v11.5h-26.2v4.1h26.2v11.5h-26.2h-18.5v-42.6h1.2l0,0h43.6v11.5h-26.2L1106.1,757.3
				L1106.1,757.3z"/>
		</g>
		<g id="LEU">
			<path class="st1" d="M927.1,851.6v18.9v4.8v0.1h-45.5h-30.8v-71.6h25.7v47.8H927.1L927.1,851.6z"/>
			<path class="st1" d="M963.4,822.9v6.8h44.1V849h-44.1v6.8h44.1v19.3h-44.1h-31.2v-71.6h1.9h73.4v19.3L963.4,822.9L963.4,822.9z"
				/>
			<path class="st1" d="M1087.6,803.6v47.5c0,13.3-10.8,24.2-24.2,24.2h-29c-13.3,0-24.2-10.8-24.2-24.2v-47.5h24.2v38.9
				c0,5.6,4.5,10,10,10h9c5.6,0,10-4.5,10-10v-38.9H1087.6z"/>
		</g>
		<g id="isoleucine">
			<path class="st1" d="M1441.2,460.6h11.8v29.8h-11.8V460.6z"/>
			<path class="st1" d="M1470.6,470.9l13.6,4.8c4.6,1.8,7.7,3.3,7.7,7.4v1.9l0,0c0,0.1,0,0.3,0,0.4c0,2.8-2.3,5.1-5.3,5.1h-23.9
				c-2.9,0-5.3-2.2-5.3-5.1v-5.1h20.9l-13.2-4.7c-4.6-1.8-7.7-3.3-7.7-7.4v-1.9l0,0c0-0.2,0-0.3,0-0.5c0-2.8,2.3-5.1,5.3-5.1h23.9
				c2.9,0,5.3,2.2,5.3,5.1v5.1L1470.6,470.9L1470.6,470.9z"/>
			<path class="st1" d="M1531.1,481.4c0,5-4.2,9.1-9.4,9.1H1506c-5.2,0-9.4-4.1-9.4-9.1v-11.6c0-5,4.2-9.1,9.4-9.1h15.7
				c5.2,0,9.4,4.1,9.4,9.1V481.4z M1519.5,469.5h-11.1c-1.6,0-2.8,1.3-2.8,2.7v6.5c0,1.6,1.3,2.8,2.8,2.8h11.1
				c1.6,0,2.8-1.3,2.8-2.8v-6.5C1522.3,470.8,1521,469.5,1519.5,469.5z"/>
			<path class="st1" d="M1547.6,490.4L1547.6,490.4h-13.2v-29.8h11v20h21.8v9.8H1547.6z"/>
			<path class="st1" d="M1583.8,471.5h19v8h-19v2.8h19v8h-19h-13.4v-29.8h0.8l0,0h31.6v8h-19L1583.8,471.5L1583.8,471.5z"/>
			<path class="st1" d="M1638.8,480.4c0,5.6-4.7,10-10.3,10H1616c-5.7,0-10.3-4.5-10.3-10v-19.8h10.3v16.2c0,2.3,1.9,4.2,4.3,4.2
				h3.9c2.3,0,4.3-1.9,4.3-4.2v-16.2h10.3V480.4L1638.8,480.4z"/>
			<path class="st1" d="M1675.1,490.4h-24.3h-2c-4,0-7.3-3.1-7.3-7v-15.7c0-3.9,3.2-7,7.3-7h4.4h21.5v9.1h-21.5v11.7h21.9V490.4
				L1675.1,490.4z"/>
			<path class="st1" d="M1677.9,460.6h11.8v29.8h-11.8V460.6z"/>
			<path class="st1" d="M1731.8,490.4h-9.8h-1.7l0,0l0,0l-15-15.2v15.2h-11.6v-29.8h11.6l15,15.1v-15.1h11.6L1731.8,490.4
				L1731.8,490.4z"/>
			<path class="st1" d="M1748.1,471.5h19v8h-19v2.8h19v8h-19h-13.4v-29.8h0.8l0,0h31.6v8h-19L1748.1,471.5L1748.1,471.5z"/>
		</g>
		<g id="ILE">
			<path class="st1" d="M1513.9,587.3V514h28.1v73.3H1513.9z"/>
			<path class="st1" d="M1624.1,562.9v19.3v4.9v0.1h-46.6H1546v-73.3h26.3v49L1624.1,562.9L1624.1,562.9z"/>
			<path class="st1" d="M1661.3,533.7v7h45.2v19.8h-45.2v7h45.2v19.8h-45.2h-31.9V514h1.9h75.1v19.8L1661.3,533.7L1661.3,533.7z"/>
		</g>
		<g id="V">
			<path class="st1" d="M940.1,355.5l-35.7,71.6h-30.8L838,355.5h29.2l5.6,11.1l10.2,20.5l6.1,12.3l6.1-12.3l10.2-20.5l5.6-11.1
				H940.1L940.1,355.5z"/>
		</g>
	</g>
</g>
</svg>
