<?xml version="1.0" encoding="utf-8"?>
<!-- Generator: Adobe Illustrator 26.0.1, SVG Export Plug-In . SVG Version: 6.00 Build 0)  -->
<svg version="1.1" id="Слой_1" xmlns="http://www.w3.org/2000/svg" xmlns:xlink="http://www.w3.org/1999/xlink" x="0px" y="0px"
	 viewBox="0 0 1920 1083.6" style="enable-background:new 0 0 1920 1083.6;" xml:space="preserve">
<style type="text/css">
	.st0{fill:url(#SVGID_1_);}
	.st1{fill:#FFFFFF;}
	.st2{fill:none;stroke:url(#SVGID_00000176014938528735577790000000153621952952374416_);stroke-width:20;stroke-miterlimit:10;}
	.st3{fill:none;stroke:url(#SVGID_00000075124479841211998860000006833919557012758663_);stroke-width:20;stroke-miterlimit:10;}
	.st4{fill:none;stroke:url(#SVGID_00000153700695047127994890000016691153940850493845_);stroke-width:20;stroke-miterlimit:10;}
	.st5{fill:url(#SVGID_00000069399261112334688510000001832269434651706027_);}
	.st6{fill:url(#SVGID_00000013899604083634309110000009193855381051213502_);}
	.st7{fill:url(#SVGID_00000116224635197739156130000005316171833219851928_);}
	.st8{fill:url(#SVGID_00000149368974964828352440000002800545430745770380_);}
</style>
<g id="Слой_1_00000050628850746877390590000009187363696069247891_">
	<rect x="-628" y="-370.4" width="3044.4" height="1950"/>
	<g id="hydrophobic_alpihatic">
		<g id="rect">
			<g>
				<path d="M1563,149.9H353.6c-12.5,0-22.6-7-22.6-15.7V65.6c0-8.6,10.1-15.7,22.6-15.7h1209.6c12.5,0,22.6,7,22.6,15.7v68.7
					C1585.6,142.8,1575.5,149.9,1563,149.9z"/>
				
					<linearGradient id="SVGID_1_" gradientUnits="userSpaceOnUse" x1="330.9632" y1="61.9365" x2="1585.7313" y2="61.9365" gradientTransform="matrix(1 0 0 1 0 38)">
					<stop  offset="0" style="stop-color:#662D91"/>
					<stop  offset="1" style="stop-color:#FCEE21"/>
				</linearGradient>
				<path class="st0" d="M1563,60.1c4.4,0,8,2.5,8,5.5v68.7c0,3-3.6,5.5-8,5.5H353.6c-4.4,0-8-2.5-8-5.5V65.6c0-3,3.6-5.5,8-5.5
					L1563,60.1 M1563,49.9H353.6c-12.5,0-22.6,7-22.6,15.7v68.7c0,8.6,10.1,15.7,22.6,15.7h1209.6c12.5,0,22.6-7,22.6-15.7V65.6
					C1585.6,57,1575.5,49.9,1563,49.9L1563,49.9z"/>
			</g>
		</g>
		<g id="HA">
			<path class="st1" d="M414.1,125.2h-23.4v-17.4h-14.2v17.4h-23.4V72.7h23.4v17.3h14.2V72.7h23.4V125.2L414.1,125.2z"/>
			<path class="st1" d="M472.1,94.3c0,5.6-4.7,10-10.8,10.8l0,0c0,0,0,0-0.1,0c-0.1,0-0.3,0-0.4,0c-1.1,0.1-3.6,0.5-3.6,1.6
				c0,0,0,0,0,0.1v18.6h-23.8v-18.6c0-1.1-2.5-1.4-3.6-1.6c-0.2,0-0.3,0-0.5,0h-0.1l0,0c-6.1-0.7-10.8-5.3-10.8-10.8V72.7h15h2.7
				v17.6h18.3V72.7h2.7h15L472.1,94.3L472.1,94.3z"/>
			<path class="st1" d="M500.9,125.2L500.9,125.2h-24.3v-4.8V77.4v-4.7h24.3l0,0c14.1,0.4,25.4,12,25.4,26.2S515,124.8,500.9,125.2z
				 M500.9,88.3L500.9,88.3h-8.5v1.8v16.3v1.8h8.5l0,0c5.4-0.2,9.6-4.6,9.6-9.9S506.3,88.5,500.9,88.3z"/>
			<path class="st1" d="M577,125.2l-9.1-17.6h-19.6v17.6h-17.7V72.7h1.3h16.4h26.2c8.1,0,14.7,6.6,14.7,14.7v5.5
				c0,4.5-1.9,8.5-5.1,11.1l10.9,21.2H577z M566.5,86.3h-18.1v6.6h18.1c3.4,0,6.2-1.4,6.2-3.1v-0.5
				C572.7,87.6,569.9,86.3,566.5,86.3z"/>
			<path class="st1" d="M658.2,109.2c0,8.9-7.1,16-16,16h-26.7c-8.9,0-16-7.2-16-16V88.6c0-8.9,7.1-16,16-16h26.7
				c8.9,0,16,7.1,16,16V109.2z M638.3,88.3h-18.9c-2.7,0-4.9,2.1-4.9,4.9v11.5c0,2.7,2.1,4.9,4.9,4.9h18.9c2.7,0,4.9-2.1,4.9-4.9
				V93.2C643.2,90.6,641,88.3,638.3,88.3z"/>
			<path class="st1" d="M718.2,93.1c0,7.9-6.4,14.2-14.3,14.2h-24.1v17.8h-17.2V72.8h6.7v-0.1h34.6v0.1c7.9,0,14.3,6.4,14.3,14.3
				V93.1z M679.8,86.3v6.1h22.1v-6.1H679.8z"/>
			<path class="st1" d="M783.4,125.2h-23.4v-17.4h-14.2v17.4h-23.4V72.7h23.4v17.3h14.2V72.7h23.4V125.2z"/>
			<path class="st1" d="M846.6,109.2c0,8.9-7.1,16-16,16h-26.7c-8.9,0-16-7.2-16-16V88.6c0-8.9,7.1-16,16-16h26.7
				c8.9,0,16,7.1,16,16V109.2z M826.6,88.3h-18.9c-2.7,0-4.9,2.1-4.9,4.9v11.5c0,2.7,2.1,4.9,4.9,4.9h18.9c2.7,0,4.9-2.1,4.9-4.9
				V93.2C831.5,90.6,829.3,88.3,826.6,88.3z"/>
			<path class="st1" d="M898.1,125.2h-31.8l0,0h-15.5V72.7h12.1h10.7h21c7.4,0,13.4,6,13.4,13.4c0,4.9-2.7,9.2-6.8,11.3
				c5.8,2.1,10,7.8,10,14.4C911.4,119.2,905.5,125.2,898.1,125.2z M887,84.6h-19.7v7.7H888c3.4,0,6.2-1.6,6.2-3.4v-0.4
				C894.2,86.4,891,84.6,887,84.6z M887,102.7h-19.7v7.7H888c3.4,0,6.2-1.6,6.2-3.4v-0.4C894.2,104.5,891,102.7,887,102.7z"/>
			<path class="st1" d="M915.8,72.7h20.1v52.5h-20.1V72.7z"/>
			<path class="st1" d="M997.5,125.2h-41.3l0,0h-3.5c-6.8,0-12.4-5.6-12.4-12.4V85.2c0-6.8,5.6-12.4,12.4-12.4h7.4h36.7v16h-36.7
				v20.6h37.3L997.5,125.2L997.5,125.2z"/>
			<path class="st1" d="M1081.9,117.1l-4.1,8.1h-21.4l26.2-52.5h1.2l0,0h8h12.3l0,0h1.2l26.2,52.5H1110l-4.1-8.1H1081.9z
				 M1093.9,93.1l-4.5,9h9L1093.9,93.1z"/>
			<path class="st1" d="M1158.3,125.1L1158.3,125.1l-22.6,0.1V72.7h18.8v35.1h37.1v17.3H1158.3L1158.3,125.1z"/>
			<path class="st1" d="M1196.1,72.7h20.1v52.5h-20.1V72.7z"/>
			<path class="st1" d="M1276.2,93.1c0,7.9-6.4,14.2-14.3,14.2h-24.1v17.8h-17.2V72.8h6.7v-0.1h34.6v0.1c7.9,0,14.3,6.4,14.3,14.3
				L1276.2,93.1L1276.2,93.1z M1237.8,86.3v6.1h22.1v-6.1H1237.8z"/>
			<path class="st1" d="M1341.4,125.2H1318v-17.4h-14.2v17.4h-23.4V72.7h23.4v17.3h14.2V72.7h23.4V125.2z"/>
			<path class="st1" d="M1371.2,117.1l-4.1,8.1h-21.4l26.2-52.5h1.2l0,0h8h12.3l0,0h1.2l26.2,52.5h-21.4l-4.1-8.1H1371.2z
				 M1383.2,93.1l-4.5,9h9L1383.2,93.1z"/>
			<path class="st1" d="M1460.6,91.3v33.9H1442V91.3H1425V72.7h16.9h18.6h16.9v18.6H1460.6z"/>
			<path class="st1" d="M1481.8,72.7h20.1v52.5h-20.1V72.7z"/>
			<path class="st1" d="M1563.5,125.2h-41.3l0,0h-3.5c-6.8,0-12.4-5.6-12.4-12.4V85.2c0-6.8,5.6-12.4,12.4-12.4h7.4h36.7v16h-36.7
				v20.6h37.3L1563.5,125.2L1563.5,125.2z"/>
		</g>
		<g>
			
				<linearGradient id="SVGID_00000057862893471171599500000011991638343974625970_" gradientUnits="userSpaceOnUse" x1="250.0869" y1="454.0919" x2="907.6683" y2="454.0919" gradientTransform="matrix(1 0 0 1 0 38)">
				<stop  offset="0" style="stop-color:#662D91"/>
				<stop  offset="1" style="stop-color:#FCEE21"/>
			</linearGradient>
			
				<line style="fill:none;stroke:url(#SVGID_00000057862893471171599500000011991638343974625970_);stroke-width:20;stroke-miterlimit:10;" x1="252.5" y1="574.9" x2="905.2" y2="409.3"/>
		</g>
		
			<linearGradient id="SVGID_00000179614557152789058270000010129888228692688562_" gradientUnits="userSpaceOnUse" x1="900.7366" y1="681.5497" x2="1540.9131" y2="681.5497" gradientTransform="matrix(1 0 0 1 0 38)">
			<stop  offset="0" style="stop-color:#662D91"/>
			<stop  offset="1" style="stop-color:#FCEE21"/>
		</linearGradient>
		
			<line style="fill:none;stroke:url(#SVGID_00000179614557152789058270000010129888228692688562_);stroke-width:20;stroke-miterlimit:10;" x1="1536.9" y1="582.2" x2="904.7" y2="856.9"/>
		
			<linearGradient id="SVGID_00000054965567126520500290000014647079736864373403_" gradientUnits="userSpaceOnUse" x1="904.6603" y1="400.6274" x2="904.6603" y2="861.5219" gradientTransform="matrix(1 -3.812319e-04 2.579165e-03 0.1616 -1.562 537.8478)">
			<stop  offset="0" style="stop-color:#9C7369"/>
			<stop  offset="1" style="stop-color:#C7AA49"/>
		</linearGradient>
		
			<line style="fill:none;stroke:url(#SVGID_00000054965567126520500290000014647079736864373403_);stroke-width:20;stroke-miterlimit:10;" x1="904.7" y1="602.2" x2="904.7" y2="676.7"/>
		<g id="circle_val">
			<circle cx="904.7" cy="408.8" r="194.8"/>
			
				<linearGradient id="SVGID_00000076574188116249733220000010307766507172315298_" gradientUnits="userSpaceOnUse" x1="709.8972" y1="370.8044" x2="1099.5465" y2="370.8044" gradientTransform="matrix(1 0 0 1 0 38)">
				<stop  offset="0" style="stop-color:#CFB443"/>
				<stop  offset="1" style="stop-color:#662D91"/>
			</linearGradient>
			<path style="fill:url(#SVGID_00000076574188116249733220000010307766507172315298_);" d="M904.7,228.6
				c48.1,0,93.4,18.7,127.4,52.8c34,34,52.8,79.3,52.8,127.4s-18.7,93.4-52.8,127.4c-34,34.1-79.3,52.8-127.4,52.8
				c-48.1,0-93.4-18.7-127.4-52.8c-34.1-34-52.8-79.3-52.8-127.4s18.7-93.4,52.8-127.4C811.3,247.3,856.6,228.6,904.7,228.6
				 M904.7,214c-107.6,0-194.8,87.2-194.8,194.8s87.2,194.8,194.8,194.8s194.8-87.2,194.8-194.8S1012.4,214,904.7,214L904.7,214z"/>
		</g>
		<g id="circle_ala">
			<circle cx="252.1" cy="574.4" r="194.8"/>
			
				<linearGradient id="SVGID_00000051351398299665603360000010396647191221063816_" gradientUnits="userSpaceOnUse" x1="57.2346" y1="536.4053" x2="446.8839" y2="536.4053" gradientTransform="matrix(1 0 0 1 0 38)">
				<stop  offset="0" style="stop-color:#FCEE21"/>
				<stop  offset="1" style="stop-color:#936770"/>
			</linearGradient>
			<path style="fill:url(#SVGID_00000051351398299665603360000010396647191221063816_);" d="M252.1,394.2
				c48.1,0,93.4,18.7,127.4,52.8s52.8,79.3,52.8,127.4s-18.7,93.4-52.8,127.4c-34,34.1-79.3,52.8-127.4,52.8s-93.4-18.7-127.4-52.8
				c-34.1-34-52.8-79.3-52.8-127.4S90.5,481,124.6,447S203.9,394.2,252.1,394.2 M252.1,379.6c-107.6,0-194.8,87.2-194.8,194.8
				s87.2,194.8,194.8,194.8S446.9,682,446.9,574.4S359.7,379.6,252.1,379.6L252.1,379.6z"/>
		</g>
		<g id="circle_leu">
			<circle cx="904.7" cy="856.9" r="194.8"/>
			
				<linearGradient id="SVGID_00000080181401452039258750000010547556324560643732_" gradientUnits="userSpaceOnUse" x1="709.8972" y1="818.9011" x2="1099.5465" y2="818.9011" gradientTransform="matrix(1 0 0 1 0 38)">
				<stop  offset="0" style="stop-color:#FCEE21"/>
				<stop  offset="1" style="stop-color:#936770"/>
			</linearGradient>
			<path style="fill:url(#SVGID_00000080181401452039258750000010547556324560643732_);" d="M904.7,676.7
				c48.1,0,93.4,18.7,127.4,52.8c34,34,52.8,79.3,52.8,127.4s-18.7,93.4-52.8,127.4c-34,34-79.3,52.8-127.4,52.8
				c-48.1,0-93.4-18.7-127.4-52.8c-34.1-34-52.8-79.3-52.8-127.4c0-48.1,18.7-93.4,52.8-127.4C811.3,695.4,856.6,676.7,904.7,676.7
				 M904.7,662.1c-107.6,0-194.8,87.2-194.8,194.8s87.2,194.8,194.8,194.8s194.8-87.2,194.8-194.8S1012.4,662.1,904.7,662.1
				L904.7,662.1z"/>
		</g>
		<g id="circle_ile">
			<circle cx="1536.9" cy="582.2" r="194.8"/>
			
				<linearGradient id="SVGID_00000132059938462921294570000000620389709777585808_" gradientUnits="userSpaceOnUse" x1="1342.1031" y1="544.1984" x2="1731.7524" y2="544.1984" gradientTransform="matrix(1 0 0 1 0 38)">
				<stop  offset="0" style="stop-color:#D0B542"/>
				<stop  offset="1" style="stop-color:#662D91"/>
			</linearGradient>
			<path style="fill:url(#SVGID_00000132059938462921294570000000620389709777585808_);" d="M1536.9,402
				c48.1,0,93.4,18.7,127.4,52.8c34,34.1,52.8,79.3,52.8,127.4c0,48.1-18.7,93.4-52.8,127.4c-34,34.1-79.3,52.8-127.4,52.8
				s-93.4-18.7-127.4-52.8c-34-34-52.8-79.3-52.8-127.4c0-48.1,18.7-93.4,52.8-127.4S1488.8,402,1536.9,402 M1536.9,387.4
				c-107.6,0-194.8,87.2-194.8,194.8S1429.3,777,1536.9,777s194.8-87.2,194.8-194.8S1644.6,387.4,1536.9,387.4L1536.9,387.4z"/>
		</g>
		<g id="alanine">
			<path class="st1" d="M99.7,551.2l-3,5.9H81l19.2-38.5h0.9l0,0h5.8h9l0,0h0.8l19.2,38.5h-15.6l-3-5.9H99.7z M108.5,533.6l-3.3,6.6
				h6.6L108.5,533.6z"/>
			<path class="st1" d="M155.5,557.2L155.5,557.2H139v-38.5h13.8v25.7H180v12.7L155.5,557.2L155.5,557.2z"/>
			<path class="st1" d="M203.5,551.2l-3,5.9h-15.7l19.2-38.5h0.9l0,0h5.8h9l0,0h0.9l19.2,38.5H224l-3-5.9H203.5z M212.2,533.6
				l-3.3,6.6h6.6L212.2,533.6z"/>
			<path class="st1" d="M292.5,557.2h-12.4h-2l0,0l0,0l-18.7-19.6v19.6h-14.5v-38.5h14.5l18.7,19.5v-19.5h14.4L292.5,557.2
				L292.5,557.2z"/>
			<path class="st1" d="M300.4,518.7h14.7v38.5h-14.7V518.7z"/>
			<path class="st1" d="M369.3,557.2H357h-2l0,0l0,0l-18.7-19.6v19.6h-14.5v-38.5h14.5l18.7,19.5v-19.5h14.4L369.3,557.2
				L369.3,557.2z"/>
			<path class="st1" d="M390.6,532.7h23.8v10.4h-23.8v3.7h23.8v10.4h-23.8l0,0h-16.8v-38.5h1.1l0,0h39.5v10.4h-23.8V532.7
				L390.6,532.7z"/>
		</g>
		<g id="ALA">
			<path class="st1" d="M192.7,634h-29.9l-5.1,10.1H131l32.7-65.7h1.4l0,0h10h15.4l0,0h1.4l32.7,65.7h-26.8L192.7,634z M183.4,615.3
				l-5.6-11.3l-5.6,11.3H183.4z"/>
			<path class="st1" d="M297.2,622.4v17.3v4.4v0.1h-41.7h-28.2v-65.7h23.6v43.8L297.2,622.4L297.2,622.4z"/>
			<path class="st1" d="M357.3,634h-29.9l-5.1,10.1h-26.8l32.7-65.7h1.4l0,0h10H355l0,0h1.4l32.7,65.7h-26.8L357.3,634z
				 M347.9,615.3l-5.6-11.3l-5.6,11.3H347.9z"/>
		</g>
		<g id="aline">
			<path class="st1" d="M820.7,388.7l-3.5,7.7h-18.5l22.6-49.7h1l0,0h6.9h10.6l0,0h1l22.6,49.7h-18.5l-3.5-7.7H820.7z M831,365.9
				l-3.9,8.6h7.8L831,365.9z"/>
			<path class="st1" d="M884.3,396.3L884.3,396.3l-19.5,0.1v-49.7h16.3V380h32v16.4H884.3z"/>
			<path class="st1" d="M916.9,346.7h17.3v49.7h-17.3V346.7z"/>
			<path class="st1" d="M993.4,396.4h-14.5h-2.4l0,0l0,0l-22.1-25.3v25.3h-17.1v-49.7h17.1l22.1,25.1v-25.1h16.9V396.4L993.4,396.4z
				"/>
			<path class="st1" d="M1016.2,364.9h28v13.4h-28v4.8h28v13.3h-28l0,0h-19.7v-49.7h1.2l0,0h46.5v13.3h-28L1016.2,364.9
				L1016.2,364.9z"/>
			<g id="v">
				<path class="st1" d="M795.9,396.4h-19.5l-22.6-49.7h18.5l3.5,7.7l6.4,14.2l3.9,8.6l3.9-8.6l6.4-14.2l3.5-7.7h18.5L795.9,396.4z"
					/>
			</g>
		</g>
		<g id="AL">
			<path class="st1" d="M908.6,480.9H876l-5.6,11.1h-29.2l35.7-71.6h1.6l0,0h10.9h16.8l0,0h1.6l35.7,71.6h-29.2L908.6,480.9z
				 M898.5,460.3l-6.1-12.3l-6.1,12.3H898.5z"/>
			<path class="st1" d="M1022.5,468.2v18.9v4.8v0.1H977h-30.8v-71.6h25.7v47.8H1022.5L1022.5,468.2z"/>
		</g>
		<g id="leucine">
			<path class="st1" d="M759.5,849L759.5,849l-18.3,0.1v-42.6h15.3V835h30.1v14H759.5z"/>
			<path class="st1" d="M809.4,822h26.3v11.5h-26.3v4.1h26.3v11.5h-26.3h-18.5v-42.6h1.2l0,0h43.5V818h-26.3L809.4,822L809.4,822z"
				/>
			<path class="st1" d="M886.1,834.8c0,7.9-6.4,14.3-14.3,14.3h-17.2c-7.9,0-14.3-6.4-14.3-14.3v-28.2h14.3v23.1
				c0,3.3,2.6,5.9,5.9,5.9h5.4c3.3,0,5.9-2.6,5.9-5.9v-23.1h14.4L886.1,834.8L886.1,834.8z"/>
			<path class="st1" d="M936.3,849.1h-33.5h-2.8c-5.6,0-10-4.5-10-10v-22.4c0-5.6,4.5-10,10-10h6h29.7v13H906v16.7h30.3L936.3,849.1
				L936.3,849.1z"/>
			<path class="st1" d="M940.1,806.5h16.3v42.6h-16.3V806.5z"/>
			<path class="st1" d="M1014.9,849.1h-13.6h-2.3l0,0l0,0l-20.7-21.7v21.7h-16.1v-42.6h16.1l20.7,21.5v-21.5h16V849.1L1014.9,849.1z
				"/>
			<path class="st1" d="M1040.2,822h26.2v11.5h-26.2v4.1h26.2v11.5h-26.2h-18.5v-42.6h1.2l0,0h43.6V818h-26.2L1040.2,822L1040.2,822
				z"/>
		</g>
		<g id="LEU">
			<path class="st1" d="M861.2,916.3v18.9v4.8v0.1h-45.5h-30.8v-71.6h25.7v47.8H861.2L861.2,916.3z"/>
			<path class="st1" d="M897.5,887.7v6.8h44.1v19.3h-44.1v6.8h44.1v19.3h-44.1h-31.2v-71.6h1.9h73.4v19.3L897.5,887.7L897.5,887.7z"
				/>
			<path class="st1" d="M1021.7,868.4v47.5c0,13.3-10.8,24.2-24.2,24.2h-29c-13.3,0-24.2-10.8-24.2-24.2v-47.5h24.2v38.9
				c0,5.6,4.5,10,10,10h9c5.6,0,10-4.5,10-10v-38.9H1021.7z"/>
		</g>
		<g id="isoleucine">
			<path class="st1" d="M1375.3,525.4h11.8v29.8h-11.8V525.4z"/>
			<path class="st1" d="M1404.6,535.6l13.6,4.8c4.6,1.8,7.7,3.3,7.7,7.4v1.9l0,0c0,0.1,0,0.3,0,0.4c0,2.8-2.3,5.1-5.3,5.1h-23.9
				c-2.9,0-5.3-2.2-5.3-5.1v-5.1h20.9l-13.2-4.7c-4.6-1.8-7.7-3.3-7.7-7.4v-1.9l0,0c0-0.2,0-0.3,0-0.5c0-2.8,2.3-5.1,5.3-5.1h23.9
				c2.9,0,5.3,2.2,5.3,5.1v5.1L1404.6,535.6L1404.6,535.6z"/>
			<path class="st1" d="M1465.1,546.2c0,5-4.2,9.1-9.4,9.1h-15.7c-5.2,0-9.4-4.1-9.4-9.1v-11.6c0-5,4.2-9.1,9.4-9.1h15.7
				c5.2,0,9.4,4.1,9.4,9.1V546.2z M1453.5,534.3h-11.1c-1.6,0-2.8,1.3-2.8,2.7v6.5c0,1.6,1.3,2.8,2.8,2.8h11.1
				c1.6,0,2.8-1.3,2.8-2.8V537C1456.4,535.5,1455.1,534.3,1453.5,534.3z"/>
			<path class="st1" d="M1481.7,555.2L1481.7,555.2h-13.2v-29.8h11v20h21.8v9.8H1481.7z"/>
			<path class="st1" d="M1517.9,536.3h19v8h-19v2.8h19v8h-19h-13.4v-29.8h0.8l0,0h31.6v8h-19L1517.9,536.3L1517.9,536.3z"/>
			<path class="st1" d="M1572.9,545.2c0,5.6-4.7,10-10.3,10h-12.5c-5.7,0-10.3-4.5-10.3-10v-19.8h10.3v16.2c0,2.3,1.9,4.2,4.3,4.2
				h3.9c2.3,0,4.3-1.9,4.3-4.2v-16.2h10.3V545.2L1572.9,545.2z"/>
			<path class="st1" d="M1609.2,555.2H1585h-2c-4,0-7.3-3.1-7.3-7v-15.7c0-3.9,3.2-7,7.3-7h4.4h21.5v9.1h-21.5v11.7h21.9V555.2
				L1609.2,555.2z"/>
			<path class="st1" d="M1611.9,525.4h11.8v29.8h-11.8V525.4z"/>
			<path class="st1" d="M1665.9,555.2h-9.8h-1.7l0,0l0,0l-15-15.2v15.2h-11.6v-29.8h11.6l15,15.1v-15.1h11.6L1665.9,555.2
				L1665.9,555.2z"/>
			<path class="st1" d="M1682.2,536.3h19v8h-19v2.8h19v8h-19h-13.4v-29.8h0.8l0,0h31.6v8h-19L1682.2,536.3L1682.2,536.3z"/>
		</g>
		<g id="ILE">
			<path class="st1" d="M1448,652v-73.3h28.1V652H1448z"/>
			<path class="st1" d="M1558.2,627.7V647v4.9v0.1h-46.6H1480v-73.3h26.3v49L1558.2,627.7L1558.2,627.7z"/>
			<path class="st1" d="M1595.4,598.5v7h45.2v19.8h-45.2v7h45.2V652h-45.2h-31.9v-73.3h1.9h75.1v19.8L1595.4,598.5L1595.4,598.5z"/>
		</g>
		<g id="V">
			<path class="st1" d="M874.1,420.3l-35.7,71.6h-30.8L772,420.3h29.2l5.6,11.1l10.2,20.5l6.1,12.3l6.1-12.3l10.2-20.5l5.6-11.1
				H874.1L874.1,420.3z"/>
		</g>
	</g>
</g>
</svg>
