<?xml version="1.0" encoding="utf-8"?>
<!-- Generator: Adobe Illustrator 26.0.1, SVG Export Plug-In . SVG Version: 6.00 Build 0)  -->
<svg version="1.1" xmlns="http://www.w3.org/2000/svg" xmlns:xlink="http://www.w3.org/1999/xlink" x="0px" y="0px"
	 viewBox="0 0 1920 1080" style="enable-background:new 0 0 1920 1080;" xml:space="preserve">
<style type="text/css">
	.st0{fill:url(#SVGID_1_);}
	.st1{fill:#FFFFFF;}
	.st2{fill:none;stroke:url(#SVGID_00000126315700920737879890000012053656613770739079_);stroke-width:15;stroke-miterlimit:10;}
	.st3{fill:none;stroke:url(#SVGID_00000180345790004724994710000013174127830607865264_);stroke-width:15;stroke-miterlimit:10;}
	.st4{fill:none;stroke:url(#SVGID_00000008117880896391218110000005040247338416786823_);stroke-width:15;stroke-miterlimit:10;}
	.st5{fill:none;stroke:url(#SVGID_00000088854735678263924460000005149600637974700717_);stroke-width:15;stroke-miterlimit:10;}
	.st6{fill:none;stroke:url(#SVGID_00000116957225239426103750000004515635588584090275_);stroke-width:15;stroke-miterlimit:10;}
	.st7{fill:url(#SVGID_00000062181577098255402220000009161137888998958501_);}
	.st8{fill:url(#SVGID_00000153666525949545624480000010689201807913598893_);}
	.st9{fill:url(#SVGID_00000080907603770854844940000015189102174764910775_);}
	.st10{fill:url(#SVGID_00000183218230780297909400000001667590926253732278_);}
	.st11{fill:url(#SVGID_00000030452122938381210470000006347398318295635861_);}
	.st12{fill:url(#SVGID_00000176761775594943832210000008897521859398168222_);}
</style>
<g id="background">
	<g>
		<rect x="0.5" y="0.5" width="1919" height="1079"/>
		<path d="M1919,1v1078H1V1H1919 M1920,0H0v1080h1920V0L1920,0z"/>
	</g>
</g>
<g id="Слой_2">
	<g>
		<path d="M1403,124H462c-16.6,0-30-13.4-30-30V43c0-16.6,13.4-30,30-30h941c16.6,0,30,13.4,30,30v51
			C1433,110.6,1419.6,124,1403,124z"/>
		<linearGradient id="SVGID_1_" gradientUnits="userSpaceOnUse" x1="432" y1="68.5" x2="1433" y2="68.5">
			<stop  offset="0" style="stop-color:#0000FF"/>
			<stop  offset="0.3442" style="stop-color:#F15A24"/>
			<stop  offset="0.5" style="stop-color:#F06024"/>
			<stop  offset="1" style="stop-color:#D9E021"/>
		</linearGradient>
		<path class="st0" d="M1403,28c8.3,0,15,6.7,15,15v51c0,8.3-6.7,15-15,15H462c-8.3,0-15-6.7-15-15V43c0-8.3,6.7-15,15-15H1403
			 M1403,13H462c-16.6,0-30,13.4-30,30v51c0,16.6,13.4,30,30,30h941c16.6,0,30-13.4,30-30V43C1433,26.4,1419.6,13,1403,13L1403,13z"
			/>
	</g>
	<g>
		<path class="st1" d="M531,99.5h-19.2h-3.3h0v0L479.3,69v30.5h-22.6V39.6h22.6l29.2,30.3V39.6H531V99.5z"/>
		<path class="st1" d="M562.1,61.5H599v16.1h-36.9v5.7H599v16.1h-36.9v0H536V39.6h1.6v0H599v16.1h-36.9V61.5z"/>
		<path class="st1" d="M668.6,79.3c0,11.1-9,20.2-20.2,20.2h-24.3c-11.1,0-20.2-9-20.2-20.2V39.6h20.2v32.5c0,4.6,3.8,8.4,8.4,8.4
			h7.5c4.6,0,8.4-3.8,8.4-8.4V39.6h20.2V79.3z"/>
		<path class="st1" d="M714.1,60.9v38.6h-21.2V60.9h-19.3V39.7h19.3h21.2h19.3v21.2H714.1z"/>
		<path class="st1" d="M791.2,99.5l-10.3-20.1h-22.3v20.1h-20.2V39.6h1.5h18.7h29.9c9.3,0,16.8,7.5,16.8,16.8v6.2
			c0,5.1-2.3,9.6-5.8,12.7l12.4,24.2H791.2z M779.2,55.1h-20.6v7.6h20.6c3.9,0,7.1-1.6,7.1-3.5v-0.5
			C786.3,56.6,783.1,55.1,779.2,55.1z"/>
		<path class="st1" d="M846,90.2l-4.6,9.3l-24.4,0l29.9-59.9h1.3v0l9.1,0l14,0l0,0h1.3l29.9,59.9l-24.4,0l-4.6-9.3H846z M859.6,62.8
			l-5.1,10.3h10.2L859.6,62.8z"/>
		<path class="st1" d="M933.1,99.4L933.1,99.4l-25.8,0.1V39.6h21.5v40h42.4v19.8H933.1z"/>
		<path class="st1" d="M1101.7,62.9c0,9-7.3,16.3-16.3,16.3H1058v20.3h-19.7V39.8h7.7v-0.1h39.5v0.1c9,0,16.3,7.3,16.3,16.3V62.9z
			 M1058,55.1v7h25.2v-7H1058z"/>
		<path class="st1" d="M1173.6,81.3c0,10.1-8.2,18.2-18.2,18.2h-30.4c-10.1,0-18.2-8.2-18.2-18.2V57.9c0-10.1,8.2-18.2,18.2-18.2
			h30.4c10.1,0,18.2,8.2,18.2,18.2V81.3z M1150.9,57.4h-21.6c-3.1,0-5.6,2.5-5.6,5.6v13.1c0,3.1,2.5,5.6,5.6,5.6h21.6
			c3.1,0,5.6-2.5,5.6-5.6V63C1156.5,59.9,1154,57.4,1150.9,57.4z"/>
		<path class="st1" d="M1204.4,99.4L1204.4,99.4l-25.8,0.1V39.6h21.5v40h42.4v19.8H1204.4z"/>
		<path class="st1" d="M1276.5,90.2l-4.6,9.3l-24.4,0l29.9-59.9h1.3v0l9.1,0l14,0l0,0h1.3l29.9,59.9l-24.4,0l-4.6-9.3H1276.5z
			 M1290.1,62.8l-5.1,10.3h10.2L1290.1,62.8z"/>
		<path class="st1" d="M1390.6,99.5l-10.3-20.1H1358v20.1h-20.2V39.6h1.5h18.7h29.9c9.3,0,16.8,7.5,16.8,16.8v6.2
			c0,5.1-2.3,9.6-5.8,12.7l12.4,24.2H1390.6z M1378.6,55.1H1358v7.6h20.6c3.9,0,7.1-1.6,7.1-3.5v-0.5
			C1385.7,56.6,1382.5,55.1,1378.6,55.1z"/>
	</g>
	
		<linearGradient id="SVGID_00000091726121172927437350000006058610121496241290_" gradientUnits="userSpaceOnUse" x1="271.5742" y1="520" x2="782.4258" y2="520" gradientTransform="matrix(0.5933 -0.2495 -0.2506 0.8463 344.6388 210.9275)">
		<stop  offset="0" style="stop-color:#D9E021"/>
		<stop  offset="0.696" style="stop-color:#662D91"/>
		<stop  offset="0.8347" style="stop-color:#642C93"/>
		<stop  offset="0.8847" style="stop-color:#5E2A9A"/>
		<stop  offset="0.9203" style="stop-color:#5327A5"/>
		<stop  offset="0.9491" style="stop-color:#4422B6"/>
		<stop  offset="0.9738" style="stop-color:#301BCC"/>
		<stop  offset="0.9952" style="stop-color:#1713E7"/>
		<stop  offset="1" style="stop-color:#1111EE"/>
	</linearGradient>
	
		<line style="fill:none;stroke:url(#SVGID_00000091726121172927437350000006058610121496241290_);stroke-width:15;stroke-miterlimit:10;" x1="416.5" y1="451.5" x2="637.5" y2="587.5"/>
	
		<linearGradient id="SVGID_00000108279551292481390080000009436985151274159497_" gradientUnits="userSpaceOnUse" x1="247.797" y1="776.5" x2="781.203" y2="776.5" gradientTransform="matrix(0.7458 9.902734e-02 9.703960e-02 0.9622 132.4213 -51.5889)">
		<stop  offset="0" style="stop-color:#D9E021"/>
		<stop  offset="1" style="stop-color:#0000FF"/>
	</linearGradient>
	
		<line style="fill:none;stroke:url(#SVGID_00000108279551292481390080000009436985151274159497_);stroke-width:15;stroke-miterlimit:10;" x1="404.5" y1="818.5" x2="778.5" y2="674.5"/>
	
		<linearGradient id="SVGID_00000045585453903353402830000015910838644281489058_" gradientUnits="userSpaceOnUse" x1="772.741" y1="493.5" x2="1086.259" y2="493.5" gradientTransform="matrix(0.7277 0.3268 0.3253 0.6096 86.5496 -104.0577)">
		<stop  offset="0" style="stop-color:#D9E021"/>
		<stop  offset="0.3442" style="stop-color:#F15A24"/>
		<stop  offset="0.505" style="stop-color:#F06024"/>
		<stop  offset="1" style="stop-color:#662D91"/>
	</linearGradient>
	
		<line style="fill:none;stroke:url(#SVGID_00000045585453903353402830000015910838644281489058_);stroke-width:15;stroke-miterlimit:10;" x1="974.5" y1="439.5" x2="872.5" y2="561.5"/>
	
		<linearGradient id="SVGID_00000107562915343208091020000010359358447672062637_" gradientUnits="userSpaceOnUse" x1="1074.1488" y1="576" x2="1417.8512" y2="576" gradientTransform="matrix(0.8498 -0.239 -0.2396 0.6188 325.211 517.3807)">
		<stop  offset="0" style="stop-color:#FBB03B"/>
		<stop  offset="0.3442" style="stop-color:#F15A24"/>
		<stop  offset="0.5" style="stop-color:#F06024"/>
		<stop  offset="1" style="stop-color:#662D91"/>
	</linearGradient>
	
		<line style="fill:none;stroke:url(#SVGID_00000107562915343208091020000010359358447672062637_);stroke-width:15;stroke-miterlimit:10;" x1="1323.5" y1="699.5" x2="1168.5" y2="452.5"/>
	
		<linearGradient id="SVGID_00000005239309158172308250000006881037161502850230_" gradientUnits="userSpaceOnUse" x1="1405.8356" y1="665.5" x2="1719.1644" y2="665.5" gradientTransform="matrix(0.6936 0.3535 0.3519 0.5941 245.1469 -283.1939)">
		<stop  offset="0" style="stop-color:#FBB03B"/>
		<stop  offset="0.3442" style="stop-color:#F15A24"/>
		<stop  offset="0.5" style="stop-color:#F06024"/>
		<stop  offset="1" style="stop-color:#662D91"/>
	</linearGradient>
	
		<line style="fill:none;stroke:url(#SVGID_00000005239309158172308250000006881037161502850230_);stroke-width:15;stroke-miterlimit:10;" x1="1606.5" y1="614.5" x2="1519.5" y2="714.5"/>
	<g>
		<circle cx="275.5" cy="365.5" r="165.5"/>
		
			<linearGradient id="SVGID_00000123428592057810294450000003699219369221982359_" gradientUnits="userSpaceOnUse" x1="110" y1="365.5" x2="441" y2="365.5">
			<stop  offset="0" style="stop-color:#0000FF"/>
			<stop  offset="0.3442" style="stop-color:#F15A24"/>
			<stop  offset="0.5" style="stop-color:#F06024"/>
			<stop  offset="1" style="stop-color:#D9E021"/>
		</linearGradient>
		<path style="fill:url(#SVGID_00000123428592057810294450000003699219369221982359_);" d="M275.5,215c40.2,0,78,15.7,106.4,44.1
			S426,325.3,426,365.5s-15.7,78-44.1,106.4S315.7,516,275.5,516s-78-15.7-106.4-44.1S125,405.7,125,365.5s15.7-78,44.1-106.4
			S235.3,215,275.5,215 M275.5,200C184.1,200,110,274.1,110,365.5S184.1,531,275.5,531S441,456.9,441,365.5S366.9,200,275.5,200
			L275.5,200z"/>
	</g>
	<g>
		<circle cx="1713.5" cy="491.5" r="165.5"/>
		
			<linearGradient id="SVGID_00000167393567565180780580000013609436838164536240_" gradientUnits="userSpaceOnUse" x1="1548" y1="491.5" x2="1879" y2="491.5">
			<stop  offset="0" style="stop-color:#0000FF"/>
			<stop  offset="0.3442" style="stop-color:#F15A24"/>
			<stop  offset="0.5" style="stop-color:#F06024"/>
			<stop  offset="1" style="stop-color:#D9E021"/>
		</linearGradient>
		<path style="fill:url(#SVGID_00000167393567565180780580000013609436838164536240_);" d="M1713.5,341c40.2,0,78,15.7,106.4,44.1
			c28.4,28.4,44.1,66.2,44.1,106.4s-15.7,78-44.1,106.4c-28.4,28.4-66.2,44.1-106.4,44.1s-78-15.7-106.4-44.1
			c-28.4-28.4-44.1-66.2-44.1-106.4s15.7-78,44.1-106.4C1635.5,356.7,1673.3,341,1713.5,341 M1713.5,326
			c-91.4,0-165.5,74.1-165.5,165.5S1622.1,657,1713.5,657S1879,582.9,1879,491.5S1804.9,326,1713.5,326L1713.5,326z"/>
	</g>
	<g>
		<circle cx="1080.5" cy="312.5" r="165.5"/>
		
			<linearGradient id="SVGID_00000182490731335425985530000012302514235901994939_" gradientUnits="userSpaceOnUse" x1="915" y1="312.5" x2="1246" y2="312.5">
			<stop  offset="0" style="stop-color:#0000FF"/>
			<stop  offset="0.3442" style="stop-color:#F15A24"/>
			<stop  offset="0.5" style="stop-color:#F06024"/>
			<stop  offset="1" style="stop-color:#D9E021"/>
		</linearGradient>
		<path style="fill:url(#SVGID_00000182490731335425985530000012302514235901994939_);" d="M1080.5,162c40.2,0,78,15.7,106.4,44.1
			c28.4,28.4,44.1,66.2,44.1,106.4s-15.7,78-44.1,106.4c-28.4,28.4-66.2,44.1-106.4,44.1s-78-15.7-106.4-44.1S930,352.7,930,312.5
			s15.7-78,44.1-106.4S1040.3,162,1080.5,162 M1080.5,147C989.1,147,915,221.1,915,312.5S989.1,478,1080.5,478
			S1246,403.9,1246,312.5S1171.9,147,1080.5,147L1080.5,147z"/>
	</g>
	<g>
		<circle cx="778.5" cy="674.5" r="165.5"/>
		
			<linearGradient id="SVGID_00000057145503223080092400000010521703864133053879_" gradientUnits="userSpaceOnUse" x1="613" y1="674.5" x2="944" y2="674.5">
			<stop  offset="0" style="stop-color:#0000FF"/>
			<stop  offset="0.3442" style="stop-color:#F15A24"/>
			<stop  offset="0.5" style="stop-color:#F06024"/>
			<stop  offset="1" style="stop-color:#D9E021"/>
		</linearGradient>
		<path style="fill:url(#SVGID_00000057145503223080092400000010521703864133053879_);" d="M778.5,524c40.2,0,78,15.7,106.4,44.1
			S929,634.3,929,674.5s-15.7,78-44.1,106.4S818.7,825,778.5,825s-78-15.7-106.4-44.1S628,714.7,628,674.5s15.7-78,44.1-106.4
			S738.3,524,778.5,524 M778.5,509C687.1,509,613,583.1,613,674.5S687.1,840,778.5,840S944,765.9,944,674.5S869.9,509,778.5,509
			L778.5,509z"/>
	</g>
	<g>
		<circle cx="250.5" cy="878.5" r="165.5"/>
		
			<linearGradient id="SVGID_00000087413361651525940190000013264583464003652001_" gradientUnits="userSpaceOnUse" x1="85" y1="878.5" x2="416" y2="878.5">
			<stop  offset="0" style="stop-color:#0000FF"/>
			<stop  offset="0.3442" style="stop-color:#F15A24"/>
			<stop  offset="0.5" style="stop-color:#F06024"/>
			<stop  offset="1" style="stop-color:#D9E021"/>
		</linearGradient>
		<path style="fill:url(#SVGID_00000087413361651525940190000013264583464003652001_);" d="M250.5,728c40.2,0,78,15.7,106.4,44.1
			S401,838.3,401,878.5s-15.7,78-44.1,106.4s-66.2,44.1-106.4,44.1s-78-15.7-106.4-44.1S100,918.7,100,878.5s15.7-78,44.1-106.4
			S210.3,728,250.5,728 M250.5,713C159.1,713,85,787.1,85,878.5S159.1,1044,250.5,1044S416,969.9,416,878.5S341.9,713,250.5,713
			L250.5,713z"/>
	</g>
	<g>
		<circle cx="1411.5" cy="839.5" r="165.5"/>
		
			<linearGradient id="SVGID_00000128480817280807209530000014454462084632304285_" gradientUnits="userSpaceOnUse" x1="1246" y1="839.5" x2="1577" y2="839.5">
			<stop  offset="0" style="stop-color:#0000FF"/>
			<stop  offset="0.3442" style="stop-color:#F15A24"/>
			<stop  offset="0.5" style="stop-color:#F06024"/>
			<stop  offset="1" style="stop-color:#D9E021"/>
		</linearGradient>
		<path style="fill:url(#SVGID_00000128480817280807209530000014454462084632304285_);" d="M1411.5,689c40.2,0,78,15.7,106.4,44.1
			c28.4,28.4,44.1,66.2,44.1,106.4s-15.7,78-44.1,106.4c-28.4,28.4-66.2,44.1-106.4,44.1s-78-15.7-106.4-44.1
			c-28.4-28.4-44.1-66.2-44.1-106.4s15.7-78,44.1-106.4C1333.5,704.7,1371.3,689,1411.5,689 M1411.5,674
			c-91.4,0-165.5,74.1-165.5,165.5s74.1,165.5,165.5,165.5S1577,930.9,1577,839.5S1502.9,674,1411.5,674L1411.5,674z"/>
	</g>
	<g>
		<path class="st1" d="M166.4,322.6l17.2,6.2c5.7,2.3,9.7,4.3,9.7,9.7v2.6l0,0c0,0.2,0,0.3,0,0.5c0,3.7-3,6.6-6.6,6.6h-30.1
			c-3.7,0-6.6-3-6.6-6.6v-6.6h26.5l-16.8-6.1c-5.7-2.3-9.7-4.3-9.7-9.7v-2.6l0,0c0-0.2,0-0.4,0-0.7c0-3.7,3-6.6,6.6-6.6h30.1
			c3.7,0,6.6,3,6.6,6.6v6.6H166.4z"/>
		<path class="st1" d="M213.4,323.5h24V334h-24v3.7h24v10.5h-24v0h-16.9v-38.9h1h39.9v10.5h-24V323.5z"/>
		<path class="st1" d="M275,348.2l-6.7-13.1h-14.5v13.1h-13.1v-38.9h0.9h12.2h19.4c6,0,10.9,4.9,10.9,10.9v4c0,3.3-1.5,6.3-3.8,8.3
			l8.1,15.7H275z M267.2,319.3h-13.4v4.9h13.4c2.6,0,4.6-1,4.6-2.3v-0.3C271.8,320.4,269.8,319.3,267.2,319.3z"/>
		<path class="st1" d="M291.7,309.3h14.9v38.9h-14.9V309.3z"/>
		<path class="st1" d="M358.1,348.2h-12.5h-2.1h0v0l-19-19.8v19.8h-14.7v-38.9h14.7l19,19.7v-19.7h14.6V348.2z"/>
		<path class="st1" d="M378.3,323.5h24V334h-24v3.7h24v10.5h-24v0h-16.9v-38.9h1h39.9v10.5h-24V323.5z"/>
	</g>
	<g>
		<path class="st1" d="M235,381.5h-45.3l29,10.5c9.7,4,16.3,7.3,16.3,16.3v4.3l0,0c0,0.3,0,0.6,0,0.8c0,6.2-5,11.2-11.2,11.2H173
			c-6.2,0-11.2-5-11.2-11.2v-11.2h44.7L178.1,392c-9.7-4-16.3-7.3-16.3-16.3v-4.3l0.1,0c0-0.4-0.1-0.7-0.1-1.1
			c0-6.2,5-11.2,11.2-11.2h50.8c6.2,0,11.2,5,11.2,11.2V381.5z"/>
		<path class="st1" d="M270.6,376.7v6.3H311v17.7h-40.5v6.3H311v17.7h-40.5v0H242V359h1.8v0H311v17.7H270.6z"/>
		<path class="st1" d="M396.3,424.7h-22.7l-11.3-22h-24.5v22h-22.1V359h1.6h20.5h32.8c10.2,0,18.4,8.2,18.4,18.4v6.8
			c0,5.6-2.5,10.5-6.4,13.9L396.3,424.7z M368.3,379.8c0-2.1-3.5-3.9-7.8-3.9h-22.6v8.3h22.6c4.3,0,7.8-1.7,7.8-3.9V379.8z"/>
	</g>
	<g>
		<path class="st1" d="M666.4,633.6v16.6h-9.1v-16.6H649v-9.1h8.3h9.1h8.3v9.1H666.4z"/>
		<path class="st1" d="M706.7,650.2h-11.4v-8.5h-7v8.5h-11.4v-25.8h11.4v8.5h7v-8.5h11.4V650.2z"/>
		<path class="st1" d="M731.6,650.2l-4.4-8.6h-9.6v8.6h-8.7v-25.8h0.6h8h12.9c4,0,7.2,3.2,7.2,7.2v2.7c0,2.2-1,4.1-2.5,5.5l5.3,10.4
			H731.6z M726.4,631.1h-8.9v3.3h8.9c1.7,0,3.1-0.7,3.1-1.5v-0.2C729.5,631.8,728.1,631.1,726.4,631.1z"/>
		<path class="st1" d="M753.9,633.9h15.9v6.9h-15.9v2.5h15.9v6.9h-15.9h-11.2v-25.8h0.7v0h26.4v6.9h-15.9V633.9z"/>
		<path class="st1" d="M800.7,642.4c0,4.3-3.5,7.8-7.8,7.8h-13.1c-4.3,0-7.8-3.5-7.8-7.8v-10.1c0-4.3,3.5-7.8,7.8-7.8h13.1
			c4.3,0,7.8,3.5,7.8,7.8V642.4z M790.9,632.1h-9.3c-1.3,0-2.4,1.1-2.4,2.4v5.6c0,1.3,1.1,2.4,2.4,2.4h9.3c1.3,0,2.4-1.1,2.4-2.4
			v-5.6C793.3,633.2,792.2,632.1,790.9,632.1z"/>
		<path class="st1" d="M834.8,650.2h-8.3h-1.4h0v0l-12.5-13.1v13.1h-9.7v-25.8h9.7l12.5,13v-13h9.7V650.2z"/>
		<path class="st1" d="M836.9,624.5h9.8v25.8h-9.8V624.5z"/>
		<path class="st1" d="M880.8,650.2h-8.3h-1.4h0v0l-12.5-13.1v13.1h-9.7v-25.8h9.7l12.5,13v-13h9.7V650.2z"/>
		<path class="st1" d="M894.2,633.9h15.9v6.9h-15.9v2.5h15.9v6.9h-15.9H883v-25.8h0.7v0h26.4v6.9h-15.9V633.9z"/>
	</g>
	<g>
		<path class="st1" d="M734.8,681.9h-21.2v42.3h-23.2v-42.3h-21.2v-23.2h21.2h23.2h21.2V681.9z"/>
		<path class="st1" d="M814.7,658.6v65.6h-29.2v-21.7h-17.8v21.7h-29.2v-65.6h29.2v21.7h17.8v-21.7H814.7z"/>
		<path class="st1" d="M898.9,724.2h-22.7l-11.3-22h-24.5v22h-22.1v-65.6h1.6h20.5h32.8c10.2,0,18.4,8.2,18.4,18.4v6.8
			c0,5.6-2.5,10.5-6.4,13.9L898.9,724.2z M870.9,679.4c0-2.1-3.5-3.9-7.8-3.9h-22.6v8.3h22.6c4.3,0,7.8-1.7,7.8-3.9V679.4z"/>
	</g>
	<g>
		<path class="st1" d="M153,851.8h-23.6h-2c-3.9,0-7.1-3.2-7.1-7.1v-15.8c0-3.9,3.2-7.1,7.1-7.1h4.2h20.9v9.1h-20.9v11.7H153V851.8z
			"/>
		<path class="st1" d="M186.1,834.1c0,3.2-2.7,5.8-6.2,6.1l0,0c0,0,0,0,0,0c-0.1,0-0.2,0-0.2,0c-0.6,0.1-2.1,0.3-2.1,0.9
			c0,0,0,0,0,0v10.6H164v-10.6c0-0.6-1.4-0.8-2.1-0.9c-0.1,0-0.2,0-0.3,0c0,0,0,0,0,0l0,0c-3.5-0.4-6.2-3-6.2-6.1v-12.3h8.5h1.6
			v10.1H176v-10.1h1.6h8.5V834.1z"/>
		<path class="st1" d="M201.4,832.1l13.2,4.8c4.4,1.8,7.5,3.3,7.5,7.5v2l0,0c0,0.1,0,0.3,0,0.4c0,2.8-2.3,5.1-5.1,5.1h-23.2
			c-2.8,0-5.1-2.3-5.1-5.1v-5.1H209l-12.9-4.7c-4.4-1.8-7.5-3.3-7.5-7.5v-2l0,0c0-0.2,0-0.3,0-0.5c0-2.8,2.3-5.1,5.1-5.1h23.2
			c2.8,0,5.1,2.3,5.1,5.1v5.1H201.4z"/>
		<path class="st1" d="M244.8,832.5v19.3h-10.6v-19.3h-9.7v-10.6h9.7h10.6h9.7v10.6H244.8z"/>
		<path class="st1" d="M270,832.8h18.5v8.1H270v2.9h18.5v8.1H270h-13v-29.9h0.8h30.7v8.1H270V832.8z"/>
		<path class="st1" d="M290.9,821.8h11.5v29.9h-11.5V821.8z"/>
		<path class="st1" d="M342,851.8h-9.6h-1.6h0v0l-14.6-15.3v15.3h-11.3v-29.9h11.3l14.6,15.1v-15.1H342V851.8z"/>
		<path class="st1" d="M357.6,832.8H376v8.1h-18.5v2.9H376v8.1h-18.5h-13v-29.9h0.8H376v8.1h-18.5V832.8z"/>
	</g>
	<g>
		<path class="st1" d="M211.3,909.9v20h-51.7v0h-4.3c-8.6,0-15.5-6.9-15.5-15.5v-34.6c0-8.6,6.9-15.5,15.5-15.5h9.3h45.9v20h-45.9
			v25.7H211.3z"/>
		<path class="st1" d="M282.1,864.3v26.9c0,6.9-5.9,12.6-13.5,13.4l0,0c0,0,0,0-0.1,0c-0.2,0-0.4,0-0.5,0c-1.4,0.1-4.5,0.6-4.5,1.9
			c0,0,0,0,0,0.1v23.2h-29.8v-23.3c0-1.3-3.1-1.7-4.5-1.9c-0.2,0-0.4,0-0.6-0.1c-0.1,0-0.1,0-0.1,0l0,0c-7.6-0.8-13.5-6.5-13.5-13.5
			v-26.9h18.7h3.4v22.1H260v-22.1h3.4H282.1z"/>
		<path class="st1" d="M359.1,886.7h-45.3l29,10.5c9.7,4,16.3,7.3,16.3,16.3v4.3l0,0c0,0.3,0,0.6,0,0.8c0,6.2-5,11.2-11.2,11.2
			h-50.8c-6.2,0-11.2-5-11.2-11.2v-11.2h44.7l-28.3-10.3c-9.7-4-16.3-7.3-16.3-16.3v-4.3l0.1,0c0-0.4-0.1-0.7-0.1-1.1
			c0-6.2,5-11.2,11.2-11.2h50.8c6.2,0,11.2,5,11.2,11.2V886.7z"/>
	</g>
	<g>
		<path class="st1" d="M969.2,288.7l-11.6-12.2v12.2h-9.1v-24h9.1l11.6,12.6v0l11.6-12.6h9.1v24h-9.1v-12.2L969.2,288.7L969.2,288.7
			z"/>
		<path class="st1" d="M1002.3,273.5h14.8v6.5h-14.8v2.3h14.8v6.5h-14.8h-10.4v-24h0.6h24.5v6.5h-14.8V273.5z"/>
		<path class="st1" d="M1035.3,273.2v15.4h-8.5v-15.4h-7.7v-8.5h7.7h8.5h7.7v8.5H1035.3z"/>
		<path class="st1" d="M1072.8,288.7h-10.6v-7.9h-6.5v7.9H1045v-24h10.6v7.9h6.5v-7.9h10.6V288.7z"/>
		<path class="st1" d="M1074.8,264.7h9.2v24h-9.2V264.7z"/>
		<path class="st1" d="M1112.7,281.4c0,4-3.3,7.3-7.3,7.3h-12.2c-4,0-7.3-3.3-7.3-7.3V272c0-4,3.3-7.3,7.3-7.3h12.2
			c4,0,7.3,3.3,7.3,7.3V281.4z M1103.6,271.8h-8.6c-1.2,0-2.2,1-2.2,2.2v5.2c0,1.2,1,2.2,2.2,2.2h8.6c1.2,0,2.2-1,2.2-2.2v-5.2
			C1105.9,272.8,1104.9,271.8,1103.6,271.8z"/>
		<path class="st1" d="M1144.4,288.7h-7.7h-1.3h0v0l-11.7-12.2v12.2h-9.1v-24h9.1l11.7,12.1v-12.1h9V288.7z"/>
		<path class="st1" d="M1146.4,264.7h9.2v24h-9.2V264.7z"/>
		<path class="st1" d="M1187.3,288.7h-7.7h-1.3h0v0l-11.7-12.2v12.2h-9.1v-24h9.1l11.7,12.1v-12.1h9V288.7z"/>
		<path class="st1" d="M1199.7,273.5h14.8v6.5h-14.8v2.3h14.8v6.5h-14.8h-10.4v-24h0.6h24.5v6.5h-14.8V273.5z"/>
	</g>
	<g>
		<path class="st1" d="M1066.7,302.2v65.6h-24.8v-33.4l-31.8,34.8l0.2,0.2v0h-0.2v-0.2v0l-31.8-34.8v33.4h-24.8v-65.6h24.8
			l31.8,34.6v0l31.8-34.6H1066.7z"/>
		<path class="st1" d="M1102.2,319.9v6.3h40.5v17.7h-40.5v6.3h40.5v17.7h-40.5v0h-28.6v-65.6h1.8v0h67.3v17.7H1102.2z"/>
		<path class="st1" d="M1213,325.6h-21.2v42.3h-23.2v-42.3h-21.2v-23.2h21.2h23.2h21.2V325.6z"/>
	</g>
	<g>
		<path class="st1" d="M1286.5,801l-1.7,3.3h-8.8l10.7-21.6h0.5h3.3h5h0.5l10.7,21.6h-8.8l-1.7-3.3H1286.5z M1291.4,791.1l-1.8,3.7
			h3.7L1291.4,791.1z"/>
		<path class="st1" d="M1317.8,790.1l9.5,3.5c3.2,1.3,5.4,2.4,5.4,5.4v1.4l0,0c0,0.1,0,0.2,0,0.3c0,2-1.6,3.7-3.7,3.7h-16.7
			c-2,0-3.7-1.6-3.7-3.7v-3.7h14.7l-9.3-3.4c-3.2-1.3-5.4-2.4-5.4-5.4v-1.4l0,0c0-0.1,0-0.2,0-0.4c0-2,1.6-3.7,3.7-3.7h16.7
			c2,0,3.7,1.6,3.7,3.7v3.7H1317.8z"/>
		<path class="st1" d="M1357.3,791.1c0,3.2-2.6,5.9-5.9,5.9h-9.9v7.3h-7.1v-21.5h2.8v0h14.2v0c3.2,0,5.9,2.6,5.9,5.9V791.1z
			 M1341.5,788.3v2.5h9.1v-2.5H1341.5z"/>
		<path class="st1" d="M1369.5,801l-1.7,3.3h-8.8l10.7-21.6h0.5h3.3h5h0.5l10.7,21.6h-8.8l-1.7-3.3H1369.5z M1374.5,791.1l-1.8,3.7
			h3.7L1374.5,791.1z"/>
		<path class="st1" d="M1410.6,804.3l-3.7-7.2h-8v7.2h-7.3v-21.6h0.5h6.7h10.8c3.3,0,6.1,2.7,6.1,6.1v2.2c0,1.8-0.8,3.5-2.1,4.6
			l4.5,8.7H1410.6z M1406.3,788.3h-7.4v2.7h7.4c1.4,0,2.6-0.6,2.6-1.3v-0.2C1408.9,788.9,1407.7,788.3,1406.3,788.3z"/>
		<path class="st1" d="M1430.3,801l-1.7,3.3h-8.8l10.7-21.6h0.5h3.3h5h0.5l10.7,21.6h-8.8l-1.7-3.3H1430.3z M1435.3,791.1l-1.8,3.7
			h3.7L1435.3,791.1z"/>
		<path class="st1" d="M1471.3,797.9v-2.2h-8.8v-4.5h13.4v13H1459c-3.6,0-6.6-2.9-6.6-6.5v-8.6c0-3.6,2.9-6.5,6.6-6.5h17.1v5.9
			h-16.3v9.2H1471.3z"/>
		<path class="st1" d="M1477.9,782.7h8.2v21.6h-8.2V782.7z"/>
		<path class="st1" d="M1514.7,804.3h-6.9h-1.2h0v0l-10.5-11v11h-8.1v-21.6h8.1l10.5,10.9v-10.9h8.1V804.3z"/>
		<path class="st1" d="M1525.8,790.6h13.3v5.8h-13.3v2.1h13.3v5.8h-13.3h-9.4v-21.6h0.6v0h22.1v5.8h-13.3V790.6z"/>
	</g>
	<g>
		<path class="st1" d="M1604.6,434.1v-2.3h-9.5v-4.8h14.5V441h-18.3c-3.9,0-7.1-3.1-7.1-7v-9.3c0-3.9,3.2-7,7.1-7h18.5v6.4h-17.7v10
			H1604.6z"/>
		<path class="st1" d="M1621.8,441L1621.8,441l-10,0v-23.4h8.4v15.6h16.5v7.7H1621.8z"/>
		<path class="st1" d="M1663.8,433.1c0,4.3-3.5,7.9-7.9,7.9h-9.5c-4.3,0-7.9-3.5-7.9-7.9v-15.5h7.9v12.7c0,1.8,1.5,3.3,3.3,3.3h2.9
			c1.8,0,3.3-1.5,3.3-3.3v-12.7h7.9V433.1z"/>
		<path class="st1" d="M1681.5,425.9V441h-8.3v-15.1h-7.5v-8.3h7.5h8.3h7.5v8.3H1681.5z"/>
		<path class="st1" d="M1702.3,437.4l-1.8,3.6l-9.5,0l11.6-23.4h0.5v0h3.6h5.5v0h0.5l11.6,23.4l-9.5,0l-1.8-3.6H1702.3z
			 M1707.7,426.7l-2,4h4L1707.7,426.7z"/>
		<path class="st1" d="M1735.1,429.1V441h-8.8v-23.4h8.8l11.3,12.3v0l11.3-12.3h8.8V441h-8.8v-11.9l-11.3,11.9h0L1735.1,429.1z"/>
		<path class="st1" d="M1768.5,417.6h8.9V441h-8.9V417.6z"/>
		<path class="st1" d="M1808.4,441h-7.5h-1.3h0v0l-11.4-11.9V441h-8.8v-23.4h8.8l11.4,11.8v-11.8h8.8V441z"/>
		<path class="st1" d="M1820.5,426.2h14.4v6.3h-14.4v2.2h14.4v6.3h-14.4h-10.2v-23.4h0.6h23.9v6.3h-14.4V426.2z"/>
	</g>
	<g>
		<path class="st1" d="M1623.6,520.1h35.1v-6.6h-26.8V500h40.8v39.7h-51.5c-11,0-20-8.8-20-19.7v-26.2c0-10.9,9-19.7,20-19.7h52v18
			h-49.6V520.1z"/>
		<path class="st1" d="M1746.9,517.9v17.3v4.3v0.1h-41.7H1677V474h23.5v43.9H1746.9z"/>
		<path class="st1" d="M1821.5,474v43.5c0,12.2-9.9,22.1-22.1,22.1h-26.6c-12.2,0-22.1-9.9-22.1-22.1V474h22.1v35.6
			c0,5.1,4.1,9.2,9.2,9.2h8.2c5.1,0,9.2-4.1,9.2-9.2V474H1821.5z"/>
	</g>
	<g>
		<path class="st1" d="M1378.2,827l-1.7,3.3h-8.8l10.7-21.6h0.5h3.3h5h0.5l10.7,21.6h-8.8l-1.7-3.3H1378.2z M1383.2,817.1l-1.8,3.7
			h3.7L1383.2,817.1z"/>
		<path class="st1" d="M1423.8,830.3h-17h-1.4c-2.8,0-5.1-2.3-5.1-5.1v-11.4c0-2.8,2.3-5.1,5.1-5.1h3.1h15.1v6.6h-15.1v8.4h15.3
			V830.3z"/>
		<path class="st1" d="M1425.6,808.8h8.2v21.6h-8.2V808.8z"/>
		<path class="st1" d="M1445.6,830.3L1445.6,830.3l-10,0v-1.9v-17.7v-1.9h10v0c5.8,0.2,10.5,4.9,10.5,10.8
			S1451.5,830.2,1445.6,830.3z M1445.7,815.2L1445.7,815.2l-3.5,0v0.7v6.7v0.7h3.5v0c2.2-0.1,3.9-1.9,3.9-4.1
			C1449.7,817,1447.9,815.2,1445.7,815.2z"/>
	</g>
	<g>
		<path class="st1" d="M1672,461.6l-1.8,3.7l-9.8,0l11.9-24h0.5h3.7h5.6h0h0.5l11.9,24l-9.8,0l-1.8-3.7H1672z M1677.5,450.6l-2,4.1
			h4.1L1677.5,450.6z"/>
		<path class="st1" d="M1722.7,465.3h-18.9h-1.6c-3.1,0-5.7-2.5-5.7-5.7V447c0-3.1,2.5-5.7,5.7-5.7h3.4h16.7v7.3h-16.7v9.4h17V465.3
			z"/>
		<path class="st1" d="M1724.7,441.3h9.2v24h-9.2V441.3z"/>
		<path class="st1" d="M1746.9,465.3L1746.9,465.3l-11.1,0v-2.1v-19.7v-2.1h11.1v0c6.4,0.2,11.6,5.5,11.6,12
			C1758.5,459.8,1753.4,465.1,1746.9,465.3z M1747,448.5L1747,448.5l-3.9,0v0.8v7.4v0.8h3.9v0c2.4-0.1,4.4-2.1,4.4-4.5
			S1749.4,448.5,1747,448.5z"/>
	</g>
	<g>
		<path class="st1" d="M1353.7,896.6h-29.9l-5.1,10.2l-26.8,0l32.7-65.6h1.4l0,0h10h15.4v0h1.4l32.7,65.6l-26.8,0L1353.7,896.6z
			 M1344.4,877.8l-5.6-11.3l-5.6,11.3H1344.4z"/>
		<path class="st1" d="M1463.7,863.5h-45.3l29,10.5c9.7,4,16.3,7.3,16.3,16.3v4.3l0,0c0,0.3,0,0.6,0,0.8c0,6.2-5,11.2-11.2,11.2
			h-50.8c-6.2,0-11.2-5-11.2-11.2v-11.2h44.7l-28.3-10.3c-9.7-4-16.3-7.3-16.3-16.3v-4.3l0.1,0c0-0.4-0.1-0.7-0.1-1.1
			c0-6.2,5-11.2,11.2-11.2h50.8c6.2,0,11.2,5,11.2,11.2V863.5z"/>
		<path class="st1" d="M1537,859.1v7.5c0,9.8-8,17.8-17.8,17.8H1489v22.2h-21.6v-65.4h8.5v-0.1h43.2v0.1
			C1529,841.3,1537,849.3,1537,859.1z M1516.6,858.1H1489v7.6h27.6V858.1z"/>
	</g>
</g>
</svg>
