<?xml version="1.0" encoding="utf-8"?>
<!-- Generator: Adobe Illustrator 26.0.1, SVG Export Plug-In . SVG Version: 6.00 Build 0)  -->
<svg version="1.1" xmlns="http://www.w3.org/2000/svg" xmlns:xlink="http://www.w3.org/1999/xlink" x="0px" y="0px"
	 viewBox="0 0 1920 1080" style="enable-background:new 0 0 1920 1080;" xml:space="preserve">
<style type="text/css">
	.st0{fill:url(#SVGID_1_);}
	.st1{fill:#FFFFFF;}
	.st2{stroke:url(#SVGID_00000157286189320658743570000002651063389988767365_);stroke-width:25;stroke-miterlimit:10;}
	.st3{stroke:url(#SVGID_00000140697668016301262910000017093246594067605924_);stroke-width:20;stroke-miterlimit:10;}
	.st4{stroke:url(#SVGID_00000150792434150098320810000005811543370279764901_);stroke-width:20;stroke-miterlimit:10;}
</style>
<g id="background">
	<g>
		<rect x="0.5" y="0.5" width="1919" height="1079"/>
		<path d="M1919,1v1078H1V1H1919 M1920,0H0v1080h1920V0L1920,0z"/>
	</g>
</g>
<g id="Слой_2">
	<g>
		<path d="M1159.5,162h-398c-15.2,0-27.5-12.3-27.5-27.5v-93c0-15.2,12.3-27.5,27.5-27.5h398c15.2,0,27.5,12.3,27.5,27.5v93
			C1187,149.7,1174.7,162,1159.5,162z"/>
		<linearGradient id="SVGID_1_" gradientUnits="userSpaceOnUse" x1="734" y1="88" x2="1187" y2="88">
			<stop  offset="0" style="stop-color:#F15A24"/>
			<stop  offset="8.952639e-02" style="stop-color:#E66122"/>
			<stop  offset="0.2451" style="stop-color:#CA751E"/>
			<stop  offset="0.4483" style="stop-color:#9C9417"/>
			<stop  offset="0.691" style="stop-color:#5CC00E"/>
			<stop  offset="0.9647" style="stop-color:#0BF702"/>
			<stop  offset="1" style="stop-color:#00FF00"/>
		</linearGradient>
		<path class="st0" d="M1159.5,29c6.9,0,12.5,5.6,12.5,12.5v93c0,6.9-5.6,12.5-12.5,12.5h-398c-6.9,0-12.5-5.6-12.5-12.5v-93
			c0-6.9,5.6-12.5,12.5-12.5H1159.5 M1159.5,14h-398C746.3,14,734,26.3,734,41.5v93c0,15.2,12.3,27.5,27.5,27.5h398
			c15.2,0,27.5-12.3,27.5-27.5v-93C1187,26.3,1174.7,14,1159.5,14L1159.5,14z"/>
	</g>
	<g>
		<path class="st1" d="M798.4,74.4l35.7,13c11.9,4.9,20.1,9,20.1,20.1v5.3l0,0c0,0.3,0,0.7,0,1c0,7.6-6.2,13.8-13.8,13.8h-62.6
			c-7.6,0-13.8-6.2-13.8-13.8V100h55l-34.9-12.7c-11.9-4.9-20.1-9-20.1-20.1V62l0.1,0c0-0.4-0.1-0.9-0.1-1.4
			c0-7.6,6.2-13.8,13.8-13.8h62.6c7.6,0,13.8,6.2,13.8,13.8v13.8H798.4z"/>
		<path class="st1" d="M951.3,103c0,13.6-11,24.6-24.6,24.6h-41.1c-13.6,0-24.6-11-24.6-24.6V71.5c0-13.6,11-24.6,24.6-24.6h41.1
			c13.6,0,24.6,11,24.6,24.6V103z M920.7,70.9h-29.1c-4.2,0-7.5,3.4-7.5,7.5v17.6c0,4.2,3.4,7.5,7.5,7.5h29.1c4.2,0,7.5-3.4,7.5-7.5
			V78.4C928.2,74.3,924.8,70.9,920.7,70.9z"/>
		<path class="st1" d="M1045.2,100.4c0,15-12.2,27.2-27.2,27.2h-32.8c-15,0-27.2-12.2-27.2-27.2V46.8h27.2v43.8
			c0,6.2,5.1,11.3,11.3,11.3h10.2c6.2,0,11.3-5.1,11.3-11.3V46.8h27.2V100.4z"/>
		<path class="st1" d="M1123.2,127.7l-13.9-27.1h-30.1v27.1H1052V46.8h2h25.3h40.4c12.5,0,22.7,10.2,22.7,22.7v8.3
			c0,6.9-3,13-7.8,17.1l16.7,32.7H1123.2z M1107,67.7h-27.8v10.2h27.8c5.3,0,9.6-2.1,9.6-4.8v-0.7
			C1116.6,69.8,1112.3,67.7,1107,67.7z"/>
	</g>
	
		<linearGradient id="SVGID_00000083058067632152237490000006615283510375677825_" gradientUnits="userSpaceOnUse" x1="418" y1="621" x2="1553" y2="621">
		<stop  offset="0.3417" style="stop-color:#00FF00"/>
		<stop  offset="0.3678" style="stop-color:#0BF802"/>
		<stop  offset="0.4132" style="stop-color:#27E406"/>
		<stop  offset="0.4724" style="stop-color:#55C50D"/>
		<stop  offset="0.5431" style="stop-color:#959916"/>
		<stop  offset="0.6229" style="stop-color:#E66222"/>
		<stop  offset="0.6332" style="stop-color:#F15A24"/>
	</linearGradient>
	
		<rect x="430.5" y="564.5" style="stroke:url(#SVGID_00000083058067632152237490000006615283510375677825_);stroke-width:25;stroke-miterlimit:10;" width="1110" height="113"/>
	
		<linearGradient id="SVGID_00000162350425360510073200000016651324482355196044_" gradientUnits="userSpaceOnUse" x1="87" y1="621" x2="774" y2="621">
		<stop  offset="0" style="stop-color:#F15A24"/>
		<stop  offset="8.952639e-02" style="stop-color:#E66122"/>
		<stop  offset="0.2451" style="stop-color:#CA751E"/>
		<stop  offset="0.4483" style="stop-color:#9C9417"/>
		<stop  offset="0.691" style="stop-color:#5CC00E"/>
		<stop  offset="0.9647" style="stop-color:#0BF702"/>
		<stop  offset="1" style="stop-color:#00FF00"/>
	</linearGradient>
	
		<circle style="stroke:url(#SVGID_00000162350425360510073200000016651324482355196044_);stroke-width:20;stroke-miterlimit:10;" cx="430.5" cy="621" r="333.5"/>
	
		<linearGradient id="SVGID_00000177466009731731390580000010248360505635354045_" gradientUnits="userSpaceOnUse" x1="1196.5" y1="621" x2="1883.5" y2="621">
		<stop  offset="0" style="stop-color:#F15A24"/>
		<stop  offset="8.952639e-02" style="stop-color:#E66122"/>
		<stop  offset="0.2451" style="stop-color:#CA751E"/>
		<stop  offset="0.4483" style="stop-color:#9C9417"/>
		<stop  offset="0.691" style="stop-color:#5CC00E"/>
		<stop  offset="0.9647" style="stop-color:#0BF702"/>
		<stop  offset="1" style="stop-color:#00FF00"/>
	</linearGradient>
	
		<circle style="stroke:url(#SVGID_00000177466009731731390580000010248360505635354045_);stroke-width:20;stroke-miterlimit:10;" cx="1540" cy="621" r="333.5"/>
	<g>
		<path class="st1" d="M164.5,556.7l-3.7,7.4l-19.5,0l23.9-47.9h1v0l7.3,0l11.2,0v0h1l23.9,47.9l-19.5,0l-3.7-7.4H164.5z
			 M175.4,534.8l-4.1,8.2h8.2L175.4,534.8z"/>
		<path class="st1" d="M232.3,532.6l21.2,7.7c7.1,2.9,11.9,5.3,11.9,11.9v3.1l0,0c0,0.2,0,0.4,0,0.6c0,4.5-3.7,8.2-8.2,8.2h-37.1
			c-4.5,0-8.2-3.7-8.2-8.2v-8.2h32.6l-20.7-7.5c-7.1-2.9-11.9-5.3-11.9-11.9v-3.1l0,0c0-0.3,0-0.5,0-0.8c0-4.5,3.7-8.2,8.2-8.2h37.1
			c4.5,0,8.2,3.7,8.2,8.2v8.2H232.3z"/>
		<path class="st1" d="M318.5,534.8c0,7.2-5.8,13-13,13h-22v16.2h-15.7v-47.8h6.2v-0.1h31.6v0.1c7.2,0,13,5.8,13,13V534.8z
			 M283.5,528.6v5.6h20.2v-5.6H283.5z"/>
		<path class="st1" d="M344.1,556.7l-3.7,7.4l-19.5,0l23.9-47.9h1v0l7.3,0l11.2,0v0h1l23.9,47.9l-19.5,0l-3.7-7.4H344.1z
			 M355.1,534.8L351,543h8.2L355.1,534.8z"/>
		<path class="st1" d="M433.8,564.1l-8.2-16.1h-17.9v16.1h-16.1v-47.9h1.2h15h23.9c7.4,0,13.4,6,13.4,13.4v4.9
			c0,4.1-1.8,7.7-4.6,10.2l9.9,19.4H433.8z M424.3,528.6h-16.5v6h16.5c3.2,0,5.7-1.3,5.7-2.8v-0.4
			C430,529.8,427.4,528.6,424.3,528.6z"/>
		<path class="st1" d="M476.1,556.7l-3.7,7.4l-19.5,0l23.9-47.9h1v0l7.3,0l11.2,0v0h1l23.9,47.9l-19.5,0l-3.7-7.4H476.1z M487,534.8
			l-4.1,8.2h8.2L487,534.8z"/>
		<path class="st1" d="M565.5,549.9V545h-19.6v-9.9h29.8v29h-37.6c-8.1,0-14.6-6.4-14.6-14.4v-19.1c0-7.9,6.5-14.4,14.6-14.4h38
			v13.1h-36.2v20.5H565.5z"/>
		<path class="st1" d="M578.5,516.2h18.3v47.9h-18.3V516.2z"/>
		<path class="st1" d="M658.6,564.1h-15.4h-2.6h0v0l-23.3-24.4v24.4h-18.1v-47.9h18.1l23.3,24.2v-24.2h18V564.1z"/>
		<path class="st1" d="M681.9,533.7h29.5v12.9h-29.5v4.6h29.5v12.9h-29.5h-20.8v-47.9h1.3h49.1v12.9h-29.5V533.7z"/>
	</g>
	<g>
		<path class="st1" d="M313.2,689.2h-47.9l-8.1,16.2l-42.8,0l52.3-105h2.2l0,0l16,0l24.6,0l0,0h2.2l52.3,105l-42.8,0L313.2,689.2z
			 M298.2,659.2l-9-18l-9,18H298.2z"/>
		<path class="st1" d="M486.7,636.3h-72.5l46.4,16.8c15.5,6.3,26.2,11.7,26.2,26.2v6.9l-0.1,0c0,0.4,0.1,0.9,0.1,1.4
			c0,9.9-8,17.9-17.9,17.9h-81.3c-9.9,0-17.9-8-17.9-17.9v-17.9H441l-45.3-16.4c-15.5-6.3-26.2-11.7-26.2-26.1v-6.9l0.1,0
			c-0.1-0.6-0.1-1.2-0.1-1.8c0-9.9,8-17.9,17.9-17.9h81.3c9.9,0,17.9,8,17.9,17.9V636.3z"/>
		<path class="st1" d="M620.6,600.4v105h-33.7h-5.7h0v0L530,651.9v53.5h-39.7v-105H530l51.1,53.1v-53.1H620.6z"/>
	</g>
	<g>
		<path class="st1" d="M1303.1,548.1v-5.4h-22v-11.2h33.5v32.6h-42.3c-9.1,0-16.4-7.2-16.4-16.2v-21.5c0-8.9,7.4-16.2,16.4-16.2
			h42.7v14.8h-40.8v23H1303.1z"/>
		<path class="st1" d="M1340.9,564L1340.9,564l-23.2,0.1v-53.9h19.3v36h38.1V564H1340.9z"/>
		<path class="st1" d="M1436,546c0,10-8.1,18.2-18.2,18.2H1396c-10,0-18.2-8.1-18.2-18.2v-35.7h18.2v29.2c0,4.2,3.4,7.5,7.5,7.5h6.8
			c4.2,0,7.5-3.4,7.5-7.5v-29.2h18.2V546z"/>
		<path class="st1" d="M1475.1,529.4v34.8h-19.1v-34.8h-17.4v-19.1h17.4h19.1h17.4v19.1H1475.1z"/>
		<path class="st1" d="M1521.3,555.8l-4.2,8.3l-22,0l26.9-53.9h1.2v0l8.2,0l12.6,0l0,0h1.2l26.9,53.9l-22,0l-4.2-8.3H1521.3z
			 M1533.6,531.1l-4.6,9.3h9.2L1533.6,531.1z"/>
		<path class="st1" d="M1621.2,564.1l-26.1-27.5v27.5h-20.4v-53.9h20.4l26.1,28.4v0l26.1-28.4h20.4v53.9h-20.4v-27.5L1621.2,564.1
			L1621.2,564.1L1621.2,564.1z"/>
		<path class="st1" d="M1670.4,510.2h20.6v53.9h-20.6V510.2z"/>
		<path class="st1" d="M1760.6,564.1h-17.3h-2.9h0v0l-26.2-27.5v27.5h-20.4v-53.9h20.4l26.2,27.3v-27.3h20.2V564.1z"/>
		<path class="st1" d="M1786.8,529.9h33.2v14.5h-33.2v5.2h33.2v14.5h-33.2h-23.5v-53.9h1.4v0h55.2v14.5h-33.2V529.9z"/>
	</g>
	<g>
		<path class="st1" d="M1393.5,674.5h56.1V664h-42.9v-21.8h65.3v63.5h-82.4c-17.7,0-32-14.1-32-31.5v-41.9c0-17.4,14.3-31.5,32-31.5
			h83.2v28.8h-79.4V674.5z"/>
		<path class="st1" d="M1588.4,671v27.7v7v0.1h-66.8h-45.2v-105h37.7V671H1588.4z"/>
		<path class="st1" d="M1722.3,600.8v105h-33.7h-5.7h0v0l-51.1-53.5v53.5H1592v-105h39.7l51.1,53.1v-53.1H1722.3z"/>
	</g>
</g>
</svg>
